<?xml version="1.0" encoding="utf-8"?>
<!-- Generator: Adobe Illustrator 27.0.0, SVG Export Plug-In . SVG Version: 6.00 Build 0)  -->
<svg version="1.1" id="圖層_1" xmlns="http://www.w3.org/2000/svg" xmlns:xlink="http://www.w3.org/1999/xlink" x="0px" y="0px"
	 viewBox="0 0 30 30" style="enable-background:new 0 0 30 30;" xml:space="preserve">
<style type="text/css">
	.st0{fill:#FFFFFF;}
</style>
<g>
	<path class="st0" d="M12.6,12.6c0,0.6,0,1.2,0,1.9c0,0.1,0,0.3,0,0.4c0,0.1-0.1,0.1-0.2,0.1c-0.3,0-0.5,0-0.8,0c-0.7,0-1.4,0-2.1,0
		c-0.2,0-0.4,0-0.6,0c-0.1,0-0.1,0-0.1,0.1c0,0.1,0,0.3,0,0.4c0,1,0,2,0,3c0,0.3,0,0.5,0,0.8c0,0.1,0.1,0.1,0.2,0.1
		c0.2,0,0.3,0,0.5,0c0.5,0,1,0,1.5,0c0.3,0,0.6,0,0.8,0c0.2,0,0.4,0,0.6,0c0.2,0,0.2,0,0.2,0.2c0,3,0,6,0,9c0,0.3,0,0.7,0,1
		c0,0.1,0,0.1-0.1,0.1c-0.2,0-0.4,0-0.6-0.1c0,0-0.1,0-0.1,0c-0.2,0-0.4,0-0.5-0.1c-0.2-0.1-0.5-0.1-0.8-0.2c0,0-0.1,0-0.1,0
		c-0.1-0.1-0.2-0.1-0.3-0.1c-0.2-0.1-0.4,0-0.5-0.2c0,0,0,0,0,0c-0.2-0.1-0.4-0.1-0.5-0.2c-0.2-0.1-0.3-0.1-0.5-0.2
		c-0.1-0.1-0.2-0.1-0.3-0.1C8,28.3,7.7,28.2,7.5,28c0,0-0.1,0-0.1,0c-0.1,0-0.2,0-0.2-0.1c0-0.1-0.1-0.1-0.2-0.1
		c-0.1-0.1-0.3-0.2-0.4-0.2c-0.1-0.1-0.3-0.2-0.4-0.3c-0.1,0-0.1-0.1-0.2-0.1c0,0,0,0,0,0c-0.1-0.1-0.3-0.2-0.4-0.3
		c-0.2-0.1-0.3-0.3-0.4-0.4C5.1,26.3,5,26.3,5,26.2c-0.2-0.2-0.4-0.4-0.6-0.6c-0.2-0.2-0.3-0.3-0.5-0.5c-0.1-0.2-0.3-0.3-0.4-0.5
		c0,0-0.1-0.1-0.1-0.2c0,0-0.1-0.1-0.1-0.1c0-0.1-0.1-0.1-0.1-0.2c0,0,0,0,0,0c-0.2-0.1-0.2-0.3-0.4-0.5c-0.1-0.1-0.2-0.2-0.2-0.3
		c-0.1-0.1-0.1-0.1-0.2-0.2c0,0,0,0,0-0.1c-0.1-0.1-0.1-0.2-0.2-0.3c-0.1-0.3-0.3-0.5-0.4-0.8c-0.1-0.1-0.1-0.2-0.2-0.4
		c0-0.1-0.1-0.2-0.2-0.4c0,0,0-0.1,0-0.1c0,0,0-0.1,0-0.1c-0.1-0.1-0.1-0.3-0.2-0.5c0,0,0-0.1,0-0.1c0-0.1-0.1-0.2-0.1-0.2
		c0,0,0-0.1-0.1-0.1c0-0.1-0.1-0.2-0.1-0.3c0-0.1,0-0.1-0.1-0.2c-0.1-0.2-0.2-0.4-0.1-0.6c0,0,0-0.1,0-0.1c-0.1-0.1-0.1-0.2-0.1-0.3
		c0-0.1,0-0.3-0.1-0.4c-0.1-0.3-0.1-0.6-0.2-0.8c0-0.2,0-0.3-0.1-0.5C0.1,16.3,0,16,0,15.6c0-0.1,0-0.2,0-0.3c0-0.7,0.1-1.3,0.1-2
		c0-0.2,0-0.4,0.1-0.6c0-0.1,0-0.2,0-0.4c0-0.3,0.1-0.6,0.1-0.8c0,0,0-0.1,0-0.1c0.1-0.1,0.1-0.1,0.1-0.2c0-0.2,0.1-0.4,0.1-0.5
		c0.1-0.2,0.1-0.4,0.2-0.6c0,0,0,0,0,0C1,9.8,1,9.6,1.1,9.4c0,0,0-0.1,0-0.1C1.2,9.2,1.2,9.1,1.3,9c0-0.1,0.1-0.2,0.2-0.3
		c0-0.1,0.1-0.2,0.1-0.3c0,0,0,0,0-0.1C1.7,8.2,1.8,8,1.9,7.8C2,7.6,2.1,7.3,2.2,7.1c0,0,0,0,0,0C2.4,7,2.5,6.8,2.6,6.7
		c0.1-0.2,0.2-0.4,0.4-0.6C3,6,3.1,5.9,3.2,5.8c0.1-0.1,0.1-0.2,0.2-0.2c0-0.1,0.1-0.1,0.2-0.2C3.8,5.1,4,4.9,4.2,4.7
		c0.2-0.2,0.4-0.4,0.6-0.6C4.9,3.9,5,3.8,5.2,3.7c0.1-0.1,0.2-0.1,0.3-0.2C5.6,3.4,5.8,3.2,6,3.1C6.1,3,6.2,2.9,6.4,2.8
		C6.6,2.7,6.8,2.5,7,2.4C7.2,2.3,7.4,2.2,7.6,2C7.8,1.9,8,1.8,8.2,1.7C8.4,1.6,8.7,1.5,9,1.3c0.2-0.1,0.3-0.1,0.5-0.2
		C9.7,1.1,9.9,1,10.1,0.9c0.1,0,0.2-0.1,0.3-0.1c0,0,0.1,0,0.1,0c0.2-0.1,0.5-0.1,0.7-0.2c0.2-0.1,0.4-0.1,0.5-0.1
		c0.1,0,0.2-0.1,0.3-0.1c0.1,0,0.1,0,0.2-0.1c0.4,0,0.8-0.1,1.3-0.1c0.1,0,0.2,0,0.4,0c0.2,0,0.4,0,0.6-0.1c0.4-0.1,0.8,0,1.3-0.1
		c0.1,0,0.2,0.1,0.2,0.1c0.1,0,0.2,0,0.4,0c0.2,0,0.4,0,0.5,0c0.3,0,0.7,0.1,1,0.1c0.1,0,0.2,0,0.3,0.1c0.1,0.1,0.3,0.1,0.4,0.1
		c0.2,0,0.4,0.1,0.6,0.2c0.1,0,0.2,0,0.3,0.1c0.1,0,0.3,0.1,0.4,0.1C19.9,0.9,20.1,1,20.3,1c0.2,0.1,0.4,0.2,0.5,0.2
		c0.1,0,0.1,0,0.2,0.1c0.2,0.1,0.3,0.1,0.5,0.2c0.2,0.1,0.4,0.2,0.7,0.3c0.2,0.1,0.4,0.3,0.6,0.4c0.1,0,0.1,0.1,0.2,0.1
		c0.3,0.2,0.6,0.4,0.9,0.6c0.4,0.3,0.7,0.5,1,0.8C25,3.9,25.1,4,25.3,4.2c0.2,0.2,0.5,0.5,0.7,0.7c0.2,0.3,0.5,0.5,0.7,0.8
		c0.2,0.3,0.5,0.6,0.7,1c0.1,0.2,0.2,0.4,0.4,0.6c0.1,0.2,0.2,0.4,0.3,0.5c0,0.1,0.1,0.1,0.1,0.2c0,0,0,0.1,0,0.1
		c0.1,0.1,0.1,0.2,0.2,0.4c0,0.1,0.1,0.2,0.1,0.2c0,0,0,0.1,0.1,0.1c0,0.1,0.1,0.2,0.1,0.3c0.1,0.1,0.1,0.3,0.2,0.4c0,0,0,0.1,0,0.1
		C29,9.6,29,9.8,29,9.9c0,0.2,0.1,0.3,0.2,0.5c0,0.1,0.1,0.2,0.1,0.4c0,0.1,0.1,0.2,0.1,0.3c0,0,0,0,0,0.1c0,0.2,0.1,0.3,0.1,0.5
		c0,0.1,0,0.2,0.1,0.4c0,0.1,0.1,0.1,0.1,0.2c0,0.1,0,0.1,0,0.2c0,0.2,0,0.4,0.1,0.6c0.1,0.4,0.1,0.9,0.1,1.4c0,0.1,0,0.2,0.1,0.2
		c0,0,0,0.1,0,0.1c0,0.4,0,0.7,0,1.1c0,0,0,0.1,0,0.1c-0.1,0.1-0.1,0.3-0.1,0.4c0,0.3,0,0.6,0,0.9c0,0.1-0.1,0.2-0.1,0.4
		c0,0.1,0,0.3,0,0.4c0,0.1-0.1,0.3-0.1,0.4c0,0.1,0,0.1,0,0.2c-0.1,0.3-0.1,0.5-0.1,0.8c0,0,0,0.1,0,0.1c-0.1,0.1-0.1,0.2-0.1,0.3
		c0,0.1,0,0.1-0.1,0.2c0,0.1-0.1,0.2-0.1,0.2c0,0,0,0.1,0,0.1C29,20.2,29,20.3,29,20.4c0,0,0,0.1,0,0.1c-0.1,0-0.1,0.1-0.1,0.2
		c-0.1,0.2-0.1,0.4-0.2,0.5c0,0,0,0,0,0c-0.1,0.2-0.2,0.5-0.3,0.7c0,0,0,0.1,0,0.1c-0.1,0.1-0.2,0.3-0.2,0.4
		c-0.1,0.1-0.1,0.2-0.2,0.4c0,0,0,0-0.1,0.1c0,0-0.1,0-0.1,0.1c0,0.2-0.1,0.3-0.2,0.4c-0.1,0-0.1,0.1-0.1,0.2
		c-0.2,0.3-0.4,0.5-0.6,0.8c-0.1,0.1-0.2,0.3-0.3,0.4c-0.1,0.1-0.1,0.2-0.2,0.2c-0.1,0.1-0.3,0.3-0.4,0.4c-0.2,0.2-0.4,0.4-0.6,0.6
		c-0.1,0-0.1,0.1-0.2,0.2c-0.2,0.1-0.3,0.3-0.5,0.4c-0.1,0.1-0.2,0.2-0.3,0.2c-0.1,0-0.1,0.1-0.1,0.1c-0.2,0.1-0.4,0.3-0.6,0.4
		c-0.2,0.2-0.4,0.2-0.6,0.4c-0.2,0.1-0.4,0.2-0.6,0.3c-0.2,0.1-0.5,0.2-0.7,0.4c0,0-0.1,0-0.1,0c0,0-0.1,0-0.1,0
		c-0.1,0.2-0.3,0.1-0.5,0.2c-0.1,0-0.1,0.1-0.2,0.1c0,0,0,0-0.1,0c-0.2,0.1-0.4,0.1-0.5,0.2c-0.2,0.1-0.4,0.1-0.5,0.2c0,0,0,0-0.1,0
		c-0.2,0-0.4,0.1-0.5,0.1c-0.2,0.1-0.4,0.1-0.6,0.2c-0.1,0-0.3,0-0.4,0.1c-0.1,0.1-0.3,0.1-0.4,0.1c-0.1,0-0.1-0.1-0.1-0.2
		c0-0.2,0-0.4,0-0.7c-0.1-2.6,0-5.3,0-7.9c0-0.5,0-1,0-1.5c0-0.1,0.1-0.1,0.2-0.1c0.3,0,0.5,0,0.8,0c0.3,0,0.7,0,1,0
		c0.3,0,0.5,0,0.8,0c0.1,0,0.2,0,0.4,0c0.1,0,0.2,0,0.3,0c0,0,0.1-0.1,0.1-0.2c0.1-0.3,0.1-0.7,0.2-1c0.1-0.4,0.1-0.8,0.2-1.2
		c0.1-0.3,0.1-0.6,0.2-0.9c0-0.2,0-0.4,0.1-0.6c0-0.1,0-0.2,0.1-0.3c0.1-0.1,0-0.2-0.1-0.2c-0.1,0-0.2,0-0.3,0c-0.5,0-1.1,0-1.6,0
		c-0.6,0-1.2,0-1.8,0c-0.1,0-0.2,0-0.3,0c0,0-0.1-0.1-0.1-0.1c0-0.5,0-1.1,0-1.6c0-0.6,0.1-1.2,0.1-1.8c0-0.2,0.1-0.3,0.2-0.5
		c0.1-0.2,0.3-0.4,0.5-0.5c0.2-0.2,0.4-0.2,0.6-0.3c0,0,0.1,0,0.1-0.1c0.1,0,0.2-0.1,0.3-0.1c0.4,0,0.8,0,1.3,0c0.1,0,0.3,0,0.4,0
		c0.1,0,0.2,0,0.3,0c0.2,0,0.3,0,0.5,0c0.1,0,0.1-0.1,0.1-0.2c0-0.2,0-0.3,0-0.5c0-1,0-2,0-3c0-0.1-0.1-0.2-0.2-0.2
		C21.3,6,20.9,6,20.6,6c-0.1,0-0.3-0.1-0.4-0.1c-0.2,0-0.3-0.1-0.5-0.1c-0.5,0-1,0-1.5,0c-0.1,0-0.2,0-0.3,0c-0.2,0-0.3,0-0.4,0
		c-0.3,0.1-0.5,0.1-0.8,0.1c-0.2,0-0.4,0.1-0.6,0.2c0,0-0.1,0-0.1,0c-0.2,0.1-0.3,0.1-0.5,0.2c-0.1,0.1-0.2,0.1-0.3,0.2
		c-0.2,0.1-0.3,0.2-0.5,0.3c-0.1,0.1-0.3,0.2-0.4,0.4c-0.1,0.1-0.2,0.2-0.3,0.3c-0.1,0.2-0.3,0.3-0.4,0.5c0,0,0,0,0,0
		c-0.2,0.1-0.2,0.3-0.3,0.5C13,9,12.9,9.3,12.8,9.6c0,0.2-0.1,0.4-0.1,0.6c-0.2,0.6-0.1,1.3-0.1,1.9C12.6,12.3,12.6,12.4,12.6,12.6
		C12.6,12.6,12.6,12.6,12.6,12.6z"/>
</g>
</svg>
