<?xml version="1.0" encoding="utf-8"?>
<!-- Generator: Adobe Illustrator 27.0.0, SVG Export Plug-In . SVG Version: 6.00 Build 0)  -->
<svg version="1.1" id="feature_version1_image.svg" xmlns="http://www.w3.org/2000/svg" xmlns:xlink="http://www.w3.org/1999/xlink"
	 x="0px" y="0px" viewBox="0 0 749 280" style="enable-background:new 0 0 749 280;" xml:space="preserve">
<style type="text/css">
	.st0{fill:#FFFFFF;}
	.st1{fill-rule:evenodd;clip-rule:evenodd;fill:#C9A063;}
</style>
<g>
	<g>
		<path class="st0" d="M68.9,114.7v9.6h1.4v-11.2c0.7-0.9,1.2-1.7,1.7-2.6l-1.3-0.5c-1.2,2.1-3.1,4.2-4.9,5.5c0.2,0.3,0.7,1,0.8,1.3
			C67.4,116.3,68.1,115.5,68.9,114.7z M66,110.1c0.3,0.3,0.6,0.8,0.8,1.1c1.7-1.2,3.5-3,4.7-4.7l-1.4-0.5
			C69.3,107.4,67.5,109.1,66,110.1z M75.1,106c-0.6,3-1.7,5.6-3.6,7.2c0.3,0.2,0.9,0.7,1.1,1c1-1,1.9-2.3,2.6-3.7
			c0.8,0.6,1.6,1.4,2,1.9l0.7-1.1c-0.5-0.5-1.4-1.3-2.2-2c0.3-0.9,0.6-2,0.9-3.1L75.1,106z M80.4,106c-0.4,3.1-1.6,5.5-3.6,7
			c0.3,0.2,0.7,0.5,1,0.8h-0.3v8.4c-1.3-0.6-2.2-1.8-2.8-3.9c0.2-0.9,0.3-1.9,0.3-2.9l-1.4-0.1c-0.2,3.6-0.9,6.3-2.9,8
			c0.3,0.2,0.9,0.7,1.1,1c1.1-1,1.9-2.3,2.4-3.8c1.3,3,3.4,3.7,6.4,3.7H84c0-0.4,0.3-1,0.5-1.3h-3.7c-0.6,0-1.2,0-1.8-0.1v-4.2h4.4
			v-1.3H79v-3.4h-0.8c0.9-0.8,1.7-1.8,2.3-3.1c1.1,1.1,2.4,2.4,3,3.2l1-1c-0.7-0.9-2.2-2.4-3.5-3.5c0.4-1,0.6-2.1,0.8-3.3L80.4,106z
			 M88.2,114.1h3.2c-0.3,1.8-0.7,3.4-1.2,4.7c-0.5-0.8-1-1.8-1.3-3l-1.1,0.4c0.5,1.6,1.1,2.8,1.8,3.8c-0.7,1.3-1.6,2.3-2.6,3
			c0.3,0.2,0.9,0.7,1.1,1c0.9-0.7,1.8-1.7,2.5-2.9c2.1,2,5,2.5,8.7,2.5h5.6c0.1-0.4,0.3-1,0.6-1.4c-1,0-5.3,0-6.1,0
			c-3.4,0-6.2-0.4-8.1-2.4c0.8-1.9,1.4-4.2,1.7-7l-0.8-0.2l-0.3,0h-1.4c0.9-1.7,1.9-3.8,2.8-5.5h-5.6v1.3h3.5
			C90.2,110.5,89.1,112.6,88.2,114.1z M98,106.1v1.6h-3.8v1.2H98v1.5h-5.1v1.2H98v1.5h-4v1.2h4v1.5h-4.1v1.1H98v1.6h-5v1.2h5v2h1.4
			v-2h5.5v-1.2h-5.5v-1.6h4.7v-1.1h-4.7v-1.5h4.3v-2.7h1.4v-1.2h-1.4v-2.6h-4.3v-1.6H98z M102.4,113h-3v-1.5h3V113z M102.4,108.9
			v1.5h-3v-1.5H102.4z M108.2,109.6c0.3,0.2,0.8,0.7,1,1c0.7-0.6,1.4-1.4,2-2.2h1.9l-0.9,0.6c0.6,0.6,1.4,1.4,1.7,2l1-0.8
			c-0.3-0.5-1.1-1.2-1.7-1.8h3.9v-1.2h-5.1c0.2-0.3,0.3-0.6,0.5-0.9l-1.3-0.4C110.6,107.2,109.4,108.6,108.2,109.6z M109.4,123.9
			c2.1-0.7,4.4-2,5.7-3.5l-1.2-0.5c-1.2,1.2-3.4,2.2-5.5,2.7C108.7,122.9,109.2,123.5,109.4,123.9z M108.5,115.9l0.2,1.2
			c1.9-0.3,4.5-0.7,7-1.1l-0.1-1.2l-2.7,0.4v-2.9h2.7v-1.1h-6.8v1.1h2.8v3.1C110.4,115.6,109.3,115.8,108.5,115.9z M126.2,118.3H118
			V117h-1c1-0.5,1.7-1.1,2.1-1.7c0.7,0.4,1.4,0.7,1.9,1l0.5-1c-0.5-0.3-1.2-0.6-2-1c0.2-0.5,0.2-0.9,0.2-1.4v-0.7h2.1v3
			c0,1.1,0.1,1.4,0.4,1.6c0.3,0.3,0.7,0.3,1.1,0.3h0.9c0.3,0,0.7,0,0.9-0.2c0.2-0.1,0.4-0.3,0.5-0.6c0.1-0.3,0.2-1.1,0.2-1.9
			c-0.3-0.1-0.8-0.3-1-0.5c0,0.7,0,1.3-0.1,1.5c-0.1,0.2-0.1,0.4-0.2,0.4c-0.1,0.1-0.2,0.1-0.4,0.1h-0.5c-0.1,0-0.2,0-0.3-0.1
			c-0.1-0.1-0.1-0.3-0.1-0.7v-4.2h-7.1v1.1h2.3v0.7c0,0.3,0,0.6-0.1,0.9c-0.6-0.3-1.3-0.6-1.9-0.8l-0.6,0.9c0.6,0.3,1.3,0.6,2,0.9
			c-0.5,0.6-1.3,1.2-2.6,1.7c0.3,0.2,0.8,0.6,1,0.9l0.2-0.1v1.1h-8.1v1.2h8.1v4.7h1.4v-4.7h8.2V118.3z M124.8,123.7l1-1.1
			c-1.2-0.9-3.6-2.1-5.4-2.8l-1,1C121.3,121.6,123.6,122.9,124.8,123.7z M126.3,107.2h-6.2c0.2-0.3,0.3-0.6,0.4-1l-1.4-0.4
			c-0.6,1.5-1.6,2.9-2.8,3.8c0.3,0.2,0.9,0.6,1.1,0.9c0.7-0.6,1.3-1.3,1.9-2.2h2.4l-0.9,0.6c0.6,0.6,1.3,1.4,1.7,1.9l1.1-0.8
			c-0.3-0.4-1-1.2-1.6-1.7h4.3V107.2z M131.3,106.6c0.6,0.8,1.3,1.9,1.6,2.6l1.1-0.8c-0.3-0.7-1-1.7-1.7-2.5L131.3,106.6z
			 M147.4,122.4h-5v-2.9h4.3v-1.3h-4.3v-2.2h4.2v-9.1h-9.6v9.1h4.1v2.2h-4.1v1.3h4.1v2.9h-4.9v1.3h11.3V122.4z M142.3,108.1h2.8v2.6
			h-2.8V108.1z M142.3,112h2.8v2.7h-2.8V112z M140.9,114.7h-2.7V112h2.7V114.7z M140.9,110.8h-2.7v-2.6h2.7V110.8z M128.7,117.4
			c0.2,0.3,0.6,1,0.7,1.4c0.8-0.7,1.7-1.6,2.5-2.5v7.9h1.4v-8c0.7,1,1.6,2.1,2,2.8l0.8-1.2c-0.2-0.3-0.8-1-1.5-1.8
			c0.6-0.5,1.2-1.2,1.8-1.9l-0.9-0.8c-0.4,0.6-1,1.3-1.6,2c-0.2-0.3-0.5-0.6-0.7-0.7v0c0.9-1.4,1.8-2.9,2.3-4.4l-0.8-0.6l-0.2,0.1
			h-5.4v1.4h4.6C132.8,113.4,130.7,115.9,128.7,117.4z M161.1,114.4c0-1.4-0.6-2.3-1.7-2.3c-0.8,0-1.5,0.5-1.5,1.4
			c0,0.9,0.7,1.4,1.5,1.4c0.1,0,0.2,0,0.3,0c-0.1,1.4-1,2.3-2.5,2.9l0.4,1.1C159.7,118.2,161.1,116.6,161.1,114.4z M185.9,116
			c-0.9-0.9-2.7-2.2-4.2-3.1l-0.8,0.6c1,0.6,2.1,1.4,3,2.1c0.5,0.4,0.9,0.8,1.2,1.1L185.9,116z M179.4,113.2l-1.2-0.4
			c-0.8,1.1-2.4,2.3-3.9,3c0.3,0.2,0.7,0.5,0.9,0.8c0.5-0.2,0.9-0.5,1.4-0.8v3.6h1.4c-0.3,1.6-1.1,2.5-3.4,3.1
			c0.3,0.2,0.6,0.7,0.7,1c2.6-0.8,3.6-2,3.9-4.1h1.6v2.3c0,1.2,0.3,1.5,1.6,1.5h1.7c0.4,0,0.7-0.1,1-0.3c0.1,0.4,0.3,0.8,0.3,1.1
			c1.2,0,2,0,2.5-0.3c0.5-0.3,0.7-0.6,0.7-1.5v-15.5h-7.5v5.6h6v9.9c0,0.3-0.1,0.4-0.3,0.4c-0.2,0-0.9,0-1.6,0
			c0.2-0.3,0.3-0.8,0.3-1.5c-0.4-0.1-0.9-0.3-1.1-0.5c-0.1,1.3-0.1,1.4-0.5,1.4h-1.4c-0.4,0-0.5,0-0.5-0.4v-2.3h1.8v-3.8h-7.1
			C177.8,114.9,178.7,114.1,179.4,113.2z M182.5,107.8h4.6v1.3h-4.6V107.8z M182.5,111.3V110h4.6v1.3H182.5z M177.7,116.6h4.9v1.9
			h-4.9V116.6z M172,124.2h1.4v-11.9h5.9v-5.7H172V124.2z M173.4,107.8h4.5v1.3h-4.5V107.8z M173.4,110h4.5v1.3h-4.5V110z
			 M198.1,114.6h-5.4v1.2h5.4V114.6z M192.1,110.5h6.4v-1.2h-6.4V110.5z M192.9,112v1.2h5.1V112H192.9z M195,106.1l-1.2,0.5
			c0.7,0.8,1.4,1.9,1.7,2.6l1.3-0.6C196.5,107.9,195.7,106.9,195,106.1z M192.9,124h1.2v-0.9h3.9v-5.8h-5.1V124z M194.1,118.5h2.6
			v3.3h-2.6V118.5z M199.3,114.8H210v-4h-10.7V114.8z M206.7,111.7h2v2.2h-2V111.7z M203.4,111.7h2.2v2.2h-2.2V111.7z M200.5,111.7
			h1.9v2.2h-1.9V111.7z M203.7,106v1.1h-4.6v1h4.6v1h-3.9v1h9.7v-1h-4.3v-1h4.9v-1h-4.9V106H203.7z M209.4,121.4v-5.9h-9.6v5.9h2.5
			c-0.9,0.7-2.7,1.5-4.2,1.9c0.3,0.2,0.7,0.7,0.9,0.9c1.5-0.5,3.4-1.3,4.5-2.2l-1.2-0.7h3.8l-0.6,0.8c1.5,0.7,3.1,1.5,4.1,2.1l0.8-1
			c-1-0.5-2.7-1.3-4.1-1.9H209.4z M201.2,116.4h6.8v0.8h-6.8V116.4z M201.2,118h6.8v0.9h-6.8V118z M201.2,120.5v-0.9h6.8v0.9H201.2z
			 M213.2,120.1l0.5,1.5c1.6-0.6,3.6-1.4,5.5-2.2l-0.3-1.3l-1.9,0.7v-6.6h1.9v-1.4h-1.9v-4.6h-1.4v4.6h-2.1v1.4h2.1v7.1
			C214.6,119.6,213.8,119.9,213.2,120.1z M229.9,122.6c-0.7,0-1.3-1.1-1.7-3c1.2-1.9,2.1-4.1,2.8-6.7l-1.4-0.2c-0.4,1.8-1,3.5-1.8,5
			c-0.3-2-0.5-4.4-0.6-7.2h4.2V109h-1.5l1-0.7c-0.5-0.7-1.5-1.6-2.4-2.2l-1,0.6c0.8,0.7,1.8,1.6,2.3,2.3H227c0-1,0-2,0-3.1h-1.4
			c0,1,0,2.1,0.1,3.1h-6v6.2c0,2.6-0.2,5.9-2.2,8.2c0.3,0.2,0.9,0.7,1.1,0.9c2.1-2.5,2.5-6.3,2.5-9.1v-0.9h2.5
			c-0.1,3.6-0.1,4.9-0.4,5.2c-0.1,0.2-0.2,0.2-0.5,0.2c-0.3,0-0.9,0-1.6-0.1c0.2,0.3,0.3,0.9,0.3,1.3c0.7,0,1.4,0,1.8,0
			c0.5-0.1,0.8-0.2,1-0.6c0.4-0.5,0.5-2.1,0.5-6.7c0-0.2,0-0.6,0-0.6H221v-2.7h4.7c0.1,3.5,0.4,6.6,1,9c-1.1,1.5-2.4,2.8-3.9,3.8
			c0.3,0.2,0.8,0.7,1,1c1.3-0.9,2.4-1.9,3.3-3.1c0.6,1.9,1.5,3,2.6,3c1.3,0,1.7-0.9,1.9-3.9c-0.4-0.1-0.8-0.4-1.1-0.8
			C230.4,121.6,230.2,122.6,229.9,122.6z M234.3,108.9v1.5h8.1v2.7h-6.2v8.9h1.5v-7.4h4.7v9.7h1.5v-9.7h5v5.5c0,0.3-0.1,0.4-0.5,0.4
			c-0.3,0-1.5,0-2.9,0c0.2,0.4,0.5,1,0.5,1.5c1.7,0,2.8,0,3.5-0.3c0.6-0.3,0.8-0.7,0.8-1.6v-7H244v-2.7h8.3v-1.5h-7.9l0.3-0.1
			c-0.3-0.8-1-2-1.6-3l-1.4,0.4c0.5,0.8,1,1.8,1.3,2.6H234.3z M269.8,123.8c0.7-0.1,1.1-0.2,1.6-0.8c0.8-1,1.1-4.1,1.4-13.2v-0.8h-6
			c0.3-0.9,0.6-1.9,0.9-2.9l-1.4-0.3c-0.6,2.7-1.7,5.5-3.1,7.3c0.3,0.2,1,0.6,1.2,0.8c0.7-0.9,1.3-2.2,1.9-3.5h5.1
			c-0.3,8-0.6,11-1.2,11.7c-0.2,0.3-0.4,0.3-0.8,0.3c-0.5,0-1.7,0-3-0.1c0.3,0.4,0.5,1,0.5,1.5C268,123.9,269.1,123.9,269.8,123.8z
			 M259.1,105.9c-0.1,0.9-0.5,2.3-0.8,3.2h-2.2v14.6h1.4v-1.6h5.6v-13h-3.3c0.3-0.9,0.7-2,1-2.9L259.1,105.9z M261.6,120.8h-4.2V116
			h4.2V120.8z M261.6,110.5v4.2h-4.2v-4.2H261.6z M266.5,113.6l-1.2,0.7c1.1,1.4,2.4,3.4,3,4.6l1.3-0.8
			C269,116.9,267.6,115,266.5,113.6z M286.9,115.6h7.2v-1.5h-8v-3.4h6.7v-1.5H286V106h-1.5v3.3H278v1.5h6.5v3.4h-7.9v1.5h7.1
			c-1.8,2.6-4.8,5.1-7.6,6.3c0.3,0.3,0.8,0.9,1.1,1.2c2.6-1.3,5.4-3.7,7.4-6.4v7.5h1.5v-7.6c1.9,2.7,4.8,5.1,7.4,6.5
			c0.3-0.4,0.7-1,1.1-1.3C291.7,120.7,288.7,118.2,286.9,115.6z M310.7,110.7c-0.4,2.2-1.4,4.2-2.8,5.4c0.4,0.2,1,0.6,1.2,0.8
			c0.7-0.6,1.3-1.4,1.8-2.4c1.2,1,2.4,2.1,3.1,2.9l1.1-1c-0.8-0.8-2.3-2.1-3.6-3.1c0.3-0.7,0.5-1.5,0.7-2.4L310.7,110.7z
			 M301.3,110.7c-0.6,2.6-1.8,4.7-3.6,6.1c0.3,0.2,0.9,0.7,1.2,1c1-0.8,1.8-1.9,2.5-3.1c0.7,0.7,1.5,1.4,1.9,1.9l1-1
			c-0.5-0.6-1.4-1.5-2.3-2.2c0.3-0.7,0.6-1.5,0.8-2.4L301.3,110.7z M298.1,123.3c2.7-1.2,5.3-3.4,7.3-5.9v6.9h1.5v-6.9
			c1.9,2.6,4.7,4.8,7.4,6.1c0.2-0.4,0.7-1,1.1-1.3c-3.4-1.3-6.7-4.1-8.5-7.1v-4.7h7.9v-1.5H307V106h-1.5v2.8h-7.7v1.5h7.7v4.9
			c-1.8,2.9-5.1,5.7-8.4,7C297.4,122.4,297.9,122.9,298.1,123.3z M323.4,109.2l-1,0.5c0.6,1.1,1.2,2.5,1.4,3.4l1.1-0.5
			c-0.3,0.6-0.5,1.1-0.8,1.5c0.4,0.2,1,0.5,1.3,0.7c0.5-0.9,1-1.9,1.4-3.1h2.9v4.1h-4.2v1.4h4.2v5H324v1.4h12.2v-1.4h-5v-5h4.1v-1.4
			h-4.1v-4.1h4.5v-1.4h-4.5V106h-1.5v4.1h-2.5c0.3-1,0.5-2,0.7-3.1l-1.4-0.2c-0.3,2-0.9,4-1.6,5.6
			C324.6,111.6,324,110.2,323.4,109.2z M320.1,109.9l-1.1-0.2c-0.1,1.6-0.5,3.8-1,5.1l1.2,0.4C319.6,113.8,320,111.5,320.1,109.9z
			 M322.3,124.2V106h-1.5v18.3H322.3z M346.2,117.9l0.4,1.1c2.1-0.7,3.5-2.4,3.5-4.5c0-1.4-0.6-2.3-1.7-2.3c-0.8,0-1.5,0.5-1.5,1.4
			c0,0.9,0.7,1.4,1.5,1.4c0.1,0,0.2,0,0.3,0C348.6,116.3,347.7,117.2,346.2,117.9z M378,110.1h-5.8v-1.4h4.6v-1.1h-4.6V106h-1.4v1.5
			h-4.5v1.1h4.5v1.4h-5.6v1.1H378V110.1z M365,121.7c-0.7-0.4-1.2-0.8-1.6-1c0.7-1.5,1.3-3.4,1.6-5.2l-0.7-0.3l-0.3,0.1h-1.4
			c0.5-1.4,1.2-3.1,1.7-4.5h-4.1v1.3h2.2c-0.5,1.6-1.1,3.3-1.7,4.5h2.6c-0.3,1.4-0.8,3-1.4,4.2c-0.6,0.4-1.3,1.2-2,2.2l1,1.3
			c0.6-1.3,1.3-2.5,1.7-2.5c0.5,0,1.2,0.7,2,1.2c1.5,0.9,3.2,1.1,5.8,1.1c2.4,0,6.2-0.1,7.7-0.2c0-0.4,0.3-1.1,0.5-1.5
			c-2.2,0.2-5.5,0.4-8.1,0.4C368.2,122.7,366.4,122.6,365,121.7z M361.3,106.5c0.3,1,0.8,2.4,1,3.3l1.3-0.4
			c-0.3-0.9-0.7-2.2-1.1-3.2L361.3,106.5z M372.2,116.9l-0.8,0.7c2,1.1,4.6,2.7,5.8,3.8l0.9-0.9c-0.7-0.6-1.8-1.3-3-2
			c0.8-0.5,1.8-1.1,2.6-1.7l-1.1-0.7l-0.3,0.2v-4h-9.5v4.2h3.1c-1.3,0.8-3.2,1.5-4.9,1.9c0.3,0.3,0.7,0.8,0.8,1.1
			c0.9-0.3,2-0.7,2.9-1.1v1.6c0,0.7-0.4,0.9-0.7,1c0.2,0.3,0.4,0.8,0.4,1.1c0.3-0.2,0.9-0.4,4.9-1.5c0-0.2-0.1-0.7-0.1-1l-3.3,0.8
			v-2.6c0.6-0.4,1.3-0.8,1.7-1.3h4.4c-0.6,0.5-1.3,1-2,1.5C373.5,117.5,372.8,117.2,372.2,116.9z M374.9,115.4h-6.7v-2h6.7V115.4z
			 M386.6,113.5h3.7v-3.5h-3.7V113.5z M387.5,110.8h1.8v1.7h-1.8V110.8z M381.9,113.5h3.6v-3.5h-3.6V113.5z M382.8,110.8h1.7v1.7
			h-1.7V110.8z M387,106v3.6h1.2v-1.2h2.6v-1.1h-2.6V106H387z M384,107.2h-2.9v1.1h2.9v1.2h1.2V106H384V107.2z M381.7,118.8
			c0.4-0.4,0.7-0.8,1.1-1.3v6.7h1.1v-1.1h6c0.3,0.2,0.7,0.7,0.9,1.1c2.5-1.3,3.3-3.6,3.6-6.5h1.2v4.5c0,1.3,0.3,1.7,1.4,1.7h1.1
			c1,0,1.3-0.6,1.4-3.4c-0.4-0.1-0.9-0.3-1.1-0.5c0,2.4-0.1,2.7-0.4,2.7h-0.8c-0.3,0-0.3-0.1-0.3-0.5v-4.5h1.9v-11.1h-7.4v11.1h1.8
			c-0.2,2.2-0.8,4-2.6,5.1v-0.8h-2.8v-1.4h2.5v-1h-2.5v-1.2h2.4v-1h-2.4v-1.2h2.8v-1.1h-2.6c-0.2-0.5-0.5-1-0.9-1.5l-1,0.4
			c0.2,0.3,0.4,0.7,0.6,1.1h-2.4c0.2-0.4,0.4-0.8,0.5-1.2l-1-0.3c-0.6,1.6-1.6,3.2-2.7,4.2C381.2,118.1,381.6,118.6,381.7,118.8z
			 M392.5,108.1h4.8v1.9h-4.8V108.1z M392.5,111.2h4.8v2h-4.8V111.2z M392.5,116.4v-2h4.8v2H392.5z M383.9,116.2h2.5v1.2h-2.5V116.2
			z M383.9,118.4h2.5v1.2h-2.5V118.4z M383.9,120.7h2.5v1.4h-2.5V120.7z M414.2,116.9c-1.2-1.5-3.1-3.3-4.5-4.4l-1.3,1.1
			c1.4,1.2,3.1,2.9,4.4,4.4L414.2,116.9z M425.6,109.9l1.4-0.4c-0.3-0.8-0.7-2.1-1.1-3.1l-1.3,0.4
			C424.9,107.7,425.3,109,425.6,109.9z M423,123l1,1.4c0.6-1.3,1.3-2.5,1.7-2.5c0.5,0,1.2,0.7,2,1.2c1.5,0.9,3.2,1.1,5.8,1.1
			c2.3,0,6.1-0.1,7.6-0.2c0-0.4,0.3-1.1,0.4-1.5c-2.2,0.2-5.4,0.4-8,0.4c-2.4,0-4.1-0.1-5.5-1c-0.6-0.4-1.1-0.7-1.4-0.9
			c0.8-1.5,1.5-3.5,2-5.3l-0.7-0.3l-0.2,0.1H426c0.6-1.4,1.2-3,1.7-4.4h-4.5v1.3h2.6c-0.6,1.5-1.2,3.2-1.8,4.4h2.8
			c-0.4,1.4-0.9,2.9-1.6,4C424.6,120.9,423.8,121.8,423,123z M432.2,108.3c3-0.2,6.2-0.6,8.4-1.3l-1.2-1.1c-2,0.6-5.6,1-8.7,1.2v4.3
			c0,2.5-0.2,6-2,8.4c0.4,0.2,1,0.6,1.2,0.9c1.5-2.1,2-5,2.2-7.5h4v8.3h1.5v-8.3h3.6v-1.4h-9v-0.4V108.3z M458.7,113.6v-3.3h-10.5
			v3.3H458.7z M449.5,111.3h7.7v1.4h-7.7V111.3z M462,123.4c-1.4-0.5-3.9-1.3-6-1.8l-1.1,0.8c2.2,0.5,4.4,1.3,5.7,1.8L462,123.4z
			 M445.7,124.3c2-0.4,4.5-1.2,6-2.1l-1.4-0.5c-1.3,0.7-3.7,1.2-5.7,1.5C444.9,123.4,445.4,124,445.7,124.3z M459.9,114.6h-12.8v6.9
			h12.8V114.6z M458.4,120.6h-10v-1.1h10V120.6z M458.4,118.6h-10v-1.1h10V118.6z M458.4,116.6h-10v-1.1h10V116.6z M445.1,111.7h1.4
			v-2.4h13.7v2.4h1.4v-3.5h-3.4c0.5-0.5,1.1-1.1,1.6-1.8l-1.5-0.4c-0.4,0.6-1.1,1.5-1.6,2.1l0.3,0.1H454V106h-1.5v2.3h-3.1l0.5-0.2
			c-0.3-0.6-1-1.4-1.6-1.9l-1.3,0.4c0.5,0.5,1,1.2,1.4,1.7h-3.3V111.7z M472.7,112.4l-1.3,1.1c1.4,1.2,3.1,2.9,4.4,4.4l1.4-1.1
			C475.9,115.4,474.1,113.6,472.7,112.4z M486.1,113.5c0.3,0.2,0.7,0.7,0.9,1c1.2-0.6,2.6-1.8,3.3-2.9l-1-0.4
			C488.6,112,487.3,113,486.1,113.5z M492.5,114.9v-4.2h4.5v-1.2h-4.5V106h-1.3v3.5h-4.7v1.2h4.7v4.2H492.5z M495.2,106.3
			c-0.4,0.8-1.2,1.9-1.8,2.6l0.9,0.4c0.6-0.6,1.4-1.6,2.1-2.5L495.2,106.3z M488.4,106.4l-1,0.5c0.6,0.8,1.3,1.9,1.6,2.5l1.1-0.7
			C489.7,108.1,489,107.1,488.4,106.4z M495.2,124.3v-3h2.1v-1.2h-2.1v-2.9h1.7V116h-1.7v-1.5H494v1.5h-2.3v1.1h0.5
			c-0.2,1.4-0.5,3-0.8,4.1h2.6v3H495.2z M492.8,120.1c0.2-0.9,0.4-2,0.6-2.9h0.7v2.9H492.8z M486,123.3c0.3,0.2,0.6,0.6,0.7,0.9
			c2.2-1.4,4-4.1,4.8-8l-0.7-0.3l-0.2,0.1h-1.8c0.1-0.4,0.2-0.9,0.3-1.4l-1.1-0.2c-0.3,1.8-1,3.6-1.9,4.8c0.3,0.2,0.7,0.6,0.8,0.8
			c0.2-0.2,0.4-0.5,0.6-0.8c0.4,0.5,0.8,1.1,1.1,1.6C487.8,121.9,486.9,122.7,486,123.3z M488,118.2c0.2-0.3,0.3-0.6,0.4-1h1.8
			c-0.2,0.9-0.6,1.8-1,2.6C488.8,119.2,488.4,118.7,488,118.2z M494.1,111.1l-0.8,0.7c1.1,0.8,2.5,1.9,3.1,2.6l0.9-0.8
			C496.5,112.9,495.1,111.9,494.1,111.1z M503.2,107L503,107h-4.7v17.2h1.4v-15.8h2.7c-0.5,1.6-1.2,3.7-1.9,5.4
			c1.7,1.7,2.1,3.2,2.1,4.5c0,0.7-0.1,1.3-0.5,1.6c-0.2,0.1-0.4,0.2-0.7,0.2c-0.3,0-0.7,0-1.2,0c0.3,0.4,0.4,1,0.4,1.4
			c0.5,0,1,0,1.4,0c0.4,0,0.8-0.2,1.1-0.4c0.6-0.4,0.9-1.4,0.9-2.6c0-1.4-0.4-3-2.1-4.8c0.8-1.8,1.6-4.1,2.3-6L503.2,107z
			 M520,109.5h3.3v9.6c0,0.3-0.1,0.4-0.3,0.4c-0.3,0-1.1,0-2.1,0c0.2,0.4,0.4,1,0.5,1.4c1.4,0,2.2,0,2.7-0.3
			c0.5-0.3,0.7-0.7,0.7-1.5v-11h-6.1v16.1h1.4V109.5z M513.1,118.5c0,0.9-0.5,1.4-0.8,1.6c0.2,0.2,0.6,0.8,0.7,1.1
			c0.4-0.3,0.9-0.6,4.7-2.1c-0.1-0.3-0.1-0.8-0.2-1.2l-3.2,1.1v-10.1c1.4-0.4,2.9-0.9,4-1.4l-1-1.1c-1,0.6-2.8,1.3-4.4,1.7V118.5z
			 M509.5,113.1v11.2h1.4v-13.9c0.6-1.3,1.1-2.7,1.6-4l-1.4-0.4c-0.9,3.1-2.5,6.1-4.2,8.1c0.2,0.4,0.6,1.2,0.8,1.5
			C508.3,114.8,508.9,114,509.5,113.1z M535.2,117.9l0.4,1.1c2.1-0.7,3.5-2.4,3.5-4.5c0-1.4-0.6-2.3-1.7-2.3c-0.8,0-1.5,0.5-1.5,1.4
			c0,0.9,0.7,1.4,1.5,1.4c0.1,0,0.2,0,0.3,0C537.6,116.3,536.7,117.2,535.2,117.9z M567.4,114.1h-18.2v1.6h18.2V114.1z M575.5,123
			c0.4,0.2,0.9,0.8,1.1,1.2c5.2-3.1,5.6-8.9,5.8-15.1h4.1c-0.3,9-0.5,12.3-1.2,13c-0.2,0.3-0.4,0.4-0.8,0.4c-0.4,0-1.5,0-2.7-0.1
			c0.3,0.4,0.4,1.1,0.5,1.5c1.1,0,2.2,0.1,2.8,0c0.7-0.1,1.1-0.3,1.5-0.9c0.8-1,1-4.4,1.3-14.6c0-0.2,0-0.8,0-0.8h-10.3v1.4h3.2
			C580.8,114.9,580.5,120.3,575.5,123z M572.5,113.1v5.4c0,0.8-0.5,1.3-0.9,1.5c0.3,0.3,0.6,1,0.7,1.3c0.4-0.3,1-0.7,5.8-2.8
			c-0.1-0.3-0.2-0.9-0.3-1.3l-3.9,1.6v-6l4-0.9l-0.3-1.3l-3.8,0.8v-4.6h-1.4v4.9l-2.6,0.6l0.3,1.3L572.5,113.1z M604.6,111.5h3.9
			v-1.5h-3.9v-4h-1.5v4h-5.5v-4H596v4h-3.8v1.5h3.8v2.2c0,0.9,0,1.7-0.1,2.5h-4.4v1.5h4.1c-0.4,2.1-1.5,4-3.9,5.6
			c0.4,0.2,1,0.8,1.3,1.1c2.7-1.8,3.8-4.1,4.3-6.7h5.8v6.5h1.5v-6.5h4.4v-1.5h-4.4V111.5z M603.1,116.3h-5.6
			c0.1-0.8,0.1-1.7,0.1-2.5v-2.2h5.5V116.3z M626.4,120.3c1,1.2,2.1,2.9,2.6,4l1.4-0.6c-0.5-1.1-1.7-2.7-2.7-3.9L626.4,120.3z
			 M621.3,111.6h3c-0.5,2.3-1.8,4.8-4.9,6.8c0.4,0.3,0.9,0.7,1.1,1c3-2,4.3-4.4,5-6.7c1.5,2.2,2.9,4.8,3.6,6.5l1.3-0.7
			c-0.7-1.8-2.4-4.6-4-6.9h3.8v-1.4h-4.3c0.1-0.6,0.1-1.2,0.1-1.8v-2.2h-1.4v2.2c0,0.6,0,1.2-0.1,1.8h-3.2V111.6z M624.9,123.7
			c-0.2-0.9-0.7-2.5-1.3-3.6l-1.3,0.3c0.5,1.2,1,2.7,1.2,3.7L624.9,123.7z M615.5,110.5c1,0.7,2.1,1.7,2.8,2.5c-1.4,2.4-3.5,4-5.8,5
			c0.3,0.2,0.8,0.8,1,1.1c3.8-1.8,6.9-5.2,8.1-11.1l-0.9-0.4l-0.3,0.1h-3.4c0.2-0.5,0.5-1,0.7-1.5l-1.4-0.4
			c-0.7,2.2-2.2,4.9-4.1,6.5c0.2,0.3,0.5,0.9,0.6,1.2C613.8,112.7,614.7,111.6,615.5,110.5z M616.4,109h3.5c-0.3,1.1-0.6,2-1,2.9
			c-0.8-0.7-1.8-1.6-2.8-2.3C616.2,109.4,616.3,109.2,616.4,109z M619.6,120.3l-1.4,0.1c0.2,1.2,0.4,2.7,0.4,3.6l1.4-0.2
			C620,123,619.8,121.4,619.6,120.3z M629.8,109.1c-0.4-0.8-1.4-1.9-2.2-2.7l-1.1,0.6c0.8,0.8,1.7,2,2.1,2.7L629.8,109.1z
			 M616.7,113.2c-1.5,0.4-3,0.8-4.1,1l0.4,1.2c1.2-0.4,2.5-0.8,3.9-1.2L616.7,113.2z M616.1,120.2l-1.4-0.4
			c-0.7,1.3-1.7,2.9-2.6,3.8l1.4,0.6C614.4,123.2,615.4,121.6,616.1,120.2z M633.2,116.5c0.3,0.3,0.7,0.8,0.9,1.2
			c1.2-0.9,2.3-1.9,3.2-3.1v2.9c0,1.9-0.2,4.1-1.8,5.7c0.3,0.2,0.9,0.8,1,1.2c1.2-1.1,1.8-2.6,2-4.1h8.6v2.1c0,0.3-0.1,0.4-0.5,0.4
			c-0.4,0-1.6,0-2.9,0c0.2,0.4,0.4,1,0.5,1.5c1.7,0,2.8,0,3.5-0.3c0.6-0.2,0.8-0.7,0.8-1.6v-10.1H639c0.4-0.7,0.8-1.5,1.2-2.3H651
			v-1.4h-10.2c0.3-0.7,0.6-1.5,0.8-2.2l-1.5-0.4c-0.2,0.9-0.5,1.7-0.9,2.6h-5.6v1.4h5C637.4,112.5,635.6,114.9,633.2,116.5z
			 M638.9,113.6h8.3v2h-8.3V113.6z M638.9,117.5v-0.6h8.3v2.1h-8.4C638.9,118.5,638.9,118,638.9,117.5z M657.2,113.7v-4.1h15v-1.4
			h-6.9c-0.3-0.7-0.8-1.6-1.2-2.3l-1.4,0.4c0.3,0.6,0.7,1.3,0.9,1.9h-7.9v5.5c0,2.9-0.1,6.9-1.8,9.8c0.3,0.2,1,0.6,1.2,0.8
			C656.9,121.3,657.2,116.8,657.2,113.7z M669,120.3c1-1,2.1-2.6,3.2-4l-1.1-0.5l-0.2,0.1h-3.7l0.2-0.2c-0.4-0.2-0.9-0.5-1.5-0.8
			c1.6-0.9,3.3-2.2,4.5-3.4l-1-0.7L669,111h-10v1.2h8.7c-0.9,0.8-2.1,1.6-3.2,2.2c-1-0.5-2-0.9-2.9-1.3l-0.9,0.9
			c1.3,0.6,2.9,1.3,4.2,2h-7v1.3h6.2v5.2c0,0.3-0.1,0.4-0.5,0.4c-0.4,0-1.7,0-3.2,0c0.2,0.4,0.4,1,0.5,1.4c1.8,0,3,0,3.7-0.2
			c0.7-0.2,0.9-0.6,0.9-1.5v-5.3h4.3c-0.7,0.9-1.4,1.8-2.1,2.5L669,120.3z M685.8,118l1.4-1.1c-1.2-1.5-3.1-3.3-4.5-4.4l-1.3,1.1
			C682.8,114.7,684.5,116.4,685.8,118z M84.4,144.1H66.2v1.6h18.2V144.1z M89.5,143.1v5.4c0,0.8-0.5,1.3-0.9,1.5
			c0.3,0.3,0.6,1,0.7,1.3c0.4-0.3,1-0.7,5.8-2.8c-0.1-0.3-0.2-0.9-0.3-1.3l-3.9,1.6v-6l4-0.9l-0.3-1.3l-3.8,0.8v-4.6h-1.4v4.9
			l-2.6,0.6l0.3,1.3L89.5,143.1z M102.1,154c0.7-0.1,1.1-0.3,1.5-0.9c0.8-1,1-4.4,1.3-14.6c0-0.2,0-0.8,0-0.8H94.7v1.4h3.2
			c-0.1,5.7-0.4,11.2-5.4,13.9c0.4,0.2,0.9,0.8,1.1,1.2c5.2-3.1,5.6-8.9,5.8-15.1h4.1c-0.3,9-0.5,12.3-1.2,13
			c-0.2,0.3-0.4,0.4-0.8,0.4c-0.4,0-1.5,0-2.7-0.1c0.3,0.4,0.4,1.1,0.5,1.5C100.4,154,101.5,154,102.1,154z M124.2,154.2v-5.8h-10.7
			v5.9h1.4v-0.6h7.8v0.6H124.2z M114.9,149.4h7.8v1.1h-7.8V149.4z M114.9,152.6v-1.2h7.8v1.2H114.9z M122.5,144l-1-0.5
			c-0.3,0.6-0.9,1.6-1.4,2.2l0.8,0.5C121.5,145.6,122.1,144.8,122.5,144z M112.5,147.5h12.4v-5.2h-2.8c0.2-0.3,0.5-0.7,0.8-1
			l-1.1-0.3h3.2v-4h-14.9v5.8c0,3.2-0.2,7.6-2.1,10.7c0.4,0.1,1,0.5,1.3,0.8c2-3.2,2.2-8.1,2.2-11.4v-1.8h4.1l-0.9,0.3
			c0.3,0.3,0.5,0.6,0.7,1h-2.9V147.5z M123.5,143.2v3.3h-4.1v-3.3H123.5z M116.9,142.3c-0.2-0.4-0.6-0.9-0.9-1.3h5.6
			c-0.2,0.4-0.6,0.9-0.9,1.3H116.9z M111.5,139.7v-1.6h11.9v1.6H111.5z M113.9,143.2h4v3.3h-4V143.2z M114.8,144
			c0.6,0.7,1.1,1.6,1.4,2.2l0.9-0.5c-0.3-0.6-0.9-1.5-1.4-2.1L114.8,144z M144.7,145.3c0.7-1.4,1.6-3.5,2.1-5.4l-1.1-0.6l-0.3,0.1
			h-7.2c0.3-1,0.6-2,0.8-3.1l-1.6-0.3c-0.6,3.2-1.7,6.3-3.2,8.2c0.4,0.2,1.1,0.6,1.5,0.8c0.8-1.1,1.5-2.6,2.1-4.2h7.2
			c-0.4,1.4-1,2.9-1.5,3.8C143.9,144.8,144.4,145.1,144.7,145.3z M140.9,144.1c0-0.3,0-0.6,0-0.9v-1.6h-1.6v1.5c0,2.9-0.4,7-6.2,9.9
			c0.3,0.3,0.9,0.8,1.1,1.2c3.8-2,5.5-4.6,6.2-7c1.1,3.2,3,5.6,6,6.8c0.2-0.4,0.7-1,1-1.3C143.8,151.5,141.8,148.3,140.9,144.1z
			 M135.6,147.3h-6.3v1.5h6.3V147.3z M129.8,139.1v1.4h5.2v-1.4H129.8z M162,152.7c-0.5,0-1.7,0-3-0.1c0.3,0.4,0.5,1,0.5,1.5
			c1.2,0.1,2.5,0.1,3.1,0c0.7-0.1,1.1-0.2,1.6-0.7c0.7-0.8,1-3.1,1.2-9.2c0-0.2,0-0.7,0-0.7h-12.4v1.4h4.1c-0.5,3.4-1.6,6.5-6.3,8.1
			c0.4,0.3,0.8,0.9,1,1.3c5.1-1.9,6.4-5.5,6.9-9.4h5.2c-0.2,5-0.5,7-1,7.5C162.6,152.7,162.4,152.7,162,152.7z M162.9,136.3h-4.6
			v1.4h3.5c1.1,3,3.2,5.8,5.7,7.4c0.3-0.4,0.7-1,1.1-1.3C166.1,142.3,163.9,139.5,162.9,136.3z M156.7,137l-1.5-0.4
			c-1,3.1-2.8,5.8-5.1,7.4c0.4,0.2,1,0.8,1.2,1.1C153.6,143.3,155.6,140.4,156.7,137z M178,137.2h-6.1v13.7h1.4V149h4.7V137.2z
			 M176.6,147.7h-3.3v-4h3.3V147.7z M176.6,142.3h-3.3v-3.8h3.3V142.3z M186.7,152.8c-0.4,0-1.6,0-2.9,0c0.2,0.4,0.5,1,0.5,1.5
			c1.7,0,2.8,0,3.5-0.3c0.6-0.3,0.8-0.7,0.8-1.6v-15.5h-8.2v7.1c0,3.1-0.3,6.9-3.5,9.5c0.3,0.2,0.9,0.7,1.1,1
			c2.1-1.7,3.1-4.1,3.6-6.5h5.6v4.4C187.1,152.6,187,152.7,186.7,152.8z M181.9,138.2h5.3v3.4h-5.3V138.2z M181.7,146.5
			c0.1-0.9,0.1-1.8,0.1-2.6V143h5.3v3.5H181.7z M199.2,147.9l0.4,1.1c2.1-0.7,3.5-2.4,3.5-4.5c0-1.4-0.6-2.3-1.7-2.3
			c-0.8,0-1.5,0.5-1.5,1.4c0,0.9,0.7,1.4,1.5,1.4c0.1,0,0.2,0,0.3,0C201.6,146.3,200.7,147.2,199.2,147.9z M213.2,152l0.2,1.4
			c2.6-0.4,6.3-0.9,9.8-1.4l0-1.3c-1.4,0.2-2.8,0.4-4.2,0.6v-2.2h3.3v-1.2H219v-2h3.7v-1.3h-2.2c0.4-0.7,0.9-1.6,1.3-2.4l-1.3-0.5
			c-0.3,0.8-0.9,2-1.3,2.9h-5.2v1.3h3.7v2h-3.2v1.2h3.2v2.4C216,151.6,214.4,151.8,213.2,152z M216.3,136v3.1
			c-0.3-0.7-1.1-1.8-1.8-2.5l-0.9,0.6c0.7,0.8,1.5,1.9,1.8,2.7l0.9-0.6v1h-3.1v1.3h9.9v1.2h4.7v9.7c0,0.3-0.1,0.4-0.5,0.5
			c-0.3,0-1.4,0-2.6,0c0.2,0.4,0.5,1,0.5,1.4c1.6,0,2.6,0,3.1-0.3c0.6-0.3,0.8-0.7,0.8-1.6v-9.7h1.9v-1.4h-1.9V136h-1.4v5.3h-4.6
			v-1.1h-3v-0.8l0.8,0.5c0.7-0.7,1.5-1.7,2.2-2.6l-1.2-0.7c-0.4,0.7-1.2,1.9-1.8,2.6V136h-1.2v4.3h-1.5V136H216.3z M216.1,141.6
			l-1.1,0.5c0.6,0.7,1.3,1.7,1.5,2.3l1.1-0.6C217.4,143.2,216.7,142.3,216.1,141.6z M225,144.3l-1.2,0.4c0.8,1.5,1.6,3.4,1.8,4.6
			l1.3-0.5C226.6,147.6,225.8,145.7,225,144.3z M247.8,137.4c0.1-0.4,0.3-0.7,0.4-1.1l-1.4-0.4c-0.9,3.1-2.7,5.7-5,7.1
			c0.4,0.3,0.8,0.8,1,1.2c1.8-1.3,3.3-3.1,4.3-5.3c1.1,2.1,2.8,4.1,4.4,5.2c0.3-0.4,0.7-0.9,1.1-1.2
			C250.8,141.8,248.8,139.5,247.8,137.4z M243.8,150.3c1.9,1,4.3,2.5,5.4,3.5l1-1.3c-1.2-1-3.6-2.4-5.5-3.3L243.8,150.3z M246,143.7
			l-1,1c1.2,0.8,2.7,2,3.4,2.8l1-1.1C248.7,145.5,247.2,144.4,246,143.7z M238.4,139.2l1.4-0.6c-0.3-0.8-1-1.9-1.7-2.8l-1.3,0.5
			C237.4,137.3,238.1,138.5,238.4,139.2z M240.2,144.8c-0.2,5.2-0.4,7.1-0.8,7.5c-0.2,0.2-0.3,0.3-0.6,0.3c-0.3,0-0.8,0-1.5-0.1
			c0.2,0.4,0.3,1,0.4,1.4c0.7,0,1.4,0,1.8,0c0.5,0,0.8-0.2,1.1-0.6c0.6-0.7,0.8-2.9,1-9.1c0-0.2,0-0.7,0-0.7h-4
			c0-0.9,0.1-1.8,0.1-2.8h4.6v-1.4h-8.1v1.4h2c-0.1,5.4-0.2,9.9-2.4,12.4c0.4,0.2,0.9,0.7,1.1,1.1c1.8-2.2,2.4-5.4,2.6-9.4H240.2z
			 M265,143.8h6.9v-1.5H265V136h-1.6v6.3h-6.8v1.5h6.8v8.1h-8.1v1.5h17.8v-1.5H265V143.8z M293.2,149.6c-0.1,2.3-0.3,2.8-1.5,2.8
			h-4.8c-1.3,0-1.6-0.3-1.6-1.3v-6.9l2.7-1.1v6.7h1.4v-7.3l2.6-1.1c-0.2,2.5-0.4,5.5-0.8,7.3l1.2,0.4c0.5-2.3,0.8-5.9,1-8.8l0.1-0.2
			l-1.1-0.4l-3,1.3v-5H288v5.6l-2.7,1.1v-4.8h-1.4v5.4l-2.2,0.9l0.6,1.3l1.6-0.7v6.3c0,2.2,0.7,2.7,2.9,2.7h4.9
			c2.1,0,2.5-0.9,2.8-3.6C294.1,150.1,293.5,149.9,293.2,149.6z M282.7,148.1l-0.3-1.3c-0.7,0.3-1.5,0.6-2.2,0.9v-5.6h2.2v-1.4h-2.2
			v-4.5h-1.4v4.5h-2.4v1.4h2.4v6.2c-1,0.4-2,0.8-2.8,1.1l0.6,1.5C278.3,150.1,280.6,149.1,282.7,148.1z M304.2,147.9l0.4,1.1
			c2.1-0.7,3.5-2.4,3.5-4.5c0-1.4-0.6-2.3-1.7-2.3c-0.8,0-1.5,0.5-1.5,1.4c0,0.9,0.7,1.4,1.5,1.4c0.1,0,0.2,0,0.3,0
			C306.6,146.3,305.7,147.2,304.2,147.9z M332.1,139.4c0.7,0.9,1.4,2,1.9,3l-6.2,0.4c1.3-1.8,2.6-4.1,3.7-6.4l-1.5-0.5
			c-1,2.5-2.7,5.2-3.2,5.9c-0.5,0.7-0.9,1.2-1.3,1.3c0.2,0.4,0.4,1.1,0.5,1.4c0.6-0.2,1.4-0.3,8.7-0.9c0.3,0.5,0.5,1,0.6,1.4
			l1.3-0.6c-0.6-1.5-2-3.8-3.4-5.6L332.1,139.4z M317.9,153.2c0.3,0.2,0.8,0.7,1,1c1.7-1.2,2.9-2.6,3.8-4c0.8,0.8,1.6,1.5,2.1,2.1
			l0.9-1.2c-0.5-0.6-1.4-1.4-2.3-2.2c1.2-2.6,1.4-5.2,1.4-7.4l0.9-0.1l0-1.3l-0.9,0.1v-1.4h-1.4v1.5l-1.8,0.1
			c0.3-1.5,0.5-2.9,0.7-4.3L321,136c-0.2,1.4-0.4,2.9-0.7,4.4c-0.8,0-1.6,0.1-2.2,0.1l0.2,1.4l1.8-0.1c-0.4,1.9-0.9,3.7-1.4,5
			c1,0.7,2,1.6,3,2.5C320.8,150.7,319.6,152,317.9,153.2z M320.2,146.4c0.4-1.3,0.8-3,1.2-4.6l2.1-0.1c0,1.9-0.2,4.2-1.2,6.4
			C321.6,147.5,320.9,146.9,320.2,146.4z M335.3,154.2v-8h-8.8v8.1h1.4v-0.9h6v0.8H335.3z M327.9,152v-4.5h6v4.5H327.9z
			 M347.5,151.2c2.7,0.7,5.9,2.1,7.7,3.1l0.9-1.2c-1.8-1-5.1-2.3-7.7-3L347.5,151.2z M346,139.7l-1.3-0.8c-0.4,0.9-1,1.8-1.5,2.7
			l-2.1,0.2c1.1-1.5,2.2-3.5,3.1-5.4l-1.4-0.6c-0.8,2.2-2.2,4.5-2.6,5.1c-0.4,0.6-0.8,1-1.1,1.1c0.1,0.4,0.4,1,0.5,1.3
			c0.3-0.1,0.7-0.2,2.8-0.5c-0.7,1.1-1.4,1.9-1.7,2.3c-0.6,0.7-1,1.2-1.5,1.3c0.2,0.4,0.4,1.1,0.5,1.4c0.4-0.2,1-0.3,5.1-1
			c0.1,0.4,0.2,0.8,0.3,1.2l1.2-0.4c-0.2-1.1-0.8-2.8-1.3-4.2l-1.1,0.3c0.2,0.6,0.5,1.3,0.6,2l-3,0.4
			C343.1,144.4,344.6,142,346,139.7z M350.5,146.5l-0.9,0.9c1.4,0.6,3.1,1.6,4,2.3l0.9-1C353.6,148,351.9,147,350.5,146.5z
			 M343.2,148.7l-1.1,0.2c0.2,1.4,0.5,3.2,0.5,4.3l1.2-0.2C343.7,151.8,343.5,150.1,343.2,148.7z M341.3,149l-1.2-0.2
			c-0.2,1.6-0.5,3.4-1,4.6c0.3,0.1,0.9,0.3,1.2,0.4C340.7,152.5,341,150.7,341.3,149z M344.2,148.5c0.4,1.2,0.9,2.7,1.1,3.7l1.1-0.4
			c-0.2-1-0.7-2.5-1.2-3.6L344.2,148.5z M356.2,138.5l-0.9-0.5l-0.3,0.1h-4.4c0.3-0.6,0.6-1.3,0.9-1.9L350,136
			c-0.7,1.8-2.1,4.1-4.1,5.8c0.3,0.2,0.8,0.6,1,0.9c0.7-0.6,1.3-1.3,1.9-2c0.6,1,1.3,1.9,2,2.7c-1.4,1.2-3,2.2-4.7,2.8
			c0.3,0.2,0.8,0.8,0.9,1.1c1.6-0.7,3.3-1.7,4.7-3c1.4,1.3,3,2.4,4.7,3.1c0.2-0.4,0.6-0.9,1-1.2c-1.6-0.6-3.3-1.6-4.6-2.9
			C354.3,142.1,355.4,140.4,356.2,138.5z M349.7,139.6l0.1-0.2h4.4c-0.6,1.2-1.4,2.2-2.3,3.2C351,141.6,350.3,140.6,349.7,139.6z
			 M366.4,153.3c1.1-1.3,2.4-3.2,3.4-4.9l-1.3-0.4c-0.8,1.5-2.1,3.3-3.2,4.5C365.6,152.6,366.2,153,366.4,153.3z M373.8,148.5
			c1.3,1.4,2.7,3.4,3.4,4.6l1.2-0.7c-0.7-1.2-2.2-3.1-3.5-4.5L373.8,148.5z M365.4,145.6v1.4h5.8v7.3h1.5V147h5.7v-1.4h-5.7v-2.4
			h4.5v-6.3h-10.3v6.3h4.3v2.4H365.4z M368.3,141.9v-3.7h7.4v3.7H368.3z M362.7,142.9v11.3h1.4v-13.5c0.8-1.3,1.5-2.8,2.1-4.3
			l-1.4-0.4c-1.1,3-3.1,6-5,7.9c0.3,0.3,0.7,1.1,0.8,1.4C361.3,144.6,362.1,143.8,362.7,142.9z M380.9,146.5l0.4,1.4
			c0.7-0.2,1.6-0.5,2.5-0.8v5.2c0,0.3-0.1,0.4-0.4,0.4c-0.2,0-1,0-1.9,0c0.2,0.4,0.4,1,0.4,1.4c1.3,0,2,0,2.5-0.3
			c0.5-0.2,0.7-0.6,0.7-1.4v-5.7l2.1-0.7l-0.2-1.4l-1.9,0.6v-3.9h2.1V140h-2.1v-4h-1.4v4h-2.6v1.4h2.6v4.3
			C382.7,146,381.7,146.3,380.9,146.5z M389.2,148.6c0.8,1.1,1.7,2.6,2.2,3.5l1.2-0.7c-0.5-0.9-1.5-2.3-2.3-3.4L389.2,148.6z
			 M399.4,139.9v-1.4h-5.2v-2.5h-1.4v2.5h-5.2v1.4h5.2v2.4h-4.3v1.4h10v-1.4h-4.3v-2.4H399.4z M396.1,154c0.6-0.2,0.8-0.6,0.8-1.5
			v-5.1h2.5V146h-2.5v-1.8h-1.4v1.8h-7.7v1.4h7.7v5.1c0,0.3-0.1,0.4-0.4,0.4c-0.3,0-1.4,0-2.5,0c0.2,0.4,0.4,1,0.5,1.4
			C394.5,154.3,395.5,154.3,396.1,154z M402.9,149c1.2-0.3,2.4-0.6,3.5-1v6.2h1.5v-0.6h8.9v0.6h1.5v-7.3h-8.7c1.2-0.5,2.4-1,3.6-1.5
			h7v-1.3h-4.6c1.5-0.9,2.9-1.9,4-3l-1.1-0.7c-1.4,1.4-3.3,2.6-5.4,3.7h-2.3v-1.8h4.8V141h-4.8v-1.5h-1.5v1.5h-5.1v1.3h5.1v1.8h-6.7
			v1.3h7.6c-2.5,1-5.3,1.8-8,2.4C402.3,148.1,402.7,148.7,402.9,149z M407.9,148.1h8.9v1.6h-8.9V148.1z M407.9,150.8h8.9v1.6h-8.9
			V150.8z M416.1,140.2v-1.5h4v-1.3h-4V136h-1.5v1.4h-2.9v1.3h2.9v1.5H416.1z M406.6,140.2h1.5v-1.5h2.8v-1.3H408V136h-1.5v1.4h-4
			v1.3h4V140.2z M430.2,153c0.3,0.4,0.7,0.9,0.9,1.3c4.4-1.2,7.9-3.3,9.7-6.5l-1.3-0.6C437.8,150.1,434.4,152,430.2,153z M436,137.1
			c0.1-0.2,0.3-0.5,0.4-0.7l-1.4-0.4c-1.1,2.5-3.4,4.9-6.1,6.4c0.3,0.2,0.8,0.8,1,1c2.2-1.3,4.1-3,5.4-5c1.5,2,3.6,3.8,5.4,4.9
			c0.2-0.4,0.7-0.9,1.1-1.2C439.8,141,437.4,139,436,137.1z M429.9,148.8c-0.9,0.3-1.8,0.5-2.7,0.8v-5.1h2.1v-1.4h-2.1v-4.3h2.5
			v-1.4h-6.5v1.4h2.5v4.3h-2.4v1.4h2.4v5.5c-1,0.3-1.9,0.5-2.6,0.7l0.3,1.4c1.8-0.5,4.3-1.3,6.6-2L429.9,148.8z M431.9,150.1
			c2.6-1.2,5.2-3.1,6.7-5.2l-1.2-0.6c-1.4,1.9-3.9,3.7-6.4,4.7C431.3,149.3,431.7,149.7,431.9,150.1z M430.6,145
			c0.4,0.3,0.7,0.7,1,1c1.8-0.9,3.8-2.4,5.1-4l-1.2-0.5C434.4,142.9,432.4,144.3,430.6,145z M452.2,154.2h1.5v-0.9h5.9v0.8h1.5v-8.7
			h-8.9V154.2z M453.6,146.7h5.9v2h-5.9V146.7z M453.6,150h5.9v2.1h-5.9V150z M448.2,139.6c0.5,1.2,1.1,2.7,1.3,3.6l1-0.5
			c-0.2-0.9-0.8-2.4-1.4-3.5L448.2,139.6z M459.5,139.9h2.4v-1.3h-2.4V136H458v2.6h-3.1V136h-1.4v2.6h-2.1v1.3h2.1v2.6h-2.7v1.4
			h11.6v-1.4h-2.9V139.9z M458,142.5h-3.1v-2.6h3.1V142.5z M446.7,154.2h1.4V136h-1.4V154.2z M443.9,144.9l1.1,0.4
			c0.5-1.4,0.9-3.7,1-5.3l-1-0.1C444.8,141.4,444.4,143.6,443.9,144.9z M476.2,150.8c2.1,1,4.3,2.3,5.7,3.3l1-1.1
			c-1.4-1-3.7-2.2-5.8-3.2L476.2,150.8z M481.7,137h-4.2v1.3h2.9c0,0.8,0,1.6,0,2.5h-2.7v1.3h2.6c0,0.8-0.1,1.7-0.1,2.5h-2.6v1.3
			h2.6c0,0.9-0.1,1.7-0.1,2.4h-11.3l-0.1-2.5h2.6v-1.3h-2.6l-0.1-2.4h2.6v-1.3h-2.7l-0.1-2.3c1-0.3,2.1-0.7,3-1.1l-0.7-1.2
			c-1,0.5-2.5,1.1-3.7,1.5l0.4,10.6h-2v1.4h18v-1.4h-1.9C481.6,145.2,481.7,140.5,481.7,137z M465.5,153.1c0.3,0.3,0.7,0.8,0.9,1.1
			c1.9-0.8,4.3-2.2,6-3.4l-1.3-0.9C469.8,151,467.4,152.3,465.5,153.1z M476.7,139.2V138h-3.3v-1.9h-1.3v6.5h3.2v4.1
			c0,0.2,0,0.3-0.3,0.3c-0.2,0-0.8,0-1.5,0c0.2,0.3,0.3,0.7,0.4,1c1,0,1.7,0,2.1-0.2c0.4-0.2,0.6-0.5,0.6-1.1v-5.3H476v0h-2.6v-2.1
			H476.7z M471.7,146.7c0.3,0.1,0.8,0.5,1,0.6c0.6-1,1-2.3,1.2-3.7l-1.2-0.2C472.6,144.6,472.3,145.8,471.7,146.7z M493.2,153
			c0.3,0.4,0.7,0.9,0.9,1.3c4.4-1.2,7.9-3.3,9.7-6.5l-1.3-0.6C500.8,150.1,497.4,152,493.2,153z M490.2,149.6v-5.1h2.1v-1.4h-2.1
			v-4.3h2.5v-1.4h-6.5v1.4h2.5v4.3h-2.4v1.4h2.4v5.5c-1,0.3-1.9,0.5-2.6,0.7l0.3,1.4c1.8-0.5,4.3-1.3,6.6-2l-0.2-1.3
			C492,149,491.1,149.3,490.2,149.6z M499,137.1c0.1-0.2,0.3-0.5,0.4-0.7l-1.4-0.4c-1.1,2.5-3.4,4.9-6.1,6.4c0.3,0.2,0.8,0.8,1,1
			c2.2-1.3,4.1-3,5.4-5c1.5,2,3.6,3.8,5.4,4.9c0.2-0.4,0.7-0.9,1.1-1.2C502.8,141,500.4,139,499,137.1z M494.9,150.1
			c2.6-1.2,5.2-3.1,6.7-5.2l-1.2-0.6c-1.4,1.9-3.9,3.7-6.4,4.7C494.3,149.3,494.7,149.7,494.9,150.1z M493.6,145
			c0.4,0.3,0.7,0.7,1,1c1.8-0.9,3.8-2.4,5.1-4l-1.2-0.5C497.4,142.9,495.4,144.3,493.6,145z M513.2,140.1v-1.4h2.4v-1.3h-2.4V136
			h-1.5v1.4h-4.2v1.3h4.2v1.4H513.2z M523.8,152.9c-0.6,0-1.2-1-1.8-3c1-1.8,1.7-4,2.2-6.4l-1.3-0.2c-0.3,1.6-0.7,3.1-1.3,4.5
			c-0.3-1.6-0.5-3.4-0.6-5.7h4.2v-1.3H524l0.5-0.4c-0.4-0.5-1.3-1.1-2-1.5l-0.9,0.7c0.6,0.3,1.2,0.8,1.7,1.3H521c0-0.4,0-0.8,0-1.3
			h-0.4v-0.8h4.5v-1.3h-4.5V136h-1.5v1.4h-2.5v1.3h2.5v1.3h0.5l0,0.8h-8.8v3.5h-1.6v-3.4H508v4.6h2.8v0.7c0,0.3,0,0.6,0,0.9h-3.7
			v1.3h1.1v0.9c0,1.2-0.2,3-1.2,4.3c0.3,0.1,0.7,0.4,0.9,0.6c1.2-1.4,1.5-3.5,1.5-4.9v-0.9h1.4c-0.1,1.8-0.4,3.7-1.2,5.2
			c0.3,0.1,0.9,0.5,1.1,0.7c1.2-2.2,1.4-5.6,1.4-8v-4.2h7.6c0.2,3.1,0.5,5.6,0.9,7.6c-0.4,0.7-0.9,1.4-1.4,2v-0.8H517v-1.4h2.1v-3.7
			H517v-1.4h2.1v-1h-5.9v8.6h5.8c-0.5,0.5-1,1-1.6,1.4c0.3,0.2,0.9,0.7,1.1,0.9c1-0.8,1.9-1.8,2.7-2.9c0.6,1.9,1.5,2.9,2.5,2.9
			c1.1,0,1.6-0.5,1.8-3.2c-0.3-0.1-0.8-0.4-1-0.6C524.4,152.4,524.2,152.9,523.8,152.9z M514.3,144.3h1.6v1.4h-1.6V144.3z
			 M514.3,146.7h3.7v1.8h-3.7V146.7z M515.9,150.9h-1.6v-1.4h1.6V150.9z M542.6,148.1c-0.6-1.2-2-3.1-3.1-4.5l-1.2,0.7
			c1.1,1.4,2.4,3.4,3,4.6L542.6,148.1z M533.7,136.2l-1.6-0.3c-0.1,0.9-0.5,2.3-0.8,3.2h-2.2v14.6h1.4v-1.6h5.6v-13h-3.3
			C533,138.3,533.4,137.2,533.7,136.2z M534.6,150.8h-4.2V146h4.2V150.8z M534.6,140.5v4.2h-4.2v-4.2H534.6z M540.7,136.2l-1.4-0.3
			c-0.6,2.7-1.7,5.5-3.1,7.3c0.3,0.2,1,0.6,1.2,0.8c0.7-0.9,1.3-2.2,1.9-3.5h5.1c-0.3,8-0.6,11-1.2,11.7c-0.2,0.3-0.4,0.3-0.8,0.3
			c-0.5,0-1.7,0-3-0.1c0.3,0.4,0.5,1,0.5,1.5c1.1,0.1,2.3,0.1,3,0c0.7-0.1,1.1-0.2,1.6-0.8c0.8-1,1.1-4.1,1.4-13.2v-0.8h-6
			C540.1,138.2,540.4,137.2,540.7,136.2z M558.4,136l-1.2,0.5c0.5,0.8,1.1,1.9,1.4,2.6l1.3-0.6C559.6,137.9,558.9,136.8,558.4,136z
			 M563.5,148.5h2.7v-2.8h1.2v-1.2h-1.2v-2.7H563v-1.5h4v-1.2h-3.7c0.6-0.8,1.2-1.7,1.8-2.5l-1.4-0.6c-0.4,0.9-1.3,2.2-1.9,3.1h-3.2
			h-3v1.2h2.9v1.5h-2.6v1.1h2.6v1.6h-3.2v1.2h3.2v1.7h-2.7v1.1h2.2c-0.8,1.5-1.8,2.9-2.9,3.8v-5h-5.1v6.7h1.3V153h3.7
			c0.2,0.2,0.4,0.5,0.5,0.7c1.1-0.9,2.1-2.3,3-3.8v4.4h1.3v-5.7h2v5.7h1.3v-4.5c1,1.6,2.4,3.1,3.6,4c0.2-0.3,0.6-0.8,0.9-1
			C566.1,151.8,564.5,150.1,563.5,148.5z M553.7,151.8h-2.4v-3.3h2.4V151.8z M561.7,147.4h-2v-1.7h2V147.4z M561.7,144.5h-2v-1.6h2
			V144.5z M561.7,141.8h-2v-1.5h2V141.8z M563,142.9h2v1.6h-2V142.9z M563,145.7h2v1.7h-2V145.7z M554.9,142h-5v1.2h5V142z
			 M549.9,145.8h5v-1.2h-5V145.8z M555.3,139.4h-2.7l1.2-0.7c-0.3-0.7-1-1.8-1.5-2.6l-1.1,0.6c0.5,0.8,1.2,1.9,1.4,2.6h-3.3v1.2h6.2
			V139.4z M576.7,150.5c-0.2,0-0.9,0-1.6,0c0.2,0.3,0.4,0.8,0.4,1.1c1.1,0,1.7,0,2.2-0.2c0.4-0.2,0.6-0.5,0.6-1.2v-5.6
			c0.7-0.3,1.5-0.6,2.2-0.8l-0.2-1.1l-2,0.7v-2.5c0.9-1,1.9-2.3,2.6-3.4l-0.8-0.6l-0.2,0.1h-4.8v1.2h3.9c-0.5,0.9-1.2,1.8-1.9,2.4
			v3.3c-0.9,0.3-1.8,0.6-2.5,0.8l0.4,1.2c0.6-0.2,1.3-0.5,2.1-0.7v5.1C576.9,150.4,576.9,150.4,576.7,150.5z M586.7,136.6l-1.1-0.8
			c-1.2,1-3.4,2.1-5.3,2.9c0.2,0.2,0.4,0.7,0.4,0.9C582.8,138.8,585.2,137.7,586.7,136.6z M571.1,136.6c0.4,1,1,2.4,1.2,3.3l1.2-0.5
			c-0.3-0.8-0.9-2.1-1.3-3.2L571.1,136.6z M580.1,151.2c0.7-1,1.6-2.5,2.1-3.9l-1.2-0.3c-0.5,1.3-1.2,2.6-2,3.6
			C579.3,150.7,579.9,151,580.1,151.2z M585.5,143c0.3,0.6,0.6,1.2,0.9,1.8L582,145c1.9-1.3,3.8-2.9,5.5-4.7l-1-0.6
			c-0.5,0.6-1,1.1-1.6,1.7l-2.4,0.1c1-0.7,2-1.6,3-2.6l-1.2-0.4c-1,1.2-2.5,2.4-2.9,2.6c-0.4,0.3-0.8,0.5-1.1,0.5
			c0.1,0.3,0.3,0.8,0.4,1.1c0.2-0.1,0.7-0.2,3.1-0.4c-1,0.9-1.9,1.6-2.2,1.8c-0.7,0.5-1.2,0.8-1.7,0.9c0.1,0.3,0.3,0.9,0.4,1.1
			c0.3-0.1,0.7-0.1,3-0.3v5.7h1.3v-5.8l2.4-0.1c0.1,0.3,0.2,0.6,0.3,0.8l1.1-0.4c-0.4-0.9-1.1-2.4-1.7-3.5L585.5,143z M574.6,151.8
			c-0.7-0.4-1.2-0.8-1.6-1c0.6-1.5,1.2-3.5,1.5-5.3l-0.6-0.3l-0.2,0.1h-1.2c0.5-1.4,1-3.1,1.4-4.5h-3.6v1.3h1.9
			c-0.4,1.6-1,3.3-1.5,4.5h2.3c-0.3,1.4-0.7,3-1.2,4.1c-0.6,0.4-1.2,1.3-1.9,2.4l1,1.3c0.5-1.2,1-2.5,1.4-2.5c0.4,0,1.2,0.7,2,1.2
			c1.5,0.9,3.3,1.1,6,1.1c2.4,0,6.3-0.1,7.8-0.2c0-0.4,0.3-1.1,0.4-1.5c-2.3,0.2-5.5,0.4-8.2,0.4C577.9,152.8,576,152.7,574.6,151.8
			z M585.5,147.2c0.6,1.2,1.3,2.8,1.6,3.7l1.2-0.4c-0.3-0.9-1.1-2.5-1.7-3.6L585.5,147.2z M600.4,142.1c-0.8,0-1.5,0.5-1.5,1.4
			c0,0.9,0.7,1.4,1.5,1.4c0.1,0,0.2,0,0.3,0c-0.1,1.4-1,2.3-2.5,2.9l0.4,1.1c2.1-0.7,3.5-2.4,3.5-4.5
			C602.1,143,601.5,142.1,600.4,142.1z M620.2,147.1c-1.3,0.6-2.7,1.1-3.9,1.7L616,137l-1.5,0.1l0.3,12.4c-1,0.4-2,0.8-2.8,1.1
			l0.5,1.5c2.2-1,5.2-2.3,8-3.5L620.2,147.1z M623.1,143.2c-0.6-1.4-1.8-3.3-3.2-4.8l-1.3,0.7c1.3,1.5,2.5,3.5,3.1,4.9L623.1,143.2z
			 M628.3,137.2l-1.6-0.2c-0.9,8.6-3,13.5-9.9,16c0.4,0.3,1,1,1.2,1.3c3.1-1.3,5.3-3,6.9-5.4c1.7,1.8,3.6,3.9,4.5,5.3l1.2-1.1
			c-1-1.5-3.1-3.7-4.9-5.5C627.1,144.8,627.9,141.4,628.3,137.2z M643.1,143h7.1v-1.4h-7.1v-3.2c2.4-0.3,4.5-0.7,6.2-1.2l-1.1-1.2
			c-3,0.9-8.8,1.5-13.5,1.7c0.1,0.3,0.3,0.9,0.4,1.3c2.1-0.1,4.3-0.2,6.5-0.5v3.1h-6.9v1.4h6.9v3.2h-8.2v1.5h8.2v4.4
			c0,0.4-0.2,0.6-0.6,0.6c-0.5,0-2,0-3.7,0c0.2,0.4,0.5,1.1,0.6,1.5c2.1,0,3.4,0,4.1-0.3c0.7-0.2,1.1-0.7,1.1-1.7v-4.4h8.2v-1.5
			h-8.2V143z M666.6,136.2l-1.4-0.4c-0.6,1.4-1.6,2.7-2.7,3.5c0.3,0.2,0.9,0.7,1.1,0.9c0.6-0.5,1.2-1.2,1.7-1.9h7v-1.2h-6.2
			C666.3,136.8,666.5,136.5,666.6,136.2z M655.2,140.6c0.7-0.6,1.4-1.4,2.1-2.2h5.9v-1.2h-5.1c0.2-0.3,0.3-0.6,0.5-0.9l-1.3-0.4
			c-0.7,1.4-1.8,2.8-3.1,3.7C654.5,139.8,655,140.3,655.2,140.6z M658.3,139c0.6,0.6,1.3,1.4,1.7,2l1-0.8c-0.4-0.5-1.1-1.3-1.7-1.9
			L658.3,139z M670.1,141.5H664v-1.1h-1.5v1.1h-5.8v1.1h5.8v1.2h-8.1v1.1h8.1v1.3h-5.9v1.1h5.9v1.2H656v1.2h6.5v1.3h-7.8v1.2h7.8
			v2.1h1.5v-2.1h8v-1.2h-8v-1.3h6.7v-1.2H664v-1.2h6.2v-2.4h2.1v-1.1h-2.1V141.5z M668.6,146.2H664v-1.3h4.7V146.2z M668.6,143.8
			H664v-1.2h4.7V143.8z M669.7,140.2c-0.4-0.5-1.2-1.3-1.8-1.8l-1,0.7c0.6,0.6,1.4,1.4,1.7,1.9L669.7,140.2z M684.4,142.1
			c-0.8,0-1.5,0.5-1.5,1.4c0,0.9,0.7,1.4,1.5,1.4c0.1,0,0.2,0,0.3,0c-0.1,1.4-1,2.3-2.5,2.9l0.4,1.1c2.1-0.7,3.5-2.4,3.5-4.5
			C686.1,143,685.5,142.1,684.4,142.1z M72.4,169.4h-6.3v1.2h6.3V169.4z M84,180.1l-0.8-0.8c-0.6,0.4-1.5,1-2.4,1.4
			c-0.4-0.5-0.8-1.1-1.1-1.7h4.7V178h-3.1v-1.1h2.3v-1h-2.3v-1.1H84v-1h-2.7v-1.1h2.3v-3.4H79v3.4h0.9v1.1h-3v-1.1H78v-3.4h-4.4v3.4
			h2v1.1h-2.4v1h2.4v1.1h-2.1v1h2.1v1.1h-3.1v1.1h4c-1.2,0.8-2.8,1.5-4.4,1.9c0.2,0.2,0.6,0.7,0.8,1c0.7-0.2,1.5-0.5,2.2-0.9v0.6
			c0,0.9-0.5,1.4-0.8,1.6c0.2,0.2,0.5,0.7,0.7,1c0.3-0.2,0.9-0.4,4.3-1.2c0-0.3-0.1-0.8,0-1.1l-3,0.6v-2.1c0.7-0.4,1.3-0.8,1.8-1.3
			h0.3c1,2.4,2.8,4.3,5.3,5.1c0.2-0.3,0.6-0.8,0.8-1.1c-1.2-0.3-2.2-0.8-3-1.5C82.4,181.1,83.3,180.6,84,180.1z M80.2,170.3h2.2v1.6
			h-2.2V170.3z M76.9,174.9h3v1.1h-3V174.9z M76.8,171.9h-2.1v-1.6h2.1V171.9z M76.9,178v-1.1h3v1.1H76.9z M66.9,173.2h4.9V172h-4.9
			V173.2z M66.9,175.8h4.9v-1.2h-4.9V175.8z M72.8,168.6h11.4v-1.2h-4.8c-0.2-0.5-0.5-1.2-0.9-1.6l-1.2,0.4c0.2,0.4,0.4,0.8,0.6,1.3
			h-5.1V168.6z M69.2,169.2l1.1-0.4c-0.1-0.7-0.6-1.8-1.1-2.6l-1.1,0.4C68.6,167.3,69,168.5,69.2,169.2z M66.8,184H68v-0.9h3.9v-5.8
			h-5V184z M68,178.5h2.8v3.4H68V178.5z M96.9,174.2c0,0.4,0,0.8,0,1.3c-1.4,1-2.8,2-3.8,2.7l0.7,1.3c0.9-0.7,1.9-1.6,2.9-2.5
			c-0.3,2.4-1.2,4.8-4.1,6.2c0.3,0.3,0.8,0.8,0.9,1.1c4.2-2.3,4.6-6.5,4.6-10.1V166h-1.4V174.2z M103.8,182.6h-1.7
			c-0.5,0-0.6-0.1-0.6-0.9V176c1.1,1,2.4,2.4,3.1,3.2l0.9-0.9c-0.7-0.9-2.2-2.4-3.4-3.4l-0.6,0.5V166h-1.4v15.7
			c0,1.8,0.4,2.2,1.8,2.2h1.9c1.2,0,1.6-0.8,1.7-3.2c-0.4-0.1-0.9-0.3-1.3-0.6C104.3,182.1,104.2,182.6,103.8,182.6z M101.9,173
			l1.1,0.5c0.7-1.1,1.6-2.7,2.3-4.1l-1.4-0.6C103.4,170.1,102.6,171.9,101.9,173z M91.2,171.8v-0.6h1.9v-1.4h-1.9V166h-1.4v3.8h-2.5
			v1.4h2.4c-0.5,2.7-1.6,5.9-2.7,7.5c0.2,0.4,0.6,1,0.8,1.5c0.8-1.2,1.5-3.1,2.1-5.2v9.2h1.4v-10.6c0.6,1,1.2,2.1,1.5,2.8l0.9-1.1
			C93.3,174.7,91.8,172.6,91.2,171.8z M94.8,169l-1.1,0.4c0.7,1.3,1.4,3,1.8,4.2l1.2-0.5C96.4,171.9,95.6,170.2,94.8,169z
			 M108.2,180.5l1.5,0.6c0.8-2.1,1.4-5.5,1.8-7.8L110,173C109.7,175.3,109.1,178.5,108.2,180.5z M119.9,182.5h-3.8
			c-1.1,0-1.4-0.2-1.4-1.1v-9.9h-1.5v9.8c0,2,0.6,2.5,2.8,2.5h4c2.2,0,2.7-1.1,2.9-4.9c-0.4-0.1-1-0.4-1.4-0.7
			C121.3,181.8,121.2,182.5,119.9,182.5z M122.5,173c1.1,2.3,2.2,5.5,2.6,7.5l1.5-0.6c-0.4-2.1-1.5-5.1-2.7-7.5L122.5,173z
			 M114.2,167.6c1.9,1.3,4.2,3.3,5.3,4.5l1.1-1.1c-1.1-1.3-3.5-3.1-5.4-4.4L114.2,167.6z M137.4,166.8h-7.2v17.4h1.5v-10.7h5.8
			V166.8z M136,172.4h-4.4v-1.7h4.4V172.4z M136,169.6h-4.4V168h4.4V169.6z M143.6,178.1h-2.7V176h2.3v-1.2h-9.9v1.2h2.2v2.2H133
			v1.3h2.5c-0.1,1.2-0.7,2.8-2.4,3.8c0.3,0.2,0.8,0.6,1,0.9c1.9-1.3,2.6-3.4,2.7-4.7h2.8v4.5h1.3v-4.5h2.7V178.1z M139.6,178.1h-2.8
			V176h2.8V178.1z M139.1,173.5h6v8.8c0,0.3-0.1,0.4-0.4,0.4c-0.3,0-1.4,0-2.5,0c0.2,0.4,0.4,1.1,0.5,1.5c1.5,0,2.5,0,3.1-0.3
			c0.6-0.3,0.8-0.7,0.8-1.6v-15.5h-7.4V173.5z M140.5,168h4.5v1.6h-4.5V168z M140.5,170.6h4.5v1.7h-4.5V170.6z M164.1,169.4
			c0.7,0.9,1.4,2,1.9,3l-6.2,0.4c1.3-1.8,2.6-4.1,3.7-6.4l-1.5-0.5c-1,2.5-2.7,5.2-3.2,5.9c-0.5,0.7-0.9,1.2-1.3,1.3
			c0.2,0.4,0.4,1.1,0.5,1.4c0.6-0.2,1.4-0.3,8.7-0.9c0.3,0.5,0.5,1,0.6,1.4l1.3-0.6c-0.6-1.5-2-3.8-3.4-5.6L164.1,169.4z M155.4,179
			c1.2-2.6,1.4-5.2,1.4-7.4l0.9-0.1l0-1.3l-0.9,0.1v-1.4h-1.4v1.5l-1.8,0.1c0.3-1.5,0.5-2.9,0.7-4.3L153,166
			c-0.2,1.4-0.4,2.9-0.7,4.4c-0.8,0-1.6,0.1-2.2,0.1l0.2,1.4l1.8-0.1c-0.4,1.9-0.9,3.7-1.4,5c1,0.7,2,1.6,3,2.5
			c-0.8,1.4-2,2.7-3.7,3.9c0.3,0.2,0.8,0.7,1,1c1.7-1.2,2.9-2.6,3.8-4c0.8,0.8,1.6,1.5,2.1,2.1l0.9-1.2
			C157.2,180.6,156.3,179.8,155.4,179z M154.3,178c-0.7-0.6-1.4-1.1-2.1-1.7c0.4-1.3,0.8-3,1.2-4.6l2.1-0.1
			C155.5,173.5,155.3,175.8,154.3,178z M158.5,184.2h1.4v-0.9h6v0.8h1.4v-8h-8.8V184.2z M159.9,177.5h6v4.5h-6V177.5z M182.2,180.8
			c2.1,1,4.3,2.3,5.7,3.3l1-1.1c-1.4-1-3.7-2.2-5.8-3.2L182.2,180.8z M177.7,176.7c0.3,0.1,0.8,0.5,1,0.6c0.6-1,1-2.3,1.2-3.7
			l-1.2-0.2C178.6,174.6,178.3,175.8,177.7,176.7z M182.7,169.2V168h-3.3v-1.9h-1.3v6.5h3.2v4.1c0,0.2,0,0.3-0.3,0.3
			c-0.2,0-0.8,0-1.5,0c0.2,0.3,0.3,0.7,0.4,1c1,0,1.7,0,2.1-0.2c0.4-0.2,0.6-0.5,0.6-1.1v-5.3H182v0h-2.6v-2.1H182.7z M171.5,183.1
			c0.3,0.3,0.7,0.8,0.9,1.1c1.9-0.8,4.3-2.2,6-3.4l-1.3-0.9C175.8,181,173.4,182.3,171.5,183.1z M187.7,167h-4.2v1.3h2.9
			c0,0.8,0,1.6,0,2.5h-2.7v1.3h2.6c0,0.8-0.1,1.7-0.1,2.5h-2.6v1.3h2.6c0,0.9-0.1,1.7-0.1,2.4h-11.3l-0.1-2.5h2.6v-1.3h-2.6
			l-0.1-2.4h2.6v-1.3h-2.7l-0.1-2.3c1-0.3,2.1-0.7,3-1.1l-0.7-1.2c-1,0.5-2.5,1.1-3.7,1.5l0.4,10.6h-2v1.4h18v-1.4h-1.9
			C187.6,175.2,187.7,170.5,187.7,167z M206.8,178.1c0.3-0.9,0.5-1.7,0.6-2.6H206c-0.4,2.1-1.2,5.1-4,6.6c0.3,0.2,0.8,0.8,1,1.1
			c1.5-0.9,2.6-2.3,3.2-3.7c0.8,1.2,2,2.7,3.2,3.5c0.2-0.3,0.7-0.8,1-1.1C208.9,181,207.5,179.3,206.8,178.1z M196.9,178.3
			c0.3-0.8,0.6-1.7,0.7-2.4h-1.5c-0.4,2-1.4,4.9-4.3,6.3c0.3,0.2,0.7,0.8,0.9,1.1c1.7-0.9,2.9-2.3,3.6-3.8c1,0.8,2.1,1.9,2.6,2.5
			l0.8-1C199.3,180.1,198,179.1,196.9,178.3z M193.4,172h15.7v-5.3h-15.7V172z M204.2,168.1h3.4v2.6h-3.4V168.1z M199.5,168.1h3.4
			v2.6h-3.4V168.1z M194.8,168.1h3.3v2.6h-3.3V168.1z M209.5,174l-1.1-1.1c-3.7,0.6-10.3,0.9-15.4,0.9c0.3,0.3,0.7,1,0.9,1.4
			c2,0,4.3-0.1,6.6-0.3v9.6h1.5v-2.4v-7.2C204.8,174.6,207.5,174.3,209.5,174z M223.5,173.2c2.4,1.6,5.3,3.9,6.7,5.4l1.2-1.1
			c-1.5-1.5-4.5-3.8-6.8-5.3L223.5,173.2z M230.8,168.9v-1.5h-17.1v1.5h8.8c-2,3.4-5.4,6.7-9.3,8.7c0.3,0.3,0.8,0.9,1,1.3
			c2.8-1.5,5.2-3.5,7.2-5.8v11.1h1.6v-13.1c0.5-0.7,1-1.5,1.4-2.2H230.8z M248.4,170.5h-10.1v1.3h10.1V170.5z M235.1,184.3h1.4
			v-15.9H250v13.9c0,0.3-0.1,0.4-0.5,0.5c-0.3,0-1.5,0-2.8,0c0.2,0.4,0.5,1,0.5,1.5c1.7,0,2.7,0,3.3-0.3c0.6-0.3,0.8-0.7,0.8-1.6
			V167h-16.4V184.3z M247.3,173.9h-8v7.8h1.4v-1.4h6.6V173.9z M245.9,178.9h-5.2v-3.8h5.2V178.9z M264.4,172.1
			c-0.8,0-1.5,0.5-1.5,1.4c0,0.9,0.7,1.4,1.5,1.4c0.1,0,0.2,0,0.3,0c-0.1,1.4-1,2.3-2.5,2.9l0.4,1.1c2.1-0.7,3.5-2.4,3.5-4.5
			C266.1,173,265.5,172.1,264.4,172.1z M290.6,167.5c0.8,0.9,1.7,2.2,2,3l1.1-0.7c-0.4-0.8-1.2-2-2.1-2.9L290.6,167.5z M294.3,171.1
			h-4.6c0.1-1.8,0.1-3.5,0.1-5.1h-1.4c0,1.6,0,3.4-0.1,5.1h-2.7v1.3h2.6c-0.3,4.2-1.3,8.4-4.2,10.9c0.4,0.2,0.8,0.6,1.1,0.9
			c3.1-2.8,4.1-7.3,4.5-11.8h4.7V171.1z M278.2,177.2c-0.4,1.6-1,3.3-1.8,4.4c0.3,0.2,0.8,0.5,1.1,0.7c0.8-1.2,1.6-3,2-4.8
			L278.2,177.2z M284.7,171.3h-7.2v4.8h3v6.5c0,0.2-0.1,0.3-0.3,0.3c-0.2,0-0.9,0-1.6,0c0.2,0.3,0.4,0.9,0.4,1.2c1,0,1.7,0,2.2-0.2
			c0.5-0.2,0.6-0.6,0.6-1.2v-6.5h2.8V171.3z M283.3,175h-4.5v-2.4h4.5V175z M285.2,180.5c-0.2-1-0.8-2.4-1.5-3.5l-1.1,0.5
			c0.6,1.1,1.2,2.6,1.4,3.5L285.2,180.5z M276.4,169.8h9.1v-1.3h-3.3c-0.2-0.7-0.7-1.7-1.1-2.5l-1.4,0.3c0.3,0.7,0.7,1.5,0.9,2.2
			h-4.3V169.8z M293.4,182c0,0.3-0.1,0.5-0.3,0.5c-0.1,0.1-0.3,0.1-0.6,0.1h-0.9c-0.2,0-0.4,0-0.5-0.1c-0.1-0.1-0.2-0.3-0.2-0.8
			v-7.7h-1.3v7.5c0,1.3,0.1,1.6,0.5,1.8c0.3,0.2,0.8,0.3,1.2,0.3h1.3c0.4,0,0.8,0,1.1-0.2c0.3-0.1,0.5-0.4,0.6-0.8s0.2-1.5,0.2-2.4
			c-0.4-0.1-0.9-0.3-1.2-0.6C293.4,180.8,293.4,181.6,293.4,182z M304.1,181.2v-7.7h2.8v-1.4h-2.8V166h-1.5v15.5l-2.2,0.4V170h-1.5
			v12.1c-0.6,0.1-1.1,0.2-1.6,0.3l0.2,1.6c2.5-0.5,6.1-1.1,9.5-1.8l-0.1-1.5L304.1,181.2z M313.2,182.1h-2.7c-0.8,0-1-0.2-1-1.2
			v-7.3h4.9v-1.4h-4.9V166h-1.6v14.9c0,2.2,0.5,2.7,2.4,2.7h3c1.8,0,2.2-1.1,2.4-4.3c-0.4-0.1-1-0.4-1.4-0.7
			C314.1,181.4,314,182.1,313.2,182.1z M319,172.6h1.5v-2.9h13.6v2.9h1.5v-4.3h-7.1c-0.2-0.7-0.7-1.6-1.2-2.4l-1.4,0.4
			c0.3,0.6,0.7,1.3,0.9,2H319V172.6z M328,182.2v-4h5.9v-1.4H328v-3.3h5.1v-1.4h-11.6v1.4h5v8.3c-1.6-0.6-2.9-1.8-3.7-3.9
			c0.2-0.8,0.3-1.7,0.5-2.6l-1.5-0.2c-0.4,3.6-1.5,6.4-3.7,8.1c0.4,0.2,1,0.7,1.2,1c1.3-1.1,2.3-2.7,3-4.5c1.8,3.4,4.8,4.1,9,4.1
			h4.6c0.1-0.4,0.3-1.1,0.6-1.5c-1,0-4.4,0-5.1,0C330.1,182.4,329,182.4,328,182.2z M346,168c-0.2-0.6-0.8-1.4-1.4-2l-1.3,0.4
			c0.4,0.5,0.8,1.1,1.1,1.7h-4.1v1.2h7.2v1.2h-6.1v1.1h6.1v1.3h-8v1.2h17.7v-1.2H349v-1.3h6.2v-1.1H349v-1.2h7.3v-1.2h-4.1
			c0.4-0.5,0.8-1.1,1.2-1.7l-1.6-0.4c-0.3,0.6-0.8,1.5-1.1,2.2h-4.8L346,168z M355.2,177.1l0.9-1c-0.7-0.6-2.1-1.3-3.2-1.8l-0.8,0.9
			C353.1,175.7,354.5,176.5,355.2,177.1z M355.5,182.9c-0.9,0-1.8-0.5-2.6-1.3c1.1-0.7,2-1.5,2.7-2.4l-1.3-0.4
			c-0.6,0.7-1.3,1.3-2.1,1.9c-0.4-0.6-0.7-1.3-1-2.2h6v-1.2h-6.3c-0.2-0.9-0.3-1.9-0.4-2.9h-1.4c0.1,1,0.2,2,0.4,2.9h-4.4v-1.5
			c1.2-0.1,2.3-0.3,3.2-0.6l-0.9-0.9c-1.8,0.5-5,0.8-7.8,1c0.1,0.3,0.3,0.7,0.3,1c1.2-0.1,2.4-0.2,3.7-0.3v1.4h-4.2v1.2h4.2v1.5
			c-1.6,0.1-3.1,0.2-4.3,0.3l0.1,1.2l4.2-0.4v1.7c0,0.3-0.1,0.3-0.4,0.3c-0.3,0-1.3,0-2.4,0c0.2,0.3,0.4,0.8,0.5,1.2
			c1.5,0,2.4,0,3-0.2c0.6-0.2,0.8-0.5,0.8-1.3v-1.9c1.2-0.1,2.4-0.2,3.6-0.3v-1.1l-3.6,0.3v-1.3h4.7c0.3,1.1,0.7,2,1.2,2.9
			c-1.4,0.7-3,1.3-4.5,1.7c0.2,0.3,0.6,0.9,0.8,1.2c1.5-0.5,3.1-1.1,4.5-1.9c1,1.2,2.3,1.9,3.7,1.9c1.3,0,1.8-0.6,2-2.7
			c-0.4-0.1-0.8-0.3-1.1-0.6C356.2,182.4,356,182.8,355.5,182.9z M365.8,178l-1.9,0.7v-6.6h1.9v-1.4h-1.9v-4.6h-1.4v4.6h-2.1v1.4
			h2.1v7.1c-0.9,0.3-1.7,0.6-2.3,0.8l0.5,1.5c1.6-0.6,3.6-1.4,5.5-2.2L365.8,178z M376.9,182.6c-0.7,0-1.3-1.1-1.7-3
			c1.2-1.9,2.1-4.1,2.8-6.7l-1.4-0.2c-0.4,1.8-1,3.5-1.8,5c-0.3-2-0.5-4.4-0.6-7.2h4.2V169h-1.5l1-0.7c-0.5-0.7-1.5-1.6-2.4-2.2
			l-1,0.6c0.8,0.7,1.8,1.6,2.3,2.3H374c0-1,0-2,0-3.1h-1.4c0,1,0,2.1,0.1,3.1h-6v6.2c0,2.6-0.2,5.9-2.2,8.2c0.3,0.2,0.9,0.7,1.1,0.9
			c2.1-2.5,2.5-6.3,2.5-9.1v-0.9h2.5c-0.1,3.6-0.1,4.9-0.4,5.2c-0.1,0.2-0.2,0.2-0.5,0.2c-0.3,0-0.9,0-1.6-0.1
			c0.2,0.3,0.3,0.9,0.3,1.3c0.7,0,1.4,0,1.8,0c0.5-0.1,0.8-0.2,1-0.6c0.4-0.5,0.5-2.1,0.5-6.7c0-0.2,0-0.6,0-0.6H368v-2.7h4.7
			c0.1,3.5,0.4,6.6,1,9c-1.1,1.5-2.4,2.8-3.9,3.8c0.3,0.2,0.8,0.7,1,1c1.3-0.9,2.4-1.9,3.3-3.1c0.6,1.9,1.5,3,2.6,3
			c1.3,0,1.7-0.9,1.9-3.9c-0.4-0.1-0.8-0.4-1.1-0.8C377.4,181.6,377.2,182.6,376.9,182.6z M398.6,179.6c0,1.7-0.2,3.1-0.4,3.1
			c-1.2,0-1.2-8.2-1.2-15.6h-13.6v6.4c0,3.1-0.2,7.1-2.4,9.9c0.3,0.2,0.9,0.6,1.2,0.8c2.3-3,2.6-7.6,2.6-10.8v-5h10.8
			c0.1,8.7,0,15.8,2.5,15.8c1,0,1.3-1,1.5-3.6C399.3,180.4,398.9,180,398.6,179.6z M392.3,179.2c0.4,0.5,0.7,1.1,1.1,1.7l-2.6,0.2
			v-2.7h3.5v-5.4h-3.5V171h3.9v-1.2h-8.9v1.2h3.7v1.9H386v5.4h3.5v2.8c-1.8,0.1-3.4,0.2-4.7,0.3l0.1,1.3c2.4-0.2,5.8-0.4,9.1-0.6
			c0.3,0.5,0.5,1.1,0.6,1.5l1.2-0.4c-0.3-1.2-1.3-3-2.4-4.4L392.3,179.2z M390.8,174.1h2.3v3.1h-2.3V174.1z M389.4,177.2h-2.3v-3.1
			h2.3V177.2z M418.1,182.4h-3.1c-0.9,0-1-0.1-1-0.9v-8.6h3.6v4.6c0,0.2-0.1,0.3-0.4,0.3c-0.3,0-1.2,0-2.3,0c0.2,0.4,0.4,1,0.5,1.4
			c1.4,0,2.3,0,2.8-0.3c0.5-0.2,0.7-0.7,0.7-1.4v-5.9h-6.4v9.9c0,1.8,0.5,2.3,2.3,2.3h3.3c1.6,0,2-0.8,2.2-3.4
			c-0.4-0.1-1-0.3-1.3-0.6C419,181.9,418.9,182.4,418.1,182.4z M420.3,167.4h-6c0.2-0.4,0.3-0.8,0.5-1.2l-1.4-0.3
			c-0.5,1.7-1.5,3.3-2.7,4.3c0.3,0.2,0.9,0.6,1.1,0.9c0.7-0.6,1.3-1.5,1.8-2.4h2.1l-0.9,0.7c0.7,0.6,1.5,1.4,2,1.9l1-0.9
			c-0.4-0.5-1.3-1.2-1.9-1.7h4.3V167.4z M408,179.4h3.2V174H408v-1h3.8v-1.1H408v-1.1c0.1,0.1,0.3,0.3,0.3,0.4l1-0.9
			c-0.4-0.5-1.2-1.2-1.9-1.8h3.8v-1.2H406c0.2-0.4,0.4-0.8,0.5-1.2l-1.3-0.4c-0.7,1.7-1.8,3.3-3,4.4c0.3,0.2,0.8,0.7,1,1
			c0.7-0.7,1.4-1.6,2.1-2.6h1.7l-0.7,0.6c0.5,0.5,1.2,1,1.6,1.5h-1.2v1.2h-4v1.1h4v1h-3.3v5.4h3.3v1h-4.4v1.2h4.4v2.6h1.3v-2.6h4
			v-1.2h-4V179.4z M408,175h2v1.2h-2V175z M408,177.2h2v1.3h-2V177.2z M406.7,178.4h-2.1v-1.3h2.1V178.4z M406.7,176.2h-2.1V175h2.1
			V176.2z M432.3,172.1c-1.7,0-3,1.4-3,3c0,1.7,1.4,3,3,3c1.7,0,3-1.4,3-3C435.4,173.4,434,172.1,432.3,172.1z M432.3,177.1
			c-1.1,0-2-0.9-2-2c0-1.1,0.9-2,2-2c1.1,0,2,0.9,2,2C434.4,176.2,433.5,177.1,432.3,177.1z M87.3,46.8l-4.8-0.5v10.4
			c-0.5-1.4-1.8-3.1-4.5-4.5l-0.4,0.2c1,1.9,2,4.8,2.1,7c1.1,1.2,2.4,0.8,2.9-0.3V63c-2.6,1.6-5.1,3-6.3,3.5l2.5,3.9
			c0.4-0.2,0.6-0.7,0.6-1.2c1.2-1.7,2.3-3.2,3.2-4.4c-0.1,6.7-2,11.1-7.2,14.7l0.3,0.4c7.8-3.2,10.4-8.2,10.4-15.7V47.8
			C87,47.7,87.3,47.3,87.3,46.8z M70.1,79.9h0.8c1.4,0,3.1-0.9,3.1-1.3V59.3c0.8,1.5,1.4,3.4,1.5,5c2.8,2.6,6.2-3-1.5-6V56h3.7
			c0.5,0,0.8-0.2,0.9-0.6c-1.1-1.2-3.1-3-3.1-3L74,54.9v-7.3c1-0.1,1.3-0.5,1.3-1L70.1,46v9h-4.6l0.3,1h3.8
			c-0.8,5.4-2.2,10.9-4.5,15.1l0.5,0.4c1.8-1.8,3.3-3.8,4.5-6V79.9z M91.8,78.8h2.1c4,0,5.4-0.7,5.4-2.2c0-0.7-0.3-1.1-1.3-1.5
			L97.9,71h-0.4c-0.4,1.5-0.9,3.4-1.2,3.9c-0.2,0.3-0.4,0.4-0.7,0.4c-0.3,0-0.8,0-1.4,0h-1.3c-0.8,0-0.9-0.3-0.9-0.9V62.9
			c1,1.8,2,3.8,2.2,5.7c3.3,2.7,6.6-3.8-2.2-7.3v-2.2c2-1.5,4.2-3.3,5.3-4.4c0.7,0.3,1.2,0,1.4-0.3l-4.2-3c-0.5,1.3-1.5,3.6-2.5,5.6
			v-9c0.9-0.1,1.2-0.5,1.2-1l-4.9-0.6v29.1C88.3,77.9,89,78.8,91.8,78.8z M117.8,78.3h4.6c7.5,0,9.3-0.9,9.3-2.9
			c0-0.8-0.3-1.3-1.6-1.8l-0.1-5.9h-0.4c-0.8,2.7-1.5,4.9-1.9,5.6c-0.3,0.4-0.6,0.6-1.2,0.6c-0.6,0-2,0.1-3.6,0.1h-4.4
			c-1.6,0-2.1-0.3-2.1-1.2V54.2c0.9-0.1,1.2-0.5,1.3-1l-5.5-0.5v21.4C112.1,77.5,113.6,78.3,117.8,78.3z M117.8,46.7l-0.3,0.2
			c2.2,2.6,4.4,6.5,5.1,9.9C126.9,60.1,130.3,50.8,117.8,46.7z M129.1,57.8l-0.3,0.3c2.9,3.9,3.9,9.4,4.1,12.9
			C136.2,75.5,142.1,65.7,129.1,57.8z M108,57l-0.5,0c0.1,4.8-1.7,9.3-3.6,11c-0.9,1-1.2,2.3-0.3,3.3c1.1,1.1,3.2,0.9,4.3-0.9
			C109.7,68.1,110.7,63.5,108,57z M150.6,61.9l3.5-1.3v13.8c0,3.5,1.6,4.3,6,4.3h5c8,0,9.9-0.7,9.9-2.7c0-0.8-0.4-1.3-1.8-1.7
			l-0.1-5.1h-0.4c-0.8,2.5-1.4,4.3-1.9,5c-0.3,0.4-0.7,0.5-1.3,0.5c-0.8,0.1-2.2,0.1-4,0.1h-4.9c-1.9,0-2.4-0.3-2.4-1.4V59.1
			l3.2-1.2v14.6h0.7c1.5,0,3.2-0.8,3.2-1.2v-4.6c0.8,0.3,1.2,0.6,1.5,1.1c0.4,0.5,0.4,1.5,0.4,2.7c1.5,0,2.8-0.4,3.7-1.2
			c1.5-1.3,1.8-3.9,1.9-13.5c0.7-0.1,1.2-0.4,1.4-0.6l-3.7-3l-2.1,2h0.1l-0.4,0.1l-3,1.1v-7.7c1-0.1,1.2-0.5,1.3-1l-5.2-0.5v10.6
			l-3.2,1.2v-7.2c0.9-0.1,1.2-0.5,1.3-1l-5.3-0.6v10.3l-4.2,1.5L150.6,61.9z M165.2,56.6l3.6-1.3c-0.1,7.5-0.3,10.2-0.9,10.8
			c-0.2,0.2-0.4,0.3-0.9,0.3s-1.3,0-1.9-0.1V56.6z M140.6,71.7l2.1,4.8c0.4-0.2,0.8-0.6,0.9-1.1c4.6-3.2,7.8-5.9,10-7.7l-0.1-0.4
			c-1.5,0.6-3.1,1.2-4.6,1.7V58.4h4.2c0.4,0,0.8-0.2,0.9-0.6c-1-1.4-3.1-3.5-3.1-3.5l-1.8,3.1h-0.3v-8.9c1-0.1,1.3-0.5,1.3-1
			l-5.3-0.5v10.4h-3.8l0.3,1h3.5v12C143.1,70.9,141.6,71.4,140.6,71.7z M205.1,77.1h-7.2V63.5h10.6c0.5,0,0.9-0.2,1-0.5
			c-1.7-1.5-4.4-3.6-4.4-3.6l-2.5,3.1h-4.7V50.6h11.9c0.5,0,0.9-0.2,1-0.6c-1.7-1.5-4.6-3.7-4.6-3.7l-2.6,3.2h-23l0.3,1h12.3v11.9
			H182l0.3,1h11v13.5h-14.1l0.3,1h31.9c0.5,0,0.9-0.2,1-0.6c-1.8-1.5-4.7-3.7-4.7-3.7L205.1,77.1z M233.5,72.5
			c-1.5,0-2.6,1.2-2.6,2.4c0,2,2,2.7,3.2,3.2c-0.2,1.3-1,3.2-3.4,4.4l0.6,1c3.6-1.7,4.9-5,4.9-7.8C236.2,73.7,235,72.5,233.5,72.5z
			 M261.7,74.6c3.9,3.4,9.6,4.3,18,4.3h6.3c0.1-1.7,0.9-3.1,2.6-3.5V75c-2.2,0-6.6,0-8.5,0c-7.4,0-12.8-0.5-16.7-2.5
			c1.9-3.1,2.9-6.7,3.5-10.5c0.8-0.1,1.1-0.2,1.3-0.6l-3.5-3l-1.9,2h-1.8c1.3-2.5,3.1-6.4,4-8.6c0.7-0.1,1.3-0.3,1.6-0.6l-3.5-3.2
			l-1.8,1.8h-6.3l0.3,1h6c-1,2.5-2.8,6.5-4.1,8.9c-0.5,0.2-1,0.5-1.3,0.8l3.5,2.2l1.2-1.3h2.4c-0.3,3.3-0.9,6.5-2.1,9.4
			c-2-1.7-3.5-4.1-4.7-7.4l-0.4,0.2c1,4,2.4,7,4.2,9.2c-1.3,2.5-3.1,4.8-5.7,6.6l0.3,0.4C257.6,78.4,259.9,76.7,261.7,74.6z
			 M275.6,51.6v18h-2.8V57c0.9-0.1,1.2-0.5,1.3-1l-5.1-0.5v13.8c-0.4,0.3-0.8,0.6-1.1,1l4,2.3l1.2-2h13.8c0.5,0,0.9-0.2,1-0.6
			c-1.4-1.4-3.8-3.5-3.8-3.5l-2.2,3.1h-2.2V60h6c0.5,0,0.9-0.2,0.9-0.6c-1.2-1.4-3.4-3.4-3.4-3.4l-1.9,3h-1.5v-7.9
			c1.9-0.3,3.7-0.6,5.1-1c1.1,0.4,1.9,0.4,2.3,0l-4.1-3.9c-3.4,1.9-10,4.2-15.6,5.4l0.1,0.5C270.2,52.1,273,51.9,275.6,51.6z
			 M297.2,52.2l-0.4,0.1c1.3,2.7,2.6,6.3,2.7,9.6C303.4,65.7,307.6,57.3,297.2,52.2z M292.5,66.2h14.3v13.7h0.8
			c2.2,0,3.6-0.9,3.6-1.2V66.2H325c0.5,0,0.9-0.2,1-0.6c-1.7-1.5-4.6-3.6-4.6-3.6l-2.5,3.1h-7.8v-15h12.3c0.5,0,0.9-0.2,1-0.6
			c-1.8-1.4-4.6-3.5-4.6-3.5l-2.6,3.1h-23.6l0.3,1h12.6v15h-14.5L292.5,66.2z M313.8,63.3c2.7-2.1,5.4-5.2,7.6-8.6
			c0.8,0.1,1.3-0.3,1.4-0.6l-5.6-2.1c-1,3.9-2.6,8.3-3.8,11.1L313.8,63.3z M332.1,78.6c6.1-2.7,10.3-4.9,13.3-6.5l-0.1-0.4
			c-1.8,0.4-3.7,0.8-5.5,1.2v-7.6h4.5c0.5,0,0.9-0.2,1-0.6c-1.2-1.3-3.2-3.2-3.2-3.2l-1.8,2.8h-0.5v-4.8h0.6c1.2,0,3-0.6,3.1-0.9
			v-8.2c0.7-0.1,1.2-0.4,1.4-0.7l-3.7-2.8l-1.8,1.9h-3.8l-4.1-1.6V60h0.6c1.8,0,3-0.8,3-1v-0.5h1v15.3l-1.5,0.3V62.9
			c0.6-0.1,0.8-0.4,0.8-0.7l-4-0.4v12.9c-0.8,0.1-1.5,0.3-2.1,0.4l1.8,4.5C331.6,79.4,332,79,332.1,78.6z M335.2,57.4v-7.6h4.6v7.6
			H335.2z M343.6,59.8c2.1-1.2,3.9-2.7,5.6-4.6c0.7,1.6,1.4,3.1,2.4,4.4c-2.6,3.1-5.9,5.7-9.9,7.6l0.3,0.5c1.2-0.4,2.4-0.8,3.5-1.2
			v13.5h0.7c2.1,0,3.3-0.7,3.3-1v-1.7h6.4v2.6h0.8c2.1,0,3.5-0.7,3.5-0.9V68.4c0.8-0.1,1.1-0.4,1.3-0.6L359,66
			c0.7,0.4,1.5,0.7,2.3,1c0.3-2,1.2-3.2,2.8-3.8l0.1-0.4c-3.4-0.7-6.3-1.8-8.7-3.2c2-2.1,3.5-4.5,4.7-7.1c0.8-0.1,1.2-0.2,1.5-0.6
			l-3.6-3.2l-2.2,2.1h-3.7c0.4-0.8,0.8-1.5,1.1-2.4c0.8,0.1,1.3-0.3,1.4-0.7l-5.3-1.7c-1.1,5.3-3.5,10.3-6.1,13.4L343.6,59.8z
			 M355.8,76.2h-6.4v-8.1h6.4V76.2z M357.4,65.1l-1.8,2h-5.8l-3.2-1.2c2.6-1.2,4.8-2.6,6.7-4.2C354.5,63,355.8,64.1,357.4,65.1z
			 M351.5,51.9h4.4c-0.7,2.1-1.7,4-3,5.8c-1.2-1-2.2-2.2-3.1-3.4C350.4,53.6,351,52.8,351.5,51.9z M394.3,77h-8.5V61.3h12.1
			c0.5,0,0.9-0.2,1-0.6c-1.7-1.5-4.6-3.7-4.6-3.7l-2.6,3.3h-5.9V48.2c1-0.1,1.2-0.5,1.3-1l-6-0.6V77h-13.4l0.3,1h32.5
			c0.5,0,0.9-0.2,1-0.6c-1.8-1.5-4.7-3.8-4.7-3.8L394.3,77z M417.2,66.8l-0.4,0.2c1,1.6,1.9,4.1,1.8,6.2
			C421.5,76.1,425.3,69.9,417.2,66.8z M408.6,66.2c-0.4,3-1.4,7.6-3.1,10.6l0.4,0.4c2.8-2.2,4.9-5.6,6.3-8.3c0.1,0,0.3,0,0.4,0v6.4
			c0,0.4-0.1,0.6-0.6,0.6c-0.6,0-3-0.1-3-0.1v0.5c1.4,0.2,1.9,0.6,2.3,1.2c0.4,0.5,0.4,1.4,0.5,2.4c4.2-0.3,4.8-1.9,4.8-4.5v-9.7
			h5.9c0.5,0,0.9-0.2,1-0.6c-1.2-1.2-3.3-3-3.3-3l-1.8,2.5h-1.7v-4.2h6.7c0.3,0,0.6-0.1,0.8-0.3v1c0,6.6-0.5,13.2-4.9,18.3l0.4,0.4
			c8-4.8,8.6-12.3,8.6-18.6v-1.3h3.4v19.9h0.7c2.2,0,3.4-0.9,3.4-1.2V59.9h3.2c0.5,0,0.9-0.2,1-0.6c-1.5-1.5-4.1-3.6-4.1-3.6
			l-2.3,3.1H428v-7.3c3.2-0.4,6.6-1.2,8.8-1.9c1.1,0.3,1.8,0.3,2.2-0.1l-4.4-3.5c-1.4,1.3-4,3-6.4,4.3l-4.3-1.3v10.6
			c-1.3-1.3-3.3-3-3.3-3l-1.9,2.7h-2c1.5-1.5,3.1-3.4,4-4.7c0.8,0.1,1.2-0.2,1.3-0.6l-4.5-1.4h5c0.5,0,0.9-0.2,1-0.6
			c-1.3-1.3-3.5-3-3.5-3l-1.9,2.6h-2.4c2-0.8,2.3-4.6-4.2-5.5l-0.3,0.2c0.9,1.2,1.8,3.1,1.9,4.8c0.3,0.2,0.6,0.4,0.9,0.5h-7.9l0.3,1
			h2.4l-0.2,0.1c0.6,1.6,1.4,3.9,1.3,5.9c2.7,2.8,6.5-2.7-0.8-6h8c-0.3,2-0.9,4.7-1.5,6.8h-10.2l0.3,1h6.7v4.2h-6.4l0.3,1h6.1v2.3
			L408.6,66.2z M473.5,56.4l-5.3-1.2c-0.4,4.5-1.5,9.2-3,12.3l0.5,0.3c1.9-1.5,3.5-3.6,4.7-6.2c1,1.7,2.1,3.8,2.3,5.6
			c3.1,2.6,6.2-3.5-1.8-6.6c0.5-1,0.9-2.2,1.3-3.5C473,57.2,473.4,56.9,473.5,56.4z M458.4,56.1l-5-1c-0.3,5-1.4,10.1-3,13.7
			l0.5,0.3c2.1-1.8,3.6-4.4,4.8-7.5c0.6,1.4,1.2,3.1,1.1,4.6c2.7,2.6,6.2-2.6-0.7-5.8c0.4-1.1,0.7-2.2,1-3.5
			C457.9,56.9,458.3,56.6,458.4,56.1z M450.5,61.2v-8h25.8c0.5,0,0.9-0.2,1-0.6c-1.5-1.4-4-3.5-4-3.5l-2.2,3h-7.4
			c2.2-1.2,2.1-5.6-5.8-6.2l-0.3,0.2c1.3,1.4,2.8,3.7,3.3,5.7c0.2,0.1,0.4,0.2,0.5,0.3h-10.3l-4.9-1.8v10.8c0,6.2-0.2,13.1-3.2,18.5
			l0.4,0.3C450.1,74.9,450.5,67.2,450.5,61.2z M477.6,78c-1.5-1.5-4.2-3.6-4.2-3.6l-2.3,3.1h-6.3v-6.2h8.7c0.5,0,0.9-0.2,1-0.6
			c-1.5-1.4-3.9-3.2-3.9-3.2l-2.1,2.8h-3.7V54.9c0.8-0.1,1.1-0.5,1.2-0.9l-5.4-0.5v16.8h-9.3l0.3,1h9v6.2h-12.5l0.3,1h28.1
			C477.1,78.5,477.5,78.4,477.6,78z M507.6,70.6l-0.3,0.3c1.6,1.7,3.4,4.3,4,6.6C514.9,80,517.9,72.6,507.6,70.6z M486.4,79.9
			c1.5,0,3.2-0.8,3.2-1.2V61.6c0.7,1.4,1.4,3.3,1.4,5c2.8,2.7,6.4-3-1.4-6V56h4.3c0.1,0,0.2,0,0.3,0v6.6h0.6c1.9,0,3-0.6,3-0.9v-1.2
			h11.9v1.2l-0.5-0.4l-2,2.4h-11.8l0.3,1h16.2c0.5,0,0.9-0.2,1-0.6c-0.9-0.8-2.3-1.8-3.1-2.4h0.5c1.8,0,3.1-0.6,3.1-0.8v-6.7
			c0.8-0.1,1.1-0.3,1.3-0.6l-3.4-2.6l-1.7,2h-1.9v-3.4h6.4c0.5,0,0.9-0.2,1-0.6c-1.4-1.3-3.7-3-3.7-3l-2.1,2.6h-16.2l0.3,1h6.4v3.4
			h-1.6l-4-1.5v3.3c-1.1-1.2-2.6-2.4-2.6-2.4l-1.8,2.7h-0.3v-7.3c1-0.1,1.2-0.5,1.3-1l-5.3-0.5V55H481l0.3,1h4
			c-0.7,5.3-1.9,10.8-4.3,15l0.5,0.4c1.6-1.6,3-3.4,4.2-5.3v13.8H486.4z M507.8,54.1h2v5.4h-2V54.1z M502.8,49.6h2.1v3.4h-2.1V49.6z
			 M502.8,54.1h2.1v5.4h-2.1V54.1z M497.9,54.1h2v5.4h-2V54.1z M499.7,72.8c0.8,0.1,1.2-0.1,1.3-0.4l-4.4-2.3
			c-0.9,2.3-3,5.8-5.3,7.9l0.3,0.4C494.9,77,497.9,74.8,499.7,72.8z M515.2,68.7c-1.4-1.2-3.6-3-3.6-3l-1.9,2.6h-16.5l0.3,1h8.7v6.2
			c0,0.4-0.1,0.6-0.7,0.6c-0.7,0-3.9-0.2-3.9-0.2v0.5c1.7,0.2,2.4,0.6,2.8,1.2c0.5,0.5,0.6,1.3,0.6,2.4c4.4-0.3,5-1.8,5-4.3v-6.3
			h8.2C514.7,69.3,515.1,69.1,515.2,68.7z"/>
	</g>
</g>
<g>
	<g>
		<g>
			<path class="st1" d="M167.6,212h-90c-6.9,0-12.5,5.6-12.5,12.5c0,6.9,5.6,12.5,12.5,12.5h90c6.9,0,12.5-5.6,12.5-12.5
				C180.1,217.6,174.5,212,167.6,212z"/>
		</g>
	</g>
	<g>
		<path class="st0" d="M108.4,217.8V217h-4.8l-4.3,11.3L94.8,217h-4.9v0.7L92,218l-0.1,12.9l-2.1,0.2v0.7H95v-0.7l-2.1-0.2v-6.4
			c0-0.8,0-3.5-0.1-5.5l5,12.8h1l4.9-12.9l0,6.3c0,1.7,0,3.7-0.1,5.7l-1.8,0.2v0.7h6.6v-0.7l-1.9-0.2c0-2,0-4,0-6v-1c0-2,0-4,0-6
			L108.4,217.8z"/>
		<path class="st0" d="M114.2,224.5c0-3.8,1.2-7,3.9-7c2.7,0,3.9,3.1,3.9,7c0,3.9-1.3,7-3.9,7C115.4,231.4,114.2,228.4,114.2,224.5z
			 M118.1,216.7c-3.6,0-6.9,2.8-6.9,7.8c0,5.1,3.3,7.8,6.9,7.8c3.6,0,6.9-2.8,6.9-7.8C125,219.4,121.8,216.7,118.1,216.7z"/>
		<path class="st0" d="M132.6,224.2c0-2.3,0-4.3,0.1-6.3h1.5c2.1,0,3.2,1.1,3.2,3c0,1.9-1,3.3-3.3,3.3H132.6z M140,231l-0.8-3.4
			c-0.4-1.9-1.1-2.8-3.3-3.1c2.9-0.5,4.1-2,4.1-3.7c0-2.4-1.9-3.8-5.3-3.8h-6.8v0.7l1.9,0.2c0,2,0,4,0,6v1c0,2,0,4.1,0,6l-1.9,0.2
			v0.7h6.7v-0.7l-1.9-0.2c-0.1-2-0.1-4-0.1-6.1h1.1c1.7,0,2.2,0.7,2.6,2.3l0.7,3.1c0.2,1.4,1.1,1.8,2.7,1.8c0.9,0,1.4-0.1,2.1-0.3
			v-0.7L140,231z"/>
		<path class="st0" d="M154.4,227.9l-0.8,3.2h-5c-0.1-2-0.1-4.1-0.1-6.4h3l0.3,2.1h0.9v-5h-0.9l-0.3,2.2h-3c0-2.1,0-4.1,0.1-6.1h4.6
			l0.8,3.1h1.1l0-3.9h-11.2v0.7l1.9,0.2c0,2,0,4,0,6v1c0,2,0,4.1,0,6l-1.9,0.2v0.7h11.6l0.1-4H154.4z"/>
	</g>
</g>
</svg>
