<?xml version="1.0" encoding="utf-8"?>
<!-- Generator: Adobe Illustrator 27.0.0, SVG Export Plug-In . SVG Version: 6.00 Build 0)  -->
<svg version="1.1" id="feature_version1_image.svg" xmlns="http://www.w3.org/2000/svg" xmlns:xlink="http://www.w3.org/1999/xlink"
	 x="0px" y="0px" viewBox="0 0 576 576" style="enable-background:new 0 0 576 576;" xml:space="preserve">
<style type="text/css">
	.st0{enable-background:new    ;}
	.st1{fill:#C9A063;}
	.st2{fill:url(#SVGID_1_);}
	.st3{fill:url(#SVGID_00000013908163898648051720000003445427671200531371_);}
</style>
<g>
	<g class="st0">
		<path class="st1" d="M110.3,241.4c-0.4,0.4-0.8,0.6-1.8,0.7c-0.6,7.5-1.9,11.5-4.1,13c-1.4,1-3.1,1.4-5.3,1.4
			c0-1.3-0.1-2.5-0.7-3.1c-0.6-0.7-1.8-1.2-3.3-1.6v-0.6c1.4,0.1,3.8,0.4,4.7,0.4c0.7,0,1.1-0.1,1.4-0.4c1.1-0.8,2-4.2,2.5-9.8H78.5
			c-2.6,2.6-5.7,5-9.2,7.1l-0.5-0.4c6.7-5.5,11.5-13.3,14.7-20.9H72.4l-0.4-1.2h12.1c1.3-3.5,2.4-6.8,3.1-10l6.6,2
			c-0.1,0.5-0.6,0.8-1.7,0.8c-0.7,2.3-1.7,4.8-2.9,7.2h6.1l1.8-2l4.2,3.2c-0.4,0.4-0.7,0.5-1.6,0.6l-1.2,5.3h0.7l1.8-2l4.2,3.1
			c-0.4,0.4-0.7,0.5-1.4,0.6l-1.1,5.5h0.6l2.4-2.3L110.3,241.4z M77.5,244c2.4,5.6,0.6,9.6-1.7,10.8c-1.6,1-3.5,0.5-4.1-1.1
			c-0.5-1.6,0.5-2.6,1.7-3.3c1.8-1,3.6-3.3,3.5-6.3H77.5z M75.3,216.5c12,1.8,7.7,10.8,3.1,7.4c-0.4-2.5-1.8-5.4-3.3-7.2L75.3,216.5
			z M84.6,234.1c-1.4,2-3,4.2-4.8,6h18.7l1.2-6H84.6z M82.2,244c8.2,5.9,2.4,12.8-0.7,8.5c0.7-2.7,0.7-6,0.2-8.4L82.2,244z
			 M88.6,227c-1,2-2,3.9-3.2,5.9h8.7l1.3-5.9H88.6z M87.6,243.6c10.2,3,5.7,10.6,1.9,7.2c0-2.4-1.2-5.1-2.4-7.1L87.6,243.6z
			 M93.5,242.8c10.2,0.4,7.2,8,3.2,5.7c-0.5-1.9-2-4.2-3.6-5.4L93.5,242.8z"/>
		<path class="st1" d="M134.9,217.4c-0.1,0.6-0.5,1.1-1.6,1.2c1,16.6,4.9,26.5,19.7,32l-0.1,0.5c-2.6,0.5-4.2,2.3-4.8,5
			c-10.9-5.7-14.1-15.9-15.2-29.6c-0.7,11.1-3.8,22.1-20.1,29.8l-0.5-0.6c15.8-11.5,15.3-25.3,15.4-39.1L134.9,217.4z"/>
		<path class="st1" d="M196.4,241.4c-0.4,0.4-0.8,0.6-1.8,0.7c-0.6,7.5-1.9,11.5-4.1,13c-1.4,1-3.1,1.4-5.3,1.4
			c0-1.3-0.1-2.5-0.7-3.1c-0.6-0.7-1.8-1.2-3.3-1.6v-0.6c1.4,0.1,3.8,0.4,4.7,0.4c0.7,0,1.1-0.1,1.4-0.4c1.1-0.8,2-4.2,2.5-9.8
			h-25.2c-2.6,2.6-5.7,5-9.2,7.1l-0.5-0.4c6.7-5.5,11.5-13.3,14.7-20.9h-11.1l-0.4-1.2h12.1c1.3-3.5,2.4-6.8,3.1-10l6.6,2
			c-0.1,0.5-0.6,0.8-1.7,0.8c-0.7,2.3-1.7,4.8-2.9,7.2h6.1l1.8-2l4.2,3.2c-0.4,0.4-0.7,0.5-1.6,0.6l-1.2,5.3h0.7l1.8-2l4.2,3.1
			c-0.4,0.4-0.7,0.5-1.4,0.6l-1.1,5.5h0.6l2.4-2.3L196.4,241.4z M163.6,244c2.4,5.6,0.6,9.6-1.7,10.8c-1.6,1-3.5,0.5-4.1-1.1
			c-0.5-1.6,0.5-2.6,1.7-3.3c1.8-1,3.6-3.3,3.5-6.3H163.6z M161.3,216.5c12,1.8,7.7,10.8,3.1,7.4c-0.4-2.5-1.8-5.4-3.3-7.2
			L161.3,216.5z M170.7,234.1c-1.4,2-3,4.2-4.8,6h18.7l1.2-6H170.7z M168.3,244c8.2,5.9,2.4,12.8-0.7,8.5c0.7-2.7,0.7-6,0.2-8.4
			L168.3,244z M174.7,227c-1,2-2,3.9-3.2,5.9h8.7l1.3-5.9H174.7z M173.6,243.6c10.2,3,5.7,10.6,1.9,7.2c0-2.4-1.2-5.1-2.4-7.1
			L173.6,243.6z M179.6,242.8c10.2,0.4,7.2,8,3.2,5.7c-0.5-1.9-2-4.2-3.6-5.4L179.6,242.8z"/>
		<path class="st1" d="M235.8,234.3c-0.4,0.4-0.7,0.6-1.7,0.2c-2.6,1.1-6.1,2.4-9.9,3.3c2.7,5.9,8.5,9.1,14.5,10.9l-0.1,0.5
			c-1.9,0.4-3.3,1.9-4.1,4.3c-5.5-3.3-9.2-7.9-11.2-15.4c-1,0.2-1.8,0.5-2.7,0.6c3.3,6.1,3,13,0.7,15.8c-1.1,1.4-3.2,1.9-6.3,1.8
			c0-1.4-0.4-2.4-1.1-3.1c-0.6-0.6-1.9-1.2-3.6-1.6v-0.5c1.8,0.1,4.7,0.4,5.7,0.4c0.6,0,1.1-0.1,1.2-0.5c0.6-1,1-2.7,1.1-4.9
			c-5.1,3.3-12.1,6.1-19,7.5l-0.4-0.6c7.2-2.6,14.5-7.7,18.5-13c-0.1-0.4-0.1-0.7-0.4-1.1c-4.4,2.9-10.8,5.7-16.9,7.4l-0.2-0.6
			c5.5-2.6,11.6-7.4,14.9-11.7l-0.4-0.5c-3.9,2.3-9,4.2-14,5.5l-0.4-0.5c5.1-2.3,9.9-6,13.2-9.2h-8.2l-0.4-1.2h20.6l2.6-3.3
			c0,0,1.7,1.3,3.2,2.6c0.1-1.2,0.4-2.9,0.5-4.2h-26.8c0.2,3-0.8,5.1-2.3,6.1c-1.3,0.8-3.3,0.5-3.9-1.1c-0.5-1.6,0.5-2.6,1.7-3.3
			c1.6-0.8,3.2-3,3.1-5.4h0.6c0.4,0.8,0.6,1.7,0.7,2.4h12.9c-0.2-0.1-0.5-0.2-0.7-0.4c-0.2-1.9-1.6-4.1-3-5.1l0.4-0.2
			c8.7-0.5,8.5,4.7,5.7,5.7h11.5l2.5-2.6l4.4,4.3c-0.4,0.4-0.7,0.5-1.7,0.5c-1.2,1.2-3.3,2.7-5,3.7c0.4,0.4,0.7,0.6,1.1,1
			c-0.1,0.5-0.6,0.7-1.2,0.7h-11c-1.3,1.3-3,2.5-4.9,3.7c1.8,1.4,3.2,3.1,4.3,4.8c3.9-2.3,8.2-5.6,10.5-7.8L235.8,234.3z"/>
		<path class="st1" d="M246,253c-1.6-1-2.2-2.2-2.2-3.3c0-1.9,1.4-3.3,3.3-3.3c1.1,0,2,0.4,3,1.2c0.5,1.2,0.6,2.2,0.6,3.5
			c0,5.9-4.5,10.2-8.7,11.7l-0.6-1.2c3.5-1.8,5.5-3.8,6.5-7.2L246,253z"/>
		<path class="st1" d="M295.4,251c1.1,0.6,1.3,1.1,1.3,2c0,1.8-1.6,2.9-5.4,2.9h-1.9c-3.2,0-3.6-1.1-3.6-3.9v-19.6h-6.9v5l0.2-0.1
			c10.6,3.7,6.2,11.4,2.5,8c-0.1-2.5-1.4-5.5-2.7-7.5v1.6c0,6.3-1.7,13.4-15.7,17.2l-0.4-0.5c9.7-4.5,11.4-10.3,11.4-16.7v-9.8
			l-0.7,0.5l-0.5-0.4c1.2-1.7,2.3-3.9,3.3-6.3c-0.2,0.1-0.5,0.1-0.8,0.1h-8.2c4.9,2,4.3,5.5,2.2,6.3c0.7,0.6,2.6,2.2,3.8,3.3
			c-0.1,0.5-0.6,0.7-1.1,0.7h-5.4v10.4c1.9-0.5,3.9-1,6-1.6l0.1,0.5c-2.9,1.8-7.2,4.4-13.5,7.7c-0.1,0.5-0.6,1-1.1,1.1l-2.9-5.3
			c1.4-0.2,3.7-0.7,6.5-1.4v-11.5H257l-0.4-1.2h9.9l2-2.6c-0.6,0-1.3-0.2-2-0.7c0-2-1-4.1-1.9-5.6H264c-2.4,3.2-5.1,5.9-8.1,7.8
			l-0.5-0.4c2.6-3.5,5.3-9,6.7-14.6l6.2,2.2c-0.1,0.5-0.7,0.8-1.7,0.8c-0.6,1.1-1.2,2-1.8,3h5.4l2.2-3c0,0,2.4,2,3.9,3.5
			c0.8-2,1.6-4.3,2-6.5l6.5,2.2c-0.1,0.6-0.7,1-1.7,0.8c-0.6,1.1-1.2,2-1.8,2.9h7.7l2.5-3.2c0,0,2.9,2.2,4.5,3.7
			c-0.1,0.5-0.6,0.7-1.2,0.7h-9.2c3.9,1.6,3.8,4.5,2.3,5.7l3.8,3.2c-0.2,0.4-0.7,0.6-1.6,0.7v17.7c0,0.5,0.1,0.7,0.6,0.7h0.7
			c0.2,0,0.5,0,0.7,0c0.2,0,0.5-0.1,0.7-0.5c0.4-0.7,1-3.1,1.6-5.3h0.5L295.4,251z M285.2,231.1l1.6-1.7c-0.6,0-1.2-0.2-1.8-0.7
			c-0.1-1.9-1.3-3.9-2.5-5.4h-1.8c-1.9,2.5-4.1,4.4-6.3,6l5.1,1.8H285.2z"/>
		<path class="st1" d="M321.4,240.5c-0.5,2.9-1.3,5.6-3.2,7.9c5.7,2.2,13.2,2.7,20.8,2.7v0.6c-2.2,0.7-3.3,2.3-3.7,4.8
			c-7.9-0.8-14.5-2.4-19.5-5.9c-3.3,2.6-8.5,4.7-16.4,6l-0.2-0.5c6.9-2.3,11.2-4.7,13.7-7.8c-1.6-1.6-2.9-3.3-3.8-5.5l0.5-0.5
			c1.2,1.7,2.7,3.1,4.7,4.2c1.1-1.8,1.7-3.8,2-6.1h-6.6v1.1c0,0.5-2.2,1.6-4.3,1.6h-0.7v-19.2l5.3,2h6.6v-4.8h-16.3l-0.4-1.2h30
			l3-3.7c0,0,3.3,2.5,5.4,4.2c-0.1,0.5-0.6,0.7-1.2,0.7h-15.5v4.8h6.7l2.3-2.5l4.9,3.7c-0.2,0.4-0.7,0.7-1.7,1v13.5
			c0,0.4-2.6,1.2-4.2,1.2h-0.8v-2.5h-7.3V240.5z M309.7,227.4v5.3h6.8v-5.3H309.7z M316.4,239.3c0.1-1.1,0.1-2.2,0.1-3.3v-2h-6.8
			v5.5h6.7V239.3z M328.7,239.3v-5.5h-7.1v1.9c0,1.2,0,2.4-0.1,3.6H328.7z M321.7,227.4v5.3h7.1v-5.3H321.7z"/>
		<path class="st1" d="M361.2,227.7c-0.4,0.5-0.7,0.6-1.7,0.7c-0.7,5.6-1.8,11.1-4.4,15.9c8.8,5.4,4.4,10.2,1,8
			c-0.8-1.4-2-2.9-3.3-4.3c-2.5,3.3-6,6.1-10.9,8.4l-0.5-0.5c3.9-2.7,6.8-6.3,8.8-10.3c-2.3-2-4.8-3.8-7.1-5.3
			c1.1-3.1,2.4-8,3.6-12.8h-4.7l-0.4-1.2h5.4c1-4.2,1.8-8.1,2.2-10.4l6.3,1.2c-0.1,0.5-0.5,1-1.7,1.1c-0.5,2-1.2,5-2,8.1h2.5
			l2.5-2.6L361.2,227.7z M351.4,227.6c-1.1,4.4-2.5,9.4-3.8,13.3c1.6,0.6,2.9,1.1,3.9,1.7c1.8-4.5,2.6-9.7,3.1-14.9H351.4z
			 M378.2,231.8c0,0,3,2.4,4.8,4.1c-0.1,0.5-0.6,0.7-1.2,0.7h-9.7v14.1c0,3.5-0.7,5.4-6.5,6c-0.1-1.6-0.4-2.7-1-3.6
			c-0.7-0.7-1.6-1.3-3.7-1.7v-0.6c0,0,4.3,0.4,5.3,0.4c0.7,0,1-0.2,1-0.7v-13.7h-8.1l-0.4-1.2h8.5v-7.2l3.1,0.4
			c1.4-2.2,3.1-5,4.2-7.1h-15.3l-0.4-1.2h15.8l2.7-2.7l4.7,4.2c-0.4,0.4-0.8,0.5-1.8,0.5c-2.3,1.8-5.5,4.4-8.5,6.5l2,0.1
			c-0.1,0.6-0.5,1-1.6,1.1v5.5h3.5L378.2,231.8z"/>
		<path class="st1" d="M404.5,225.6c-0.4,0.4-1,0.7-1.8,1v25.7c0,0.4-2.3,1.4-3.9,1.4H398v-3.3h-6.6v3.2c0,0.6-1.8,1.7-3.8,1.7h-0.8
			v-32.5l4.8,2h0.2c0.4-2.4,0.7-5.7,1-8.1l6.9,1.7c-0.1,0.7-0.7,1.1-1.8,1.1c-1.1,1.6-2.7,3.7-4.2,5.4h3.7l2.3-2.6L404.5,225.6z
			 M391.5,225.7v10.6h6.6v-10.6H391.5z M397.9,248.9v-11.4h-6.6v11.4H397.9z M425.5,225.6c-0.4,0.4-1,0.7-1.9,0.8
			c-0.4,17.3-1,25.2-3.2,27.7c-1.6,1.7-3.5,2.3-6.3,2.3c0-1.7-0.2-2.9-1-3.6c-0.7-0.8-2.5-1.6-4.5-1.9v-0.6c2,0.1,5,0.4,6.1,0.4
			c0.7,0,1.2-0.1,1.6-0.6c1.6-1.4,2-10,2.3-24.7h-8c-2,3.7-4.5,6.7-7.3,9.1l-0.6-0.4c2.4-4.4,4.7-11.4,5.9-17.9l6.8,2
			c-0.1,0.6-0.7,0.8-1.7,0.8c-0.7,1.8-1.6,3.6-2.4,5.3h6.8l2.7-2.7L425.5,225.6z M406.5,233.1c12.6,3.7,7.9,13,3.3,9.2
			c-0.2-3.1-1.9-6.6-3.7-9L406.5,233.1z"/>
		<path class="st1" d="M434.5,242.8v4.3c0,0.4-1.4,1.6-3.8,1.6h-0.8V218l5.3,2h4.4l2.3-2.5l4.7,3.7c-0.4,0.4-1,0.7-1.8,1v22.7
			c0,0.4-2.3,1.6-3.9,1.6H440v-3.7H434.5z M434.5,221.4v9.3h5.5v-9.3H434.5z M439.9,241.5v-9.6h-5.5v9.6H439.9z M468.1,220.4
			c-0.4,0.4-1,0.7-1.8,0.8v29.3c0,3.3-0.7,5.4-6.7,5.9c-0.1-1.6-0.5-2.7-1.2-3.5c-0.8-0.7-2-1.3-4.4-1.7v-0.6c0,0,5.5,0.4,6.6,0.4
			c0.8,0,1.1-0.2,1.1-1v-9.8H453c-1.1,6.3-4.2,12.3-13.3,16.3l-0.4-0.4c8.1-6.2,9.3-14,9.3-23v-15.8l5.5,2h7.1l2.2-2.6L468.1,220.4z
			 M461.5,239v-8.6h-8.1v2.7c0,1.9-0.1,3.9-0.4,5.9H461.5z M453.4,220.6v8.5h8.1v-8.5H453.4z"/>
		<path class="st1" d="M507.2,221.9c-0.4,0.4-0.8,0.7-1.7,1v31.4c0,0.4-2.6,1.7-4.7,1.7H500V252h-17v2.3c0,0.7-2.2,2-4.4,2h-1v-37.9
			l5.7,2.3h16.3l2.6-2.9L507.2,221.9z M482.9,222v13.5h17V222H482.9z M499.9,250.8v-14.1h-17v14.1H499.9z"/>
	</g>
	<g class="st0">
		<path class="st1" d="M17,274.2c-0.1,4.3-0.1,8.7-0.1,13.2v2.2c0,4.3,0,8.6,0.1,13l4.7,0.4v1.6H6.2v-1.6l4.7-0.4c0-4.3,0-8.6,0-13
			v-2.2c0-4.3,0-8.7,0-13.2H4.2l-1.8,7.1H0l0.4-9h27.4l0.2,9h-2.4l-1.8-7.1H17z"/>
		<path class="st1" d="M60,274.4c0,4.3,0,8.6,0,13v2.2c0,4.3,0,8.7,0,13l4.1,0.4v1.6H50v-1.6l3.9-0.4c0.1-4.3,0.1-8.6,0.1-13.6H40.9
			c0,4.9,0,9.3,0.1,13.6l3.9,0.4v1.6H30.7v-1.6l4.1-0.4c0-4.3,0-8.6,0-13v-2.2c0-4.3,0-8.6,0-12.9l-4.1-0.5v-1.6h14.1v1.6l-3.9,0.4
			c-0.1,4.2-0.1,8.5-0.1,12.8h13.2c0-4.3,0-8.6-0.1-12.8l-3.9-0.4v-1.6H64v1.6L60,274.4z"/>
		<path class="st1" d="M93.1,295.6l-0.1,8.6H68v-1.6l4.1-0.4c0.1-4.3,0.1-8.6,0.1-13v-2.2c0-4.3,0-8.6-0.1-13l-4.1-0.4v-1.6h24v8.5
			h-2.3l-1.7-6.6h-9.8c-0.1,4.2-0.1,8.5-0.1,13h6.5l0.6-4.7h2v10.9h-2l-0.6-4.5h-6.5c0,4.9,0,9.3,0.1,13.6h10.8l1.7-6.9h2.4V295.6z"
			/>
		<path class="st1" d="M121.9,272.4c7.7,0,10.9,3.2,10.9,7.5c0,3.2-2.2,6.2-8.2,7.4c7.2,0.8,10,3.8,10,8.1s-3.2,8.7-13.6,8.7h-13.3
			v-1.6l4.1-0.4c0.1-4.4,0.1-8.8,0.1-13.4v-1.8c0-4.3,0-8.6-0.1-12.9l-4.1-0.4v-1.6h14.2V272.4z M117.8,274.1
			c-0.1,4.2-0.1,8.5-0.1,12.8h2c4.9,0,7.3-2.4,7.3-6.7c0-3.9-2-6.1-6.7-6.1L117.8,274.1L117.8,274.1z M120.5,302.7c5,0,8-2.5,8-7.1
			c0-4.8-2.6-7.1-8.4-7.1h-2.4c0,5,0,9.7,0.1,14.1L120.5,302.7L120.5,302.7z"/>
		<path class="st1" d="M162.2,295.6l-0.1,8.6h-24.9v-1.6l4.1-0.4c0.1-4.3,0.1-8.6,0.1-13v-2.2c0-4.3,0-8.6-0.1-13l-4.1-0.4v-1.6h24
			v8.5H159l-1.7-6.6h-9.8c-0.1,4.2-0.1,8.5-0.1,13h6.5l0.6-4.7h2v10.9h-2l-0.6-4.5h-6.5c0,4.9,0,9.3,0.1,13.6h10.8l1.7-6.9h2.3
			V295.6z"/>
		<path class="st1" d="M182.1,274.2c-0.1,4.3-0.1,8.7-0.1,13.2v2.2c0,4.3,0,8.6,0.1,13l4.7,0.4v1.6h-15.3v-1.6l4.7-0.4
			c0-4.3,0-8.6,0-13v-2.2c0-4.3,0-8.7,0-13.2h-6.9l-1.8,7.1H165l0.4-9h27.4l0.2,9h-2.4l-1.8-7.1H182.1z"/>
		<path class="st1" d="M212.1,274.2c-0.1,4.3-0.1,8.7-0.1,13.2v2.2c0,4.3,0,8.6,0.1,13l4.7,0.4v1.6h-15.4v-1.6l4.7-0.4
			c0-4.3,0-8.6,0-13v-2.2c0-4.3,0-8.7,0-13.2h-6.7l-1.8,7.1h-2.4l0.4-9h27.4l0.2,9h-2.4l-1.8-7.1H212.1z"/>
		<path class="st1" d="M250.9,295.6l-0.1,8.6H226v-1.6l4.1-0.4c0.1-4.3,0.1-8.6,0.1-13v-2.2c0-4.3,0-8.6-0.1-13l-4.1-0.4v-1.6h24
			v8.5h-2.3l-1.7-6.6h-9.8c-0.1,4.2-0.1,8.5-0.1,13h6.5l0.6-4.7h2v10.9h-2l-0.6-4.5h-6.5c0,4.9,0,9.3,0.1,13.6H247l1.7-6.9h2.3
			V295.6z"/>
		<path class="st1" d="M284.4,302.8v1.6c-1.4,0.4-2.6,0.6-4.4,0.6c-3.5,0-5.4-1-5.9-3.9l-1.6-6.6c-0.7-3.6-1.9-5-5.5-5h-2.4
			c0,4.5,0,8.8,0.1,13.2l4.2,0.4v1.6h-14.3v-1.6l4.1-0.4c0.1-4.3,0.1-8.6,0.1-13v-2.2c0-4.3,0-8.6-0.1-13l-4.1-0.4v-1.6h14.6
			c7.4,0,11.5,3.1,11.5,8.1c0,3.7-2.5,6.9-8.8,8c4.7,0.6,6.1,2.7,7.1,6.8l1.8,7.2L284.4,302.8z M267.9,287.7c4.9,0,7.1-3.1,7.1-7.1
			c0-4.2-2.3-6.6-6.9-6.6h-3.2c-0.1,4.3-0.1,8.7-0.1,13.6H267.9z"/>
		<path class="st1" d="M313.7,274.2c-0.1,4.3-0.1,8.7-0.1,13.2v2.2c0,4.3,0,8.6,0.1,13l4.7,0.4v1.6h-15.3v-1.6l4.7-0.4
			c0-4.3,0-8.6,0-13v-2.2c0-4.3,0-8.7,0-13.2H301l-1.8,7.1h-2.4l0.4-9h27.4l0.2,9h-2.4l-1.8-7.1H313.7z"/>
		<path class="st1" d="M356.7,288.3c0,10.8-7.1,16.7-14.8,16.7c-7.8,0-14.9-5.9-14.9-16.7c0-10.8,7.1-16.7,14.9-16.7
			C349.7,271.6,356.7,277.5,356.7,288.3z M341.8,303.4c5.7,0,8.5-6.6,8.5-15.1c0-8.2-2.7-14.9-8.5-14.9c-5.7,0-8.5,6.7-8.5,14.9
			C333.4,296.7,336.1,303.4,341.8,303.4z"/>
		<path class="st1" d="M395.1,274.4c0,4.3,0,8.7,0,13v2.2c0,4.3,0,8.7,0,13l4.2,0.4v1.6h-14.2v-1.6l3.9-0.4c0.1-4.3,0-8.6,0.1-12.3
			l0.1-13.5l-10.5,27.7h-2.2l-10.8-27.6c0.1,4.3,0.2,10,0.2,11.8v13.7l4.5,0.5v1.6h-11.2v-1.6l4.5-0.5l0.1-27.9l-4.5-0.6v-1.6H370
			l9.6,24.3l9.3-24.3h10.3v1.6L395.1,274.4z"/>
		<path class="st1" d="M432.2,288.3c0,10.8-7.1,16.7-14.8,16.7c-7.9,0-14.9-5.9-14.9-16.7c0-10.8,7.1-16.7,14.9-16.7
			C425.1,271.6,432.2,277.5,432.2,288.3z M417.4,303.4c5.7,0,8.5-6.6,8.5-15.1c0-8.2-2.7-14.9-8.5-14.9c-5.7,0-8.5,6.7-8.5,14.9
			C408.9,296.7,411.6,303.4,417.4,303.4z"/>
		<path class="st1" d="M465.2,302.8v1.6c-1.4,0.4-2.6,0.6-4.4,0.6c-3.5,0-5.4-1-5.9-3.9l-1.6-6.6c-0.7-3.6-1.9-5-5.5-5h-2.4
			c0,4.5,0,8.8,0.1,13.2l4.2,0.4v1.6h-14.3v-1.6l4.1-0.4c0.1-4.3,0.1-8.6,0.1-13v-2.2c0-4.3,0-8.6-0.1-13l-4.1-0.4v-1.6H450
			c7.4,0,11.5,3.1,11.5,8.1c0,3.7-2.5,6.9-8.8,8c4.7,0.6,6.1,2.7,7.1,6.8l1.8,7.2L465.2,302.8z M448.7,287.7c4.9,0,7.1-3.1,7.1-7.1
			c0-4.2-2.3-6.6-6.9-6.6h-3.1c-0.1,4.3-0.1,8.7-0.1,13.6H448.7z"/>
		<path class="st1" d="M497.3,302.8v1.6c-1.4,0.4-2.6,0.6-4.4,0.6c-3.5,0-5.4-1-5.9-3.9l-1.6-6.6c-0.7-3.6-1.9-5-5.5-5h-2.4
			c0,4.5,0,8.8,0.1,13.2l4.2,0.4v1.6h-14.3v-1.6l4.1-0.4c0.1-4.3,0.1-8.6,0.1-13v-2.2c0-4.3,0-8.6-0.1-13l-4.1-0.4v-1.6h14.6
			c7.4,0,11.5,3.1,11.5,8.1c0,3.7-2.5,6.9-8.8,8c4.7,0.6,6.1,2.7,7.1,6.8l1.8,7.2L497.3,302.8z M480.8,287.7c4.9,0,7.1-3.1,7.1-7.1
			c0-4.2-2.3-6.6-6.9-6.6h-3.1c-0.1,4.3-0.1,8.7-0.1,13.6H480.8z"/>
		<path class="st1" d="M528.7,288.3c0,10.8-7.1,16.7-14.8,16.7c-7.8,0-14.9-5.9-14.9-16.7c0-10.8,7.1-16.7,14.9-16.7
			C521.6,271.6,528.7,277.5,528.7,288.3z M513.8,303.4c5.7,0,8.5-6.6,8.5-15.1c0-8.2-2.7-14.9-8.5-14.9c-5.7,0-8.5,6.7-8.5,14.9
			C505.3,296.7,508.1,303.4,513.8,303.4z"/>
		<path class="st1" d="M576,274l-4.1,0.6l-8.4,30h-3.1l-7.7-24.6l-7.4,24.6h-3.1l-8.7-30.2l-3.3-0.4v-1.6H544v1.6l-4.2,0.5l6,23
			l6.8-22.8l-4.3-0.5v-1.6h13.4v1.6l-4.7,0.5l6.7,23.1l6-23l-4.2-0.6v-1.6h10.4v1.4H576z"/>
	</g>
	<polygon class="st1" points="299.4,349.2 297.6,349.2 288.5,345.1 279.5,349.2 218.1,349.2 218.1,351.1 280.6,351.1 288.5,354.7 
		296.5,351.1 357.9,351.1 357.9,349.2 	"/>
	<g>
		
			<linearGradient id="SVGID_1_" gradientUnits="userSpaceOnUse" x1="243.4352" y1="372.7355" x2="302.609" y2="446.5436" gradientTransform="matrix(1 0 0 -1 0 532.6202)">
			<stop  offset="0" style="stop-color:#C9C59B"/>
			<stop  offset="3.822083e-02" style="stop-color:#C8C194"/>
			<stop  offset="9.205237e-02" style="stop-color:#C5B482"/>
			<stop  offset="0.1548" style="stop-color:#C0A064"/>
			<stop  offset="0.2143" style="stop-color:#BB8941"/>
			<stop  offset="0.2531" style="stop-color:#BD8D48"/>
			<stop  offset="0.3077" style="stop-color:#C4995A"/>
			<stop  offset="0.3717" style="stop-color:#CFAC78"/>
			<stop  offset="0.4424" style="stop-color:#DFC6A2"/>
			<stop  offset="0.4565" style="stop-color:#E2CCAB"/>
			<stop  offset="0.5232" style="stop-color:#E6D3B1"/>
			<stop  offset="0.6169" style="stop-color:#F1E5C2"/>
			<stop  offset="0.6795" style="stop-color:#FAF5D1"/>
			<stop  offset="0.7154" style="stop-color:#F3E9C2"/>
			<stop  offset="0.8465" style="stop-color:#DBC18E"/>
			<stop  offset="0.9454" style="stop-color:#CDA86E"/>
			<stop  offset="1" style="stop-color:#C79F62"/>
		</linearGradient>
		<path class="st2" d="M239.8,164.5c-0.1,0.1-0.2,0.1-0.2,0.1C239.7,164.6,239.8,164.5,239.8,164.5z"/>
		
			<linearGradient id="SVGID_00000072277109718717574240000005274461438166685885_" gradientUnits="userSpaceOnUse" x1="254.8641" y1="363.5706" x2="314.0204" y2="437.3569" gradientTransform="matrix(1 0 0 -1 0 532.6202)">
			<stop  offset="0" style="stop-color:#C9C59B"/>
			<stop  offset="3.822083e-02" style="stop-color:#C8C194"/>
			<stop  offset="9.205237e-02" style="stop-color:#C5B482"/>
			<stop  offset="0.1548" style="stop-color:#C0A064"/>
			<stop  offset="0.2143" style="stop-color:#BB8941"/>
			<stop  offset="0.2531" style="stop-color:#BD8D48"/>
			<stop  offset="0.3077" style="stop-color:#C4995A"/>
			<stop  offset="0.3717" style="stop-color:#CFAC78"/>
			<stop  offset="0.4424" style="stop-color:#DFC6A2"/>
			<stop  offset="0.4565" style="stop-color:#E2CCAB"/>
			<stop  offset="0.5232" style="stop-color:#E6D3B1"/>
			<stop  offset="0.6169" style="stop-color:#F1E5C2"/>
			<stop  offset="0.6795" style="stop-color:#FAF5D1"/>
			<stop  offset="0.7154" style="stop-color:#F3E9C2"/>
			<stop  offset="0.8465" style="stop-color:#DBC18E"/>
			<stop  offset="0.9454" style="stop-color:#CDA86E"/>
			<stop  offset="1" style="stop-color:#C79F62"/>
		</linearGradient>
		<path style="fill:url(#SVGID_00000072277109718717574240000005274461438166685885_);" d="M312.9,156v-32.4
			c17,13.3,15.9,36.5,15.9,36.5c4.9-22-13.2-38.4-13.2-38.4c-1-0.8-1.9-1.6-2.9-2.3V65.9l-6.1,4.9v44.7c-0.7-0.4-1.6-0.8-2.3-1.2
			V72.7l-6.1,4.5v34.9c-0.6-0.2-1.3-0.4-1.9-0.5V79.1l-6.1,4.5v27c-1.6-0.1-3.1-0.1-4.5,0V79.1l-6.1-4.5v36.9
			c-0.8,0.2-1.7,0.5-2.5,0.6l0.2-39.6l-5.7-4.5v46.4c-0.8,0.4-1.6,0.7-2.3,1.1V66.2l-6.1-4.9v58c-21,15.3-16,41.2-15.9,41.6
			c-2.5,1.1-5,2.3-7.7,3.6c3.2-1.6,40-18.3,96.7,0.1C336.5,164.6,327.3,159.5,312.9,156z M306.8,119.7v35c-0.7-0.1-1.6-0.2-2.3-0.4
			v-35.7C305.2,118.9,306.1,119.3,306.8,119.7z M298.4,116.4v37.1c-0.6-0.1-1.2-0.1-1.9-0.2v-37.3
			C297.1,116.2,297.8,116.3,298.4,116.4z M279.8,116.1v37.2c-0.8,0.1-1.8,0.1-2.6,0.2l0.1-36.7C278.1,116.4,278.9,116.2,279.8,116.1
			z M271.7,118.7v35.4c-0.7,0.1-1.6,0.2-2.3,0.4v-34.7C270.3,119.4,271,119.1,271.7,118.7z M258.9,127.8c1.4-1.4,3-2.7,4.4-3.9v31.9
			c-5.3,1.2-10.5,3-15.9,5.3C247.7,137.3,258.9,127.8,258.9,127.8z M285.8,153v-37.8c1.7-0.1,3.2-0.1,4.5,0v37.9
			C289,153,287.4,152.9,285.8,153z"/>
	</g>
</g>
</svg>
