<?xml version="1.0" encoding="utf-8"?>
<!-- Generator: Adobe Illustrator 27.0.0, SVG Export Plug-In . SVG Version: 6.00 Build 0)  -->
<svg version="1.1" id="feature_version1_image.svg" xmlns="http://www.w3.org/2000/svg" xmlns:xlink="http://www.w3.org/1999/xlink"
	 x="0px" y="0px" viewBox="0 0 749 660" style="enable-background:new 0 0 749 660;" xml:space="preserve">
<style type="text/css">
	.st0{fill-rule:evenodd;clip-rule:evenodd;fill:#C9A063;}
	.st1{opacity:0.5;fill-rule:evenodd;clip-rule:evenodd;fill:#FFFFFF;enable-background:new    ;}
</style>
<path id="建築人出身再到建設公司_堅持刻劃_雕琢_執著" class="st0" d="M58.6,144.4l-2,2.1H55
	c1.3-2.5,3.1-6.4,4.1-8.6c0.6,0,1.1-0.2,1.5-0.6l-3.6-3.2l-1.8,1.8H49l0.3,1h6c-1.2,3-2.6,6-4.1,8.9c-0.5,0.2-0.9,0.4-1.3,0.8
	l3.5,2.3l1.3-1.3h2.2c-0.2,3.1-0.8,6.1-1.8,9c-2-2-3.6-4.4-4.4-7.1l-0.4,0.2c0.7,3.2,2.1,6.2,4,8.9c-1.2,2.7-3.1,5.1-5.5,6.8
	l0.3,0.4c2.7-1.2,5.2-3,7.1-5.4c4,3.5,9.6,4.3,18,4.3h6.3c0.1-1.7,0.9-3.2,2.6-3.5v-0.4c-2.3,0-6.6,0-8.5,0
	c-7.4,0-12.8-0.5-16.7-2.6c1.7-3.2,2.8-6.7,3.2-10.3c0.5,0,1-0.2,1.4-0.6L58.6,144.4z M74.5,145.4h-3.2v-3.7h3.2V145.4z M71.3,137.1
	h3.2v3.6h-3.2V137.1z M78.6,140.7h-0.2v-3c0.5-0.1,1-0.3,1.4-0.7l-3.9-2.9l-1.8,1.9h-2.8v-2.4c1-0.1,1.3-0.5,1.3-1l-5.4-0.5v4h-5.9
	l0.3,1h5.6v3.6H59l0.3,1h7.9v3.7h-5.6l0.3,1h5.3v3.7h-6l0.3,1h5.7v3.7h-7.6l0.3,1h7.3v4.4H68c1.6,0,3.2-0.8,3.2-1.1v-3.3H81
	c0.4,0.1,0.8-0.2,1-0.6c-1.6-1.4-4.2-3.3-4.2-3.3l-2.3,2.8h-4.3V151h8.2c0.4,0.1,0.8-0.2,1-0.6c-1.4-1.3-3.7-3.1-3.7-3.1l-2,2.7
	h-3.4v-3.5h3.2v1.2h0.6c1.3,0,3.2-0.7,3.3-1v-5h4c0.4,0.1,0.8-0.2,0.9-0.6c-1-1.3-3-3.2-3-3.2L78.6,140.7z M109.3,137.1
	c0.7,1.1,1.2,2.3,1.3,3.6c0.4,0.4,0.9,0.6,1.5,0.6l-0.7,0.8h-4l-4.1-1.5c1.6-0.9,3.2-2.1,4.5-3.4h1.5
	C109.3,137.2,109.3,137.1,109.3,137.1z M119.2,156.4c0.4,0.1,0.9-0.2,1-0.6c-1.5-1.3-3.9-3.1-3.9-3.1l-2.1,2.6h-8.4v-2
	c0.6,0.1,1.2-0.4,1.3-1l-5-0.4c3.9-1.9,4.6-4.4,4.6-6.5c0.9,1.1,1.5,2.4,1.7,3.8c2.8,2.3,6-3.2-1.7-4.5V143h5v6.3c0,2.2,0.3,3,2.9,3
	h1.8c3.3,0,4.6-0.8,4.6-2.2c0.1-0.7-0.3-1.3-1-1.4l-0.1-3.5h-0.4c-0.3,1.2-0.7,2.3-1.2,3.4c-0.1,0.2-0.3,0.3-0.5,0.3h-1.9
	c-0.5,0-0.5-0.1-0.5-0.5v-5.1c0.4,0,0.8-0.2,1.2-0.5l-2.7-2.3c0.8-0.9,0.6-2.5-1.5-3.5h7.3c0.4,0.1,0.9-0.2,1-0.6
	c-1.5-1.3-3.8-3.1-3.8-3.1l-2.1,2.7h-6c0.5-0.5,0.9-1.1,1.3-1.7c0.6,0.1,1.1-0.2,1.4-0.7l-5-1.6c-0.5,1.6-1.1,3.1-1.8,4.5
	c-1.3-1.2-3.4-3-3.4-3l-1.9,2.6H95c0.3-0.4,0.7-0.9,1-1.4c0.6,0.2,1.2-0.1,1.4-0.6l-5-2.1c-1,3.6-2.9,7-5.4,9.8l0.4,0.4
	c2.6-1.2,4.9-3,6.8-5.1h1c0.6,1.1,0.9,2.3,0.9,3.5c0.6,0.6,1.5,0.8,2.3,0.5l-1.4,1.7h-8.5l0.3,1.1h4.1v5.3c-2.3,0.3-4.2,0.5-5.4,0.6
	l2.1,4.1c0.4-0.1,0.8-0.4,0.9-0.8c5.2-2,8.8-3.5,11.3-4.6l-0.1-0.5c-1.7,0.2-3.4,0.5-5,0.7v-4.8h4.6c0.4,0.1,0.9-0.2,1-0.6
	c-1.2-1-2.8-2.3-3.3-2.7c0.7-0.9,0.6-2.4-1.5-3.4h6c0.3,0,0.6-0.1,0.8-0.3c-0.7,1.4-1.6,2.7-2.7,4l0.4,0.4c0.3-0.1,0.6-0.3,0.9-0.5
	v4.5c0,2.8-0.9,5.8-6.2,8l0.2,0.4c1.6-0.3,3.2-0.8,4.8-1.5v3.2H87.4l0.3,1h10.4c-3,3.8-7,6.8-11.5,8.6l0.3,0.5
	c6-1.4,11.1-3.6,14.7-6.8v7.2h0.7c1.6,0,3.4-0.7,3.4-1v-8.4c2.5,4.2,6.4,7.2,11.7,8.8c0.2-1.8,1.5-3.4,3.3-3.9l0.1-0.4
	c-4.9-0.5-10.6-2.1-13.9-4.6L119.2,156.4L119.2,156.4z M137.5,132.6c0,11.4,0.3,23.1-12.8,32.7l0.4,0.5
	c13.5-6.5,16.1-15.7,16.8-24.9c0.9,11.5,3.6,19.9,12.7,24.8c0.2-2.1,1.9-3.8,4-4.2l0.1-0.4c-12.3-4.5-15.7-12.9-16.4-26.8
	c0.6,0.1,1.2-0.4,1.3-1L137.5,132.6z M189.5,150.4v11.1h-8.2v-14.3h6.5v2.1h0.7c1.6,0,3.4-0.7,3.4-1v-11.2c0.9-0.2,1.2-0.5,1.2-0.9
	l-5.3-0.5v10.5h-6.5V134c1-0.1,1.2-0.5,1.3-1l-5.6-0.5v13.8h-6.2v-9.1c0.9-0.1,1.3-0.5,1.3-0.9l-5.4-0.5v10.1
	c-0.4,0.3-0.8,0.7-1.1,1.1l4.1,2.4l1.3-2.1h5.9v14.3H169v-9.8c0.9-0.1,1.3-0.4,1.3-0.8l-5.4-0.5v10.8c-0.4,0.3-0.8,0.6-1.2,1
	l4.2,2.5l1.3-2.1h20.2v3h0.7c1.6,0,3.4-0.7,3.4-1V152c0.9-0.2,1.2-0.5,1.2-0.9L189.5,150.4z M211.3,152.3v-4.2h11.2v3.5l-0.8,0.7
	H211.3z M222.4,137.9v4.1h-11.2v-4.1H222.4z M211.3,143h11.2v4.1h-11.2V143z M229.8,142.8c-0.9,1.5-1.9,2.9-3,4.3v-8.4
	c0.6-0.1,1.1-0.3,1.5-0.8l-4.2-3.3l-2,2.3h-5.5c0.9-0.9,2.2-2.2,3-3c0.6,0,1.2-0.3,1.4-0.9l-6.2-0.9c-0.2,1.4-0.4,3.5-0.7,4.9h-2.4
	l-4.8-1.8v17.2h-5.5l0.3,1h18.7c-5.9,4.9-12.6,8.7-19.9,11.1l0.2,0.5c7.7-1.5,15-4.5,21.6-8.9v5c0.1,0.4-0.1,0.7-0.5,0.8
	c-0.1,0-0.2,0-0.3,0c-0.9,0-5-0.3-5-0.3v0.5c1.3,0.1,2.5,0.5,3.5,1.3c0.6,0.7,1,1.6,1,2.6c5-0.4,5.7-1.8,5.7-4.6v-8.6
	c2.2-1.9,4.2-4,5.9-6.2c0.9,0.3,1.3,0.2,1.6-0.2L229.8,142.8z M256.7,154.3v-5.7h6.1v5.7H256.7z M246.7,148.6h5.7v5.7h-5.7V148.6z
	 M252.4,142.2v5.5h-5.7v-5.5H252.4z M262.8,142.2v5.5h-6.1v-5.5H262.8z M267,154.3V143c0.6-0.1,1.2-0.4,1.7-0.9l-4.3-3.3l-2,2.3
	h-5.6v-4.7H270c0.4,0.1,0.9-0.2,1-0.6c-1.7-1.4-4.5-3.5-4.5-3.5l-2.4,3.1H239l0.3,1h13.1v4.7h-5.3l-4.7-1.8v15h-4.6l0.3,1.1h4.4
	v10.4h0.8c2.2,0,3.5-1,3.5-1.3v-9.1h16.1v4.8c0,0.5-0.2,0.8-0.9,0.8c-0.8,0-5-0.2-5-0.2v0.5c2,0.3,2.8,0.8,3.4,1.5
	c0.7,0.9,1,2,1,3.1c5-0.5,5.7-2.2,5.7-5v-5.3h4.2c0.4,0.1,0.8-0.2,1-0.6c-1.2-1.3-3.4-3.2-3.4-3.2L267,154.3z M290,135.4h-13.8
	l0.3,1h6.4c-0.8,2.1-3.2,5.9-5,7.1c-0.4,0.2-0.8,0.3-1.2,0.4l2,4.8c0.4-0.2,0.7-0.5,0.9-0.9c1.4-0.4,2.7-0.7,3.9-1.1v5.3h-6.9l0.3,1
	h6.6v6.1c-3.3,0.5-6,0.8-7.6,1l2.1,5.1c0.5-0.1,0.8-0.5,1-0.9c5.7-1.9,11.4-4.1,16.9-6.5l-0.1-0.5c-2.8,0.4-5.6,0.9-8.2,1.3v-5.5
	h6.7c0.4,0.1,0.8-0.2,0.9-0.6c-1.3-1.4-3.7-3.4-3.7-3.4l-2.1,2.9h-1.8v-3.9c0.6,0.1,1.1-0.4,1.2-1l-5.2-0.4c2.9-0.8,5.5-1.7,7.4-2.3
	c0.3,0.8,0.5,1.6,0.5,2.5c3.7,3,7.1-4.8-3.2-7.8l-0.4,0.3c1.1,1.2,2,2.6,2.6,4.1c-4.2,0.3-8.2,0.5-10.8,0.6c2.6-1.6,5.1-3.5,7.2-5.6
	c0.5,0.1,1.1-0.2,1.3-0.7l-4.8-1.3h11.4c0.4,0.1,0.9-0.2,1-0.6c-1.5-1.4-3.9-3.4-3.9-3.4L290,135.4z M300.9,136.7
	c0.6,0.1,1.2-0.4,1.3-1l-5.2-0.5v22.7h0.7c1.4,0,3.1-0.8,3.1-1.1v-20.1L300.9,136.7L300.9,136.7z M304.1,132.5v28.2
	c0,0.5-0.2,0.7-0.8,0.7c-0.8,0-4.8-0.2-4.8-0.2v0.5c1.2,0.1,2.4,0.6,3.3,1.4c0.6,0.8,0.9,1.8,0.9,2.8c4.8-0.4,5.4-2.1,5.4-4.8v-27
	c0.6,0,1.2-0.4,1.3-1.1L304.1,132.5z M323.1,144.4l-2,2.1h-1.6c1.3-2.5,3.1-6.4,4.1-8.6c0.6,0,1.1-0.2,1.6-0.6l-3.6-3.2l-1.8,1.8
	h-6.3l0.3,1h6c-1.2,3-2.6,6-4.1,8.9c-0.5,0.2-0.9,0.4-1.3,0.8l3.5,2.3l1.3-1.3h2.2c-0.2,3.1-0.8,6.1-1.8,9c-2-2-3.5-4.4-4.4-7.1
	l-0.4,0.2c0.7,3.2,2.1,6.2,4,8.9c-1.2,2.7-3.1,5.1-5.5,6.8l0.3,0.4c2.7-1.2,5.2-3,7.1-5.4c4,3.5,9.6,4.3,18,4.3h6.3
	c0.1-1.7,0.9-3.2,2.6-3.5v-0.4c-2.3,0-6.6,0-8.5,0c-7.4,0-12.8-0.5-16.7-2.6c1.7-3.2,2.8-6.7,3.2-10.3c0.5,0,1-0.2,1.4-0.6
	L323.1,144.4z M339.1,145.4h-3.2v-3.7h3.2V145.4z M335.9,137.1h3.2v3.6h-3.2V137.1z M343.2,140.7H343v-3c0.5-0.1,1-0.3,1.4-0.7
	l-3.8-2.9l-1.8,1.9H336v-2.4c1-0.1,1.3-0.5,1.3-1l-5.4-0.5v4H326l0.3,1h5.6v3.6h-8.2l0.3,1h7.9v3.7h-5.6l0.3,1h5.3v3.7h-6l0.3,1h5.7
	v3.7h-7.6l0.3,1h7.3v4.4h0.8c1.6,0,3.2-0.8,3.2-1.1v-3.3h9.8c0.4,0.1,0.8-0.2,1-0.6c-1.6-1.4-4.2-3.3-4.2-3.3l-2.3,2.8h-4.3V151h8.2
	c0.4,0.1,0.8-0.2,1-0.6c-1.4-1.3-3.7-3.1-3.7-3.1l-2,2.7H336v-3.5h3.2v1.2h0.6c1.3,0,3.2-0.7,3.3-1v-5h4c0.4,0.1,0.8-0.2,0.9-0.6
	c-1-1.3-3-3.2-3-3.2L343.2,140.7z M355,132.8c1.3,1.4,2.1,3.1,2.5,4.9c3.8,2.5,7.2-4.7-2.3-5.1L355,132.8z M362.1,139.1h-10.7
	l0.3,1.1h14.5c0.4,0.1,0.8-0.2,1-0.6c-1.3-1.2-3.3-2.8-3.3-2.8L362.1,139.1z M352.9,143.7l0.3,1h11.5c0.4,0.1,0.8-0.2,1-0.6
	c-1.2-1.2-3.2-2.7-3.2-2.7l-1.7,2.3H352.9L352.9,143.7z M371.7,135.7h4.1v7.3c0,2.3,0.3,3.1,3,3.1h1.7c3.5,0,4.7-0.8,4.7-2.2
	c0-0.7-0.5-1.3-1.2-1.5h-0.1h-0.3c-0.3,0-0.6,0.1-0.8,0.2c-0.2,0-0.5,0-0.8,0h-1.9c-0.5,0-0.6-0.1-0.6-0.5v-5.9
	c0.5,0,0.9-0.2,1.3-0.5l-3.5-2.9l-1.9,2.1h-3.1l-4.4-1.6v4.5c0,3.2-0.4,7.1-3.4,10.2c-1-0.8-2-1.6-2-1.6l-1.7,2.2h-7.9l0.3,1h11.6
	c0.4,0.1,0.8-0.2,1-0.6c-0.2-0.2-0.5-0.4-0.7-0.7c4.3-1.7,7-6,6.7-10.6L371.7,135.7L371.7,135.7z M357,161.1V154h4.1v7.1H357z
	 M361.7,164c1.3,0,3.1-0.8,3.1-1.1v-8.3c0.5-0.1,1-0.3,1.4-0.7l-3.7-2.7l-1.7,1.8h-3.6l-3.8-1.6v14h0.5c1.5,0,3.1-0.8,3.1-1.2V162
	h4.1v1.9L361.7,164L361.7,164z M377.2,149.7c-0.8,2.5-2,4.8-3.6,6.9c-2.2-1.8-3.9-4.2-4.9-6.9H377.2z M379.4,146.5l-2.3,2.2H366
	l0.3,1h1.7c0.6,3.2,1.9,6.2,3.8,8.9c-2.9,3-6.4,5.3-10.3,6.7l0.2,0.5c4.3-0.8,8.3-2.6,11.9-5.1c2.4,2.2,5.1,3.8,8.2,4.8
	c0.4-1.7,1.7-3.1,3.4-3.6v-0.4c-3.1-0.6-6.2-1.6-9-3.1c2.3-2.3,4.1-5,5.3-8c0.6,0.1,1.1-0.1,1.5-0.5L379.4,146.5z M399.6,133
	c-2.4,6.8-6,13.1-10.8,18.6l0.4,0.4c6.2-3.8,11.2-9.3,14.5-15.9c0.6,0.2,1.2,0,1.5-0.5L399.6,133z M409.5,152.7c1.6,2,3,4.1,4.1,6.4
	c-6.2,0.6-12.4,0.9-16.6,1.1c4.3-3.7,8-8,11-12.7c0.6,0.1,1.1-0.1,1.5-0.6l-5.8-3.1c-1.3,4.7-5.5,13.1-8.1,15.7
	c-0.5,0.5-2.8,0.9-2.8,0.9l2.3,5.1c0.4-0.2,0.8-0.5,1.1-0.9c6-1.2,12-2.7,17.8-4.5c0.7,1.4,1.3,3,1.6,4.5c4.6,3.6,7.9-6.4-5.8-12
	L409.5,152.7z M409.6,132.7l-0.4,0.2c1.5,8.8,4.7,14.2,10,17.8c0.7-1.8,2.3-3.2,4.2-3.6l0.1-0.4c-5.6-2.3-10.2-6.2-12.5-11
	c0.6-0.6,1-1.2,1.4-1.9L409.6,132.7z M444.6,140.5h-17l0.3,1h22.3c0.4,0.1,0.9-0.2,1-0.6c-1.6-1.4-4.2-3.5-4.2-3.5L444.6,140.5z
	 M434.8,155.5v-8.3h7.8v8.3H434.8z M446.7,147.9c0.6-0.1,1.1-0.3,1.5-0.8l-4-3.1l-1.9,2.1h-7.2l-4.2-1.7v16.4h0.6
	c1.7,0,3.4-0.9,3.4-1.3v-3h7.8v2.9h0.7c1.4,0,3.4-0.9,3.4-1.2L446.7,147.9L446.7,147.9z M455,132.3l-2,2.3h-24.3l0.3,1.1h24.3v24.6
	c0.1,0.4-0.2,0.8-0.6,0.9c-0.1,0-0.2,0-0.3,0c-1,0-6.4-0.4-6.4-0.4v0.5c1.5,0.1,3,0.7,4.2,1.6c0.8,0.8,1.2,1.9,1.3,3.1
	c5.4-0.5,6.2-2.2,6.2-5.2v-24.3c0.6-0.1,1.1-0.4,1.5-0.8L455,132.3z M54.7,182.9v-4.2h3v4.2H54.7z M63,184v4h-8.3v-4H63z
	 M57.7,193.5h-3V189h3V193.5L57.7,193.5z M55,194.5h11.6c0.4,0.1,0.8-0.2,1-0.6c-1.3-1.2-3.4-2.8-3.4-2.8l-1.9,2.4h-1V189H63v1.2
	h0.6c1.2,0,3-0.7,3-0.9v-4.8c0.5-0.1,1-0.3,1.4-0.7l-3.6-2.6l-1.7,1.8h-1.4v-4.2h4.6c0.4,0.1,0.8-0.2,1-0.6c-1.4-1.3-3.6-3-3.6-3
	l-1.9,2.6h-6.2l-4.4-2.1v17.4c-0.6,0.3-1.1,0.7-1.6,1.2l4.3,2.4L55,194.5z M76.4,206H68v-5.7h10.3c0.4,0.1,0.8-0.2,1-0.6
	c-1.5-1.3-4-3.2-4-3.2l-2.2,2.8H68v-3c0.6,0,1.1-0.4,1.2-0.9l-5.4-0.5v4.4H53.1l0.3,1h10.4v5.7H49l0.3,1h32.4c0.4,0.1,0.9-0.2,1-0.6
	c-1.5-1.4-4.1-3.3-4.1-3.3L76.4,206z M76.8,178.4c-0.5,2.8-1.6,5.6-3,8.1c-2.3-2.2-3.9-5-4.7-8.1H76.8z M78.7,175.2l-2.2,2.2h-9.6
	l0.3,1h1.2c0.5,3.7,1.8,7.3,3.7,10.5c-1.4,1.7-3,3.1-4.8,4.3l0.3,0.4c2.1-0.7,4-1.8,5.8-3.1c1.7,2,3.7,3.6,5.9,4.9
	c0.4-1.7,1.8-3.1,3.6-3.4l0.1-0.4c-2.4-0.8-4.8-1.9-6.9-3.3c2.4-2.6,4.2-5.8,5.1-9.3c0.5,0.1,1-0.1,1.3-0.5L78.7,175.2z
	 M101.1,182.1h6.4v5.2h-8.6l0.3,1h20.9c0.4,0.1,0.9-0.2,1-0.6c-1.5-1.4-4-3.5-4-3.5l-2.3,3.1h-3.2v-5.2h7c0.4,0.1,0.8-0.2,1-0.6
	c-1.5-1.4-3.9-3.4-3.9-3.4l-2.2,2.9h-1.9v-4.2c1-0.1,1.3-0.5,1.3-1l-5.4-0.5v5.7h-6.7L101.1,182.1z M101.2,189.4
	c-1.8,0.5-3.7,1-5.5,1.5v-6.1h4.9c0.4,0.1,0.8-0.2,1-0.6c-1.2-1.3-3.3-3.4-3.3-3.4l-1.9,2.9h-0.7v-7c0.6,0,1.2-0.4,1.3-1l-5.3-0.5
	v8.5h-4.9l0.3,1.1h4.6v7.1c-2.4,0.6-4.3,1-5.4,1.2l1.6,5c0.5-0.2,0.8-0.5,1-1c1-0.5,1.9-1,2.8-1.5v8.4c0,0.5-0.2,0.6-0.7,0.6
	c-0.7,0-3.6-0.2-3.6-0.2v0.5c1,0,2,0.5,2.6,1.3c0.5,0.9,0.7,1.9,0.7,2.9c4.4-0.4,5-2,5-4.8v-10.9c2.3-1.4,4.2-2.6,5.6-3.5
	L101.2,189.4z M101.2,196c1.6,1.6,2.7,3.6,3.1,5.9c3.9,2.8,7.4-4.9-2.8-6.1L101.2,196z M116,193.4h-0.5v-2.9c0.6,0,1.1-0.4,1.3-0.9
	l-5.4-0.5v4.3H99.2l0.2,1h11.9v9.5c0,0.5-0.2,0.7-0.8,0.7c-0.9,0-5.5-0.3-5.5-0.3v0.5c2.1,0.4,3,0.8,3.7,1.4c0.7,0.8,1,1.8,1,2.9
	c5-0.4,5.7-2.1,5.7-4.9v-9.7h4.5c0.4,0.1,0.8-0.2,1-0.6c-1.2-1.3-3.2-3.2-3.2-3.2L116,193.4z M124.7,209c4.9-1.6,9.5-4.2,13.4-7.6
	c1.4,2,2.5,4.2,3.2,6.5c3.7,2.8,7-4.1-2.2-7.5c1.9-1.9,3.6-3.9,5.1-6.2c0.9,0.1,1.3,0,1.6-0.4l-5.1-2.6c-3.4,7.4-9.1,13.5-16.2,17.3
	L124.7,209z M149.8,180.7c0.6,0.1,1.2-0.4,1.3-1l-5.1-0.5v2.2c-1.4-1.3-3.7-3.2-3.7-3.2l-2.1,2.8h-4c2.2-0.9,2.6-5.1-4.5-5.9
	l-0.3,0.2c1.2,1.5,2,3.2,2.2,5.1c0.3,0.2,0.6,0.4,0.9,0.5h-9.8l0.3,1h6.3c-0.6,2-1.9,5.3-3.1,6.4c-0.6,0.2-1.3,0.4-2,0.5l1.4,4.3
	c0.5-0.1,0.9-0.4,1.2-0.8c2.3-0.6,4.4-1.2,6.2-1.7c-2.6,4-6,7.5-10,10.1l0.3,0.5c6.8-2.8,12.6-7.7,16.5-14c0.5,0.2,1.1,0,1.5-0.4
	l-4.9-2.4c-0.7,1.6-1.5,3.1-2.3,4.5c-2.5,0-4.8,0-6.6,0c2.2-1.3,4.2-2.9,6-4.6c0.5,0.1,1-0.1,1.3-0.5l-4.6-1.9h13.1
	c0.3,0,0.7-0.1,0.9-0.4v19h0.7c1.5,0,3.1-0.8,3.1-1.1L149.8,180.7L149.8,180.7z M152.8,175.7v28.1c0,0.5-0.2,0.7-0.8,0.7
	c-0.8,0-4.7-0.2-4.7-0.2v0.5c1.9,0.3,2.7,0.8,3.3,1.4c0.6,0.9,0.9,1.9,0.9,3c4.9-0.5,5.5-2.1,5.5-5v-26.9c0.9-0.1,1.3-0.5,1.3-1
	L152.8,175.7z M164.4,209.1c0.5-0.1,0.8-0.4,1-0.8c8.3-1.7,14-3,17.9-4.2v-0.5c-8.8,0.5-17.3,0.9-20.9,0.9L164.4,209.1z
	 M177.1,184.9h-3v-2.5h3V184.9z M177.3,188.3h-3.2V186h3v0.8h0.6c0.3,0,0.6,0,0.9-0.1L177.3,188.3z M177.7,191.6h-3.6v-2.3h5.5
	L177.7,191.6z M174.1,179h3v2.4h-3V179z M174.1,201.2v-2.5h2.9v2.5H174.1z M167.9,198.7h2.8v2.5h-2.8V198.7z M170.7,195.4v2.4h-2.8
	v-2.4H170.7z M177.1,195.4v2.4h-2.9v-2.4H177.1z M188.2,179.9c0.6,0,1.1-0.4,1.3-0.9l-4.9-0.5v3.2c-0.9-1-2.2-2.2-2.2-2.2l-1.4,1.9
	h-0.3v-2.1c0.4-0.1,0.8-0.2,1.2-0.5l-3.4-2.6l-1.6,1.7h-2.7v-1.3c0.5,0,1-0.4,1-0.9l-4.7-0.4v2.7h-6.2l0.3,1h5.8v2.4h-8.1l0.3,1h7.8
	v2.5h-6.3l0.3,1h6v2.3h-7.1l0.3,1h6.8v2.3h-8.1l0.3,1h15.7l-1.6,1.7h-8.4l-4-1.5v10.8h0.6c1.8,0,2.9-0.8,2.9-1v-0.3h9.2v0.8h0.7
	c1.1,0,2.1-0.3,3-0.9v-6.3c0.5-0.1,0.9-0.3,1.3-0.7l-3.5-2.6h3.6c0.4,0.1,0.8-0.2,1-0.5c-1.3-1.1-3.2-2.5-3.5-2.8h1.7
	c0.4,0.1,0.8-0.2,0.9-0.6c-0.9-0.8-2.2-1.8-2.8-2.3c0.5-0.1,0.9-0.4,1.2-0.7v-3.2h3.2c0.3,0,0.5-0.1,0.7-0.2v18.6h0.7
	c1.4,0,2.9-0.8,2.9-1.1L188.2,179.9L188.2,179.9z M190.9,175.8v28.1c0,0.5-0.2,0.7-0.8,0.7c-0.8,0-4.8-0.2-4.8-0.2v0.5
	c1.8,0.3,2.7,0.7,3.3,1.4c0.6,0.8,0.9,1.8,0.9,2.8c4.6-0.4,5.2-2,5.2-4.8v-26.8c0.6,0,1.2-0.4,1.3-1L190.9,175.8z M200.3,199.8
	c2.3,1.9,4.1,4.4,5.2,7.2c0.3,1,1.3,1.6,2.3,1.6c1.2,0.1,2.2-0.9,2.3-2.1c0-0.1,0-0.2,0-0.3c0-0.9-0.2-1.7-0.8-2.4
	c-1.3-2-4-3.7-8.8-4.5L200.3,199.8z M248.6,188.6h-0.3V185h2.1c0.4,0.1,0.8-0.2,0.9-0.5c-0.6-0.7-1.2-1.4-1.9-2.1l-1,1.6h-0.1v-2.8
	c0.4,0,0.8-0.3,0.9-0.7l-3.6-0.4v4h-2.2l0.2,1h1.9v3.6h-2.3l0.2,1h7.1c0.4,0.1,0.7-0.2,0.8-0.5l0,0c-0.6-0.7-1.2-1.4-1.8-2.1
	L248.6,188.6z M248,194.1v5.6h-1.8v-5.6H248z M248,200.6v1.5h0.4c0.7,0,1.4-0.3,1.9-0.8v-7.2c0.3,0,0.7-0.2,0.9-0.4l-2.3-1.8
	l-1.1,1.1h-1.3l-2.6-1.1V203h0.4c0.7,0.1,1.4-0.2,1.9-0.7v-1.7H248L248,200.6z M260.8,198.5h2.4v6.7h-2.4V198.5z M263.2,183.7v6.3
	h-2.4v-6.3H263.2z M263.2,197.4h-2.4V191h2.4V197.4z M267.4,205.1h-0.7v-6.6h3.9c0.4,0.1,0.8-0.2,0.9-0.6c-1.1-1.1-2.8-2.6-2.8-2.6
	l-1.6,2.2h-0.4v-6.4h3.8c0.4,0.1,0.8-0.2,0.9-0.6c-1-1.1-2.8-2.7-2.8-2.7L267,190h-0.4v-6.3h4.1c0.4,0.1,0.8-0.2,0.9-0.6
	c-1.2-1.2-3-2.7-3-2.7l-1.7,2.3h-5.8l-0.8-0.3c0.8-1.6,1.5-3.2,2.1-4.8h0.3c0.4,1.2,0.6,2.4,0.6,3.7c3.1,3,7.2-3.3-1.3-6.2l-0.3,0.2
	c0.2,0.3,0.4,0.7,0.6,1.1l-3.7-1.1c-0.6,4.8-1.8,9.5-3.7,13.9v-9.4c0.5-0.1,1-0.3,1.4-0.7l-3.5-2.7l-1.5,1.8h-7.7l-3.7-1.5v12.2
	c0,6.5,0.1,13.8-2,19.6l0.5,0.3c4.7-5.7,4.7-13.8,4.7-19.9v-9.6h8.6v25.1c0.1,0.3-0.2,0.6-0.5,0.7c-0.1,0-0.2,0-0.2,0
	c-0.5,0-3.1-0.2-3.1-0.2v0.5c0.9,0,1.7,0.4,2.3,1.1c0.4,0.7,0.6,1.5,0.6,2.3c3.7-0.4,4.1-1.7,4.1-4.1v-14.4l0,0
	c0.8-0.8,1.5-1.6,2.2-2.5V209h0.6c1.9,0,3-0.8,3-1.1v-1.7h10.6c0.4,0.1,0.8-0.2,0.9-0.6c-1.2-1.2-3.1-2.8-3.1-2.8L267.4,205.1z
	 M288.7,197.8c-1.7,0.5-3.3,1-5,1.5v-9.1h3.8c0.4,0.1,0.8-0.2,0.9-0.6c-1-1.2-2.8-3-2.8-3l-1.6,2.6h-0.3v-9.3h4.3
	c0.4,0.1,0.8-0.2,1-0.6c-1.4-1.4-3.7-3.3-3.7-3.3l-2.1,2.8h-7.7l0.3,1h3.9v9.3h-3.9l0.3,1h3.6v10.4c-1.9,0.5-3.5,0.9-4.4,1.1
	l2.3,4.7c0.4-0.2,0.8-0.6,0.9-1c4.9-3,8.2-5.4,10.3-7.1L288.7,197.8z M304.6,182.2c-1.4,1.8-3.9,4.9-5.9,7c-1.1-1.9-2.5-3.6-4.2-4.9
	c2.1-1.4,3.9-3.2,5.4-5.2h8.6c0.4,0.1,0.8-0.2,1-0.6c-1.6-1.3-4-3.2-4-3.2l-2.2,2.8h-14.7l0.3,1h6.1c-1.9,3.3-4.6,6.2-7.7,8.5
	l0.3,0.5c2.2-0.9,4.4-2,6.4-3.3c0.3,0.4,0.5,0.8,0.7,1.1c-0.9,1.7-1.9,3.3-3.1,4.8c-0.8-0.6-1.8-1.1-2.7-1.6l-0.4,0.2
	c0.6,1.1,1.1,2.2,1.6,3.3c-1.3,1.5-2.8,2.9-4.5,4.1l0.3,0.4c1.7-0.7,3.3-1.5,4.8-2.5c0.1,0.4,0.2,0.9,0.2,1.4c2,1.7,4.1-0.5,2.6-3.2
	c1.1-0.8,2.1-1.7,3.1-2.6c0.2,0.5,0.3,0.9,0.4,1.4c-3.1,5.6-7.6,10.3-13,13.7l0.2,0.4c5.1-2,9.8-5.1,13.6-9.1c0.2,3.5-0.2,6.4-1,7.7
	c-0.3,0.4-0.7,0.5-1.2,0.4c-1,0-3.5-0.1-5.2-0.3v0.5c1.2,0.2,2.4,0.7,3.4,1.4c0.6,0.7,0.9,1.7,0.9,2.6c2.5,0,4.3-0.5,5.2-1.7
	c2.3-2.8,2.7-10.7-0.8-17.3c0.7-0.3,1.4-0.7,2.2-1.1c0.6,7.8,2,12.8,5.6,16.3c0.5-2.1,1.7-3.4,3.1-3.9l0.1-0.3
	c-4-2-6.8-6.7-8.1-12.4c1.9-0.9,3.7-1.9,5.5-3c0.8,0.2,1.2,0.2,1.4-0.2L304.6,182.2z M313.6,199.8c2.3,1.9,4.1,4.4,5.2,7.2
	c0.3,1,1.3,1.6,2.3,1.6c1.2,0.1,2.2-0.9,2.3-2.1c0-0.1,0-0.2,0-0.3c0-0.9-0.2-1.7-0.8-2.4c-1.3-2-4-3.7-8.8-4.5L313.6,199.8z
	 M368.2,200.4c0.4,0.1,0.8-0.2,1-0.6c-1.3-1.3-3.6-3.3-3.6-3.3l-2,2.8h-1.8v-4.8h6.1c0.4,0.1,0.8-0.2,1-0.6
	c-1.3-1.3-3.6-3.1-3.6-3.1l-1.9,2.7h-1.7c1.6-1.5,3-3.2,4.2-5.1c0.6,0.1,1.1-0.2,1.3-0.8l-3.9-0.9h5.7c0.4,0.1,0.8-0.2,0.9-0.6
	c-1.4-1.4-3.7-3.4-3.7-3.4l-2.1,3h-2.2v-4.5h5.8c0.4,0.1,0.8-0.2,0.9-0.6c-1.3-1.3-3.4-3.1-3.4-3.1l-1.9,2.7H362v-3.5
	c0.6,0,1.1-0.3,1.2-0.9l-5.2-0.5v4.9h-5.2l0.3,1h5v4.5h-6.7l0.3,1h10.7c-0.3,2.3-0.7,4.5-1.3,6.8h-8.7l0.3,1h5.4v4.8h-6.6l0.3,1.1
	h6.3v8.6h0.7c2.1,0,3.3-0.8,3.3-1.1v-7.6h6.1L368.2,200.4L368.2,200.4z M353.9,186.9c0.9,1.7,1.4,3.6,1.5,5.6c2.9,2.8,6.8-3-1.2-5.7
	L353.9,186.9z M385.4,198.8l-0.4-0.1c-0.3,1.2-0.6,2.4-1,3.6c-0.2,0.4-0.3,0.5-0.6,0.4c-1.8-1.3-1.8-12.5-1.3-18.3
	c0.6,0,1.1-0.3,1.5-0.6l-4.1-3.3l-2.1,2.3h-2.1c0-1.9,0-3.8,0-5.8c0.6,0.1,1.2-0.4,1.3-1l-5.4-0.5c0,2.6,0,5,0,7.3H368l0.3,1.1h3.1
	c0,2.3-0.1,4.6-0.2,6.6c-1.2-0.4-2.5-0.8-3.7-1l-0.3,0.3c1.4,1,2.6,2.2,3.7,3.5c-0.8,5.9-2.6,11-7,15.2l0.4,0.5
	c4.5-2.5,7.9-6.7,9.4-11.7c0.2,0.5,0.4,0.9,0.6,1.4c3.2,1.9,5.3-2.7,0.5-6.3c0.4-2.8,0.6-5.7,0.6-8.6h2.5
	c-0.2,9.8-0.3,21.1,3.8,24.1c1.3,1,2.9,1.2,3.9-0.1c0.5-0.7,0.3-2.1-0.5-3.6L385.4,198.8z M398.2,180.2v3.2h0.7
	c1.9,0,3.4-0.5,3.4-0.9v-2.3h7.2v3h0.7c1.9,0,3.5-0.5,3.5-0.9v-2.2h8.2c0.4,0.1,0.9-0.2,1-0.6c-1.4-1.3-3.8-3.2-3.8-3.2L417,179
	h-3.3v-2.6c0.6,0.1,1.2-0.4,1.3-1l-5.5-0.5v4h-7.2v-2.6c0.6,0,1.2-0.4,1.3-1l-5.4-0.5v4h-8.9l0.3,1h8.6L398.2,180.2L398.2,180.2z
	 M406.6,187.2h5.1c-1.5,1.4-3.1,2.8-4.9,4.1h-0.2V187.2z M413.1,197v3.7h-11.5v-3.3c0.3-0.2,0.6-0.3,0.8-0.4H413.1L413.1,197z
	 M401.6,205.6v-3.9h11.5v3.9H401.6L401.6,205.6z M416.9,191.3h-4.7c2.5-1.7,4.7-3.7,6.8-5.9c0.5,0.3,1.1,0.2,1.4-0.3l-4.4-2.8
	c-1.1,1.4-2.3,2.7-3.6,4c-1.3-1.1-3.1-2.4-3.1-2.4l-1.9,2.3h-1v-2.9c0.6,0.1,1.1-0.3,1.2-0.9l-5.3-0.4v4.2h-8.8l0.3,1h8.5v4.1h-12.9
	l0.3,1h15.6c-1.5,1.1-3.1,2.2-4.8,3.2l-3.3-1.3v3.2c-2.6,1.4-5.4,2.7-8.2,3.8l0.2,0.5c2.7-0.7,5.4-1.5,7.9-2.5v9.7h0.7
	c1.8,0,3.7-0.9,3.7-1.4v-1H413v2.1h0.8c1.4,0,3.6-0.7,3.6-1v-9.9c0.6-0.1,1.1-0.4,1.5-0.8l-4.2-3.2l-2,2.2h-8.2
	c2.2-1.1,4.2-2.3,6.3-3.7H422c0.4,0.1,0.8-0.1,1-0.5c-1.5-1.3-3.8-3.1-3.8-3.1L416.9,191.3z"/>
<path id="矩形_19" class="st0" d="M52.3,245.8h41v2h-41C52.3,247.8,52.3,245.8,52.3,245.8z"/>
<path id="形狀_687" class="st1" d="M52.9,538.4v-6.6h0.4c1.3,0,2,0.5,2,1.5c0,0.3-0.1,0.7-0.3,1c-0.2,0.4-0.7,0.6-1.1,0.6h-0.3
	v0.2H54c0.4,0,0.9,0.1,1.2,0.4c0.4,0.3,0.6,0.8,0.5,1.3c0,1.2-0.8,1.7-2.5,1.7L52.9,538.4 M53.4,531.6h-1.2v7.1c0.7,0,1.2,0,1.3,0
	h0.1c0.7,0,1.3-0.1,1.9-0.4c0.6-0.3,1-0.9,0.9-1.6c0-0.5-0.2-0.9-0.6-1.2c-0.4-0.3-0.8-0.5-1.2-0.6c0.4-0.2,0.7-0.4,0.9-0.7
	c0.3-0.3,0.4-0.6,0.4-1c0-0.6-0.4-1.1-0.9-1.3C54.6,531.7,54,531.6,53.4,531.6 M60.2,534.2c-0.6,0-1.2,0.2-1.6,0.7
	c-0.4,0.4-0.6,1-0.6,1.6c0,1.3,1,2.3,2.3,2.3c0.6,0,1.2-0.2,1.6-0.6l-0.2-0.2c-0.3,0.4-0.8,0.7-1.3,0.7s-0.9-0.2-1.2-0.6
	c-0.3-0.4-0.4-1-0.4-1.5s0.1-1,0.4-1.5c0.2-0.4,0.6-0.6,1.1-0.6c0.6,0,1.1,0.5,1.1,1c0,0.1,0,0.1,0,0.2h-2.1v0.2H62
	c0-0.5-0.2-0.9-0.5-1.2C61.2,534.3,60.7,534.1,60.2,534.2 M65,534.1c-0.4,0-0.9,0.1-1.2,0.3l0.2,0.2C64.3,534.4,64.7,534.2,65,534.1
	c0.8,0.1,1.1,0.6,1.1,1.5v2c-0.2,0.4-0.6,0.7-1.1,0.7c-0.3,0-0.5-0.1-0.7-0.3s-0.3-0.5-0.3-0.8s0.1-0.6,0.2-0.9
	c0.1-0.2,0.4-0.3,0.6-0.3c0.3,0,0.5,0.1,0.8,0.2l0.1-0.2c-0.2-0.1-0.4-0.2-0.6-0.2h-0.3c-0.4,0-0.7,0.1-1,0.4
	c-0.3,0.3-0.5,0.7-0.5,1.1c0,0.4,0.2,0.8,0.5,1c0.3,0.2,0.7,0.4,1.1,0.4s0.8-0.1,1.1-0.4v0.3h0.7v-2.8l0,0c0.1-0.8-0.4-1.5-1.2-1.6
	C65.3,534.1,65.2,534.1,65,534.1 M72.1,534.2h-0.7v2.8c-0.1,0.3-0.2,0.6-0.3,0.8c-0.2,0.4-0.6,0.6-1,0.7c-0.6,0-1-0.4-1-1.4v-2.9
	h-0.7v2.9c-0.1,0.8,0.4,1.5,1.2,1.6c0.1,0,0.3,0,0.4,0c0.6,0,1.1-0.3,1.4-0.9v0.8h0.7V534.2 M74.9,533.7h-0.7v0.5h-0.4v0.2h0.4v2.8
	c-0.1,0.7,0.4,1.4,1.1,1.4c0.1,0,0.2,0,0.4,0v-0.2c-0.2,0-0.5-0.1-0.6-0.3c-0.2-0.3-0.2-0.6-0.2-0.9v-2.8h0.8v-0.2h-0.8L74.9,533.7
	 M81.1,534.2h-0.2l-1.4,3.5l-1.5-3.5h-0.7l1.9,4.4l-0.7,1.8h0.2L81.1,534.2 M85.4,531.8h-0.7v6.8h0.7V531.8 M88,534.2h-0.7v4.4H88
	V534.2 M87.7,531.8l-0.3,0.1l-0.1,0.3l0.1,0.3l0.3,0.1l0.3-0.1l0.1-0.3l-0.1-0.3L87.7,531.8 M91.9,534.2c-0.6,0-1.2,0.2-1.6,0.7
	c-0.4,0.4-0.6,1-0.6,1.6c0,1.3,1,2.3,2.3,2.3c0.6,0,1.1-0.2,1.6-0.6l-0.2-0.2c-0.3,0.4-0.8,0.7-1.3,0.7s-0.9-0.2-1.2-0.6
	c-0.5-0.9-0.5-2,0-3c0.2-0.4,0.6-0.6,1.1-0.6c0.6,0,1.1,0.5,1.1,1.1c0,0.1,0,0.1,0,0.2H91v0.2h2.8c0-0.5-0.2-0.9-0.5-1.2
	C92.8,534.3,92.4,534.1,91.9,534.2 M96.5,534.1c-0.3,0-0.6,0.1-0.9,0.2c-0.3,0.2-0.4,0.5-0.4,0.8c0,0.5,0.3,0.9,0.7,1.2
	c0.4,0.2,0.7,0.4,0.8,0.6c0.2,0.2,0.4,0.4,0.4,0.7c0,0.2-0.1,0.4-0.2,0.6c-0.2,0.2-0.4,0.2-0.6,0.2c-0.4,0-0.8-0.2-1.1-0.6l-0.2,0.3
	c0.3,0.3,0.8,0.5,1.3,0.5c0.3,0,0.7-0.1,0.9-0.3c0.2-0.2,0.4-0.5,0.4-0.8c0-0.5-0.2-1-0.6-1.2c-0.1-0.1-0.4-0.3-0.9-0.7
	c-0.3-0.1-0.5-0.4-0.4-0.8c0-0.4,0.4-0.6,0.7-0.6l0,0c0.4,0,0.7,0.2,0.9,0.5l0.2-0.2c-0.1-0.2-0.3-0.3-0.5-0.4
	C96.9,534.2,96.7,534.2,96.5,534.1 M102.2,534.2h-0.7v4.4h0.7V534.2 M101.8,531.8l-0.3,0.1l-0.1,0.3l0.1,0.3l0.3,0.1l0.3-0.1
	l0.1-0.3l-0.1-0.3L101.8,531.8 M106,534.1c-0.5,0-1.1,0.3-1.4,0.7v-0.6H104v4.4h0.7v-3.1c0.1-0.7,0.7-1.2,1.3-1.2c0.6,0,1,0.4,1,1.4
	v2.9h0.7v-2.9c0-0.5-0.1-0.9-0.4-1.3C106.9,534.2,106.5,534.1,106,534.1 M112.5,533.7h-0.7v0.5h-0.4v0.2h0.4v2.8
	c-0.1,0.7,0.4,1.4,1.1,1.4c0.1,0,0.2,0,0.4,0v-0.2c-0.2,0-0.5-0.1-0.6-0.3c-0.2-0.3-0.2-0.6-0.2-0.9v-2.8h0.8v-0.2h-0.8L112.5,533.7
	 M115.6,531.8h-0.7v6.8h0.7v-3.1c0.1-0.7,0.7-1.2,1.3-1.2c0.6,0,1,0.4,1,1.4v2.9h0.7v-2.9c0-0.5-0.1-0.9-0.4-1.3
	c-0.3-0.2-0.7-0.4-1.2-0.3c-0.6,0-1.1,0.3-1.4,0.7V531.8 M122.5,534.2c-0.6,0-1.2,0.2-1.6,0.7c-0.4,0.4-0.6,1-0.6,1.6
	c0,1.3,1,2.3,2.3,2.3c0.6,0,1.1-0.2,1.6-0.6L124,538c-0.3,0.4-0.8,0.7-1.3,0.7s-0.9-0.2-1.2-0.6c-0.6-0.9-0.5-2.1,0-3
	c0.2-0.4,0.6-0.6,1.1-0.6c0.6,0,1.1,0.5,1.1,1c0,0.1,0,0.2,0,0.2h-2.1v0.2h2.8c0-0.5-0.2-0.9-0.5-1.2
	C123.4,534.3,122.9,534.2,122.5,534.2 M130,534.2c-1.3,0-2.3,1-2.3,2.3l0,0c0,1.3,1,2.3,2.3,2.3c0.6,0,1.1-0.2,1.6-0.6l-0.2-0.3
	c-0.3,0.4-0.8,0.7-1.3,0.7s-0.9-0.2-1.2-0.6c-0.3-0.4-0.4-0.9-0.4-1.4s0.1-1,0.4-1.4c0.2-0.4,0.7-0.6,1.1-0.6c0.5,0,0.9,0.2,1.2,0.5
	l0.2-0.3C131,534.3,130.5,534.2,130,534.2 M134.8,538.5c-0.4,0-0.9-0.2-1.1-0.6c-0.6-0.9-0.6-2,0-2.9c0.2-0.4,0.7-0.6,1.1-0.6
	c0.4,0,0.9,0.2,1.1,0.6c0.6,0.9,0.6,2,0,2.9C135.7,538.2,135.2,538.5,134.8,538.5 M134.8,534.1c-0.6,0-1.2,0.2-1.6,0.7
	c-0.9,0.9-0.9,2.3,0,3.2l0,0c0.4,0.4,1,0.7,1.6,0.7s1.2-0.2,1.6-0.7c0.9-0.9,0.9-2.3,0-3.2C136,534.4,135.4,534.1,134.8,534.1
	 M143.3,534.1c-0.5,0-1,0.3-1.3,0.7c-0.2-0.5-0.8-0.8-1.3-0.7c-0.5,0-1,0.2-1.3,0.7v-0.6h-0.7v4.4h0.7v-3.1c0.1-0.3,0.3-0.6,0.6-0.9
	c0.2-0.2,0.4-0.3,0.7-0.3c0.2,0,0.5,0.1,0.6,0.3c0.2,0.3,0.2,0.6,0.2,0.9v3.1h0.7v-3.2c0.1-0.6,0.6-1,1.2-1.1c0.2,0,0.5,0.1,0.6,0.3
	c0.2,0.3,0.2,0.6,0.2,0.9v3.1h0.7v-3.1c0.1-0.7-0.4-1.3-1.1-1.4C143.6,534.1,143.5,534.1,143.3,534.1 M147.3,531.8h-0.7v6.8h0.7
	v-0.4c0.3,0.3,0.7,0.5,1.1,0.5c0.6,0,1.1-0.2,1.4-0.7c0.4-0.4,0.6-1,0.6-1.6s-0.2-1.2-0.6-1.6c-0.4-0.4-0.9-0.7-1.4-0.7
	c-0.3,0-0.6,0.1-0.8,0.2l0.2,0.2c0.2-0.1,0.4-0.2,0.6-0.2c0.4,0,0.8,0.2,1,0.6c0.5,0.9,0.5,2,0,3c-0.2,0.4-0.6,0.6-1,0.6
	c-0.2,0-0.5-0.1-0.6-0.3c-0.2-0.2-0.4-0.4-0.4-0.7L147.3,531.8 M152.8,534.2h-0.7v4.4h0.7V534.2 M152.5,531.8l-0.3,0.1l-0.1,0.3
	l0.1,0.3l0.3,0.1l0.3-0.1l0.1-0.3l-0.1-0.3L152.5,531.8 M156.7,534.1c-0.6,0-1.1,0.3-1.4,0.7v-0.6h-0.7v4.4h0.7v-3.1
	c0.1-0.7,0.7-1.2,1.3-1.2c0.7,0,1,0.4,1,1.4v2.9h0.7v-2.9c0-0.5-0.1-0.9-0.4-1.3C157.6,534.2,157.2,534.1,156.7,534.1 M161.7,534.1
	c-0.4,0-0.9,0.1-1.2,0.3l0.2,0.2c0.3-0.2,0.7-0.4,1.1-0.4c0.7,0,1,0.5,1,1.4v2c-0.2,0.4-0.6,0.7-1.1,0.7c-0.3,0-0.5-0.1-0.7-0.3
	s-0.3-0.5-0.3-0.8s0.1-0.6,0.2-0.9c0.1-0.2,0.4-0.3,0.6-0.3c0.3,0,0.5,0.1,0.8,0.2l0.1-0.2c-0.2-0.1-0.4-0.2-0.6-0.2h-0.3
	c-0.4,0-0.7,0.1-1,0.4c-0.3,0.3-0.5,0.7-0.5,1.1c0,0.4,0.2,0.8,0.5,1s0.7,0.4,1.1,0.4c0.4,0,0.8-0.1,1.1-0.4v0.3h0.7v-2.8l0,0
	c0.1-0.8-0.4-1.5-1.2-1.6C162,534.1,161.8,534.1,161.7,534.1 M166,533.7h-0.7v0.5H165v0.2h0.4v2.8c-0.1,0.7,0.4,1.4,1.1,1.4
	c0.1,0,0.2,0,0.4,0v-0.2c-0.2,0-0.5-0.1-0.6-0.3c-0.1-0.3-0.2-0.6-0.2-0.9v-2.8h0.8v-0.2H166V533.7 M169.1,534.2h-0.7v4.4h0.7V534.2
	 M168.8,531.8l-0.3,0.1l-0.1,0.3l0.1,0.3l0.3,0.1l0.3-0.1l0.1-0.3l-0.1-0.3L168.8,531.8 M173.1,538.5c-0.4,0-0.9-0.2-1.1-0.6
	c-0.6-0.9-0.6-2,0-2.9c0.4-0.6,1.2-0.8,1.9-0.4c0.1,0.1,0.3,0.2,0.4,0.4c0.6,0.9,0.6,2,0,2.9C174,538.2,173.6,538.5,173.1,538.5
	 M173.1,534.1c-0.6,0-1.2,0.2-1.6,0.7c-0.9,0.9-0.9,2.3,0,3.2l0,0c0.9,0.9,2.3,0.9,3.2,0c0.4-0.4,0.7-1,0.7-1.6s-0.2-1.2-0.7-1.6
	C174.3,534.4,173.8,534.1,173.1,534.1 M179.1,534.1c-0.5,0-1.1,0.3-1.4,0.7v-0.6H177v4.4h0.7v-3.1c0.1-0.7,0.7-1.2,1.3-1.2
	s1,0.4,1,1.4v2.9h0.7v-2.9c0-0.5-0.1-0.9-0.4-1.3C180,534.2,179.6,534.1,179.1,534.1 M186.8,538.5c-0.4,0-0.9-0.2-1.1-0.6
	c-0.6-0.9-0.6-2,0-2.9c0.2-0.4,0.7-0.6,1.1-0.6c0.4,0,0.9,0.2,1.1,0.6c0.6,0.9,0.6,2,0,2.9C187.7,538.2,187.3,538.4,186.8,538.5
	 M186.8,534.1c-0.6,0-1.2,0.2-1.6,0.7c-0.9,0.9-0.9,2.3,0,3.2l0,0c0.4,0.4,1,0.7,1.6,0.7s1.2-0.2,1.6-0.7c0.9-0.9,0.9-2.3,0-3.2
	C188,534.4,187.4,534.1,186.8,534.1 M192.5,531.8c-0.7-0.1-1.4,0.4-1.5,1.1c0,0.1,0,0.2,0,0.4v1h-0.4v0.2h0.4v4.2h0.7v-4.2h0.9v-0.2
	h-0.9v-1c0-0.3,0-0.7,0.2-0.9s0.4-0.3,0.7-0.3L192.5,531.8 M198.2,534.1c-0.5,0-1.1,0.3-1.4,0.7v-0.6h-0.7v4.4h0.7v-3.1
	c0.1-0.7,0.6-1.2,1.3-1.2s1,0.4,1,1.4v2.9h0.7v-2.9c0-0.5-0.1-0.9-0.4-1.3C199,534.2,198.6,534.1,198.2,534.1 M203.2,534.1
	c-0.4,0-0.9,0.1-1.2,0.3l0.2,0.2c0.3-0.2,0.7-0.4,1.1-0.4c0.7,0,1,0.5,1,1.4v2c-0.2,0.4-0.6,0.7-1.1,0.7c-0.3,0-0.5-0.1-0.7-0.3
	s-0.3-0.5-0.3-0.8s0.1-0.6,0.2-0.9c0.1-0.2,0.4-0.3,0.6-0.3c0.3,0,0.5,0.1,0.8,0.2l0.1-0.2c-0.2-0.1-0.4-0.2-0.6-0.2H203
	c-0.4,0-0.7,0.1-1,0.4c-0.3,0.3-0.5,0.7-0.5,1.1c0,0.4,0.2,0.8,0.5,1s0.7,0.4,1.1,0.4c0.4,0,0.8-0.1,1.1-0.4v0.3h0.7v-2.8l0,0
	c0.1-0.8-0.4-1.5-1.2-1.6C203.4,534.1,203.3,534.1,203.2,534.1 M207.5,533.7h-0.7v0.5h-0.4v0.2h0.4v2.8c-0.1,0.7,0.4,1.4,1.1,1.4
	c0.1,0,0.2,0,0.4,0v-0.2c-0.2,0-0.5-0.1-0.6-0.3c-0.2-0.3-0.2-0.6-0.2-0.9v-2.8h0.8v-0.2h-0.8V533.7 M213.5,534.2h-0.7v2.8
	c-0.1,0.3-0.2,0.6-0.3,0.8c-0.2,0.4-0.6,0.6-1,0.7c-0.6,0-1-0.4-1-1.4v-2.9h-0.7v2.9c-0.1,0.8,0.4,1.5,1.2,1.6c0.1,0,0.3,0,0.4,0
	c0.6,0,1.1-0.3,1.4-0.9v0.8h0.7L213.5,534.2 M216.9,534.2c-0.2,0-0.4,0-0.5,0.2c-0.1,0.1-0.2,0.2-0.3,0.4v-0.5h-0.7v4.4h0.7v-2.9
	l0,0c-0.1-0.5,0.1-0.9,0.4-1.2l0.3-0.1c0.2,0,0.4,0.1,0.5,0.2l0.2-0.3C217.3,534.2,217.1,534.2,216.9,534.2 M220.4,534.1
	c-0.4,0-0.9,0.1-1.2,0.3l0.2,0.2c0.3-0.2,0.7-0.4,1.1-0.4c0.7,0,1,0.5,1,1.4v2c-0.2,0.4-0.6,0.7-1.1,0.7c-0.3,0-0.5-0.1-0.7-0.3
	s-0.3-0.5-0.3-0.8s0.1-0.6,0.2-0.9c0.1-0.2,0.4-0.3,0.6-0.3c0.3,0,0.5,0.1,0.8,0.2l0.1-0.2c-0.2-0.1-0.4-0.2-0.6-0.2h-0.3
	c-0.4,0-0.7,0.1-1,0.4c-0.3,0.3-0.5,0.7-0.5,1.1c0,0.4,0.2,0.8,0.5,1s0.7,0.4,1.1,0.4c0.4,0,0.8-0.1,1.1-0.4v0.3h0.7v-2.8l0,0
	c0.1-0.8-0.4-1.5-1.2-1.6C220.6,534.1,220.5,534.1,220.4,534.1 M224.5,531.8h-0.7v6.8h0.7V531.8 M229,531.8h-0.7v6.8h0.7V531.8
	 M232.4,534.1c-0.4,0-0.9,0.1-1.2,0.3l0.2,0.2c0.3-0.2,0.7-0.4,1.1-0.4c0.7,0,1,0.5,1,1.4v2c-0.2,0.4-0.6,0.7-1.1,0.7
	c-0.3,0-0.5-0.1-0.7-0.3s-0.3-0.5-0.3-0.8s0.1-0.6,0.2-0.9c0.1-0.2,0.4-0.3,0.7-0.3s0.5,0.1,0.7,0.2l0.1-0.2
	c-0.2-0.1-0.4-0.2-0.6-0.2h-0.3c-0.4,0-0.7,0.1-1,0.4c-0.3,0.3-0.5,0.7-0.5,1.1c0,0.4,0.2,0.8,0.5,1s0.7,0.4,1.1,0.4
	c0.4,0,0.8-0.1,1.1-0.4v0.3h0.7v-2.8l0,0c0.1-0.8-0.4-1.5-1.2-1.6C232.6,534.1,232.5,534.1,232.4,534.1 M237.9,534.1
	c-0.6,0-1.1,0.3-1.4,0.7v-0.6h-0.7v4.4h0.7v-3.1c0.1-0.7,0.7-1.2,1.3-1.2s1,0.4,1,1.4v2.9h0.7v-2.9c0-0.5-0.1-0.9-0.4-1.3
	C238.7,534.2,238.3,534.1,237.9,534.1 M245,531.8h-0.7v5.7c-0.1,0.3-0.2,0.5-0.4,0.7s-0.4,0.3-0.6,0.3c-0.4,0-0.8-0.2-1-0.6
	c-0.3-0.4-0.4-1-0.4-1.5s0.1-1,0.4-1.5c0.2-0.3,0.5-0.6,0.9-0.6c0.2,0,0.5,0.1,0.7,0.2l0.1-0.3c-0.3-0.1-0.5-0.2-0.8-0.2
	c-0.6,0-1.1,0.2-1.4,0.7c-0.4,0.4-0.6,1-0.6,1.6s0.2,1.2,0.6,1.6c0.4,0.4,0.9,0.7,1.4,0.7c0.4,0,0.8-0.2,1.1-0.5v0.4h0.7V531.8
	 M248.1,534.1c-0.3,0-0.6,0.1-0.9,0.2c-0.3,0.2-0.4,0.5-0.4,0.8c0,0.5,0.3,0.9,0.7,1.2c0.4,0.2,0.7,0.4,0.8,0.6
	c0.3,0.2,0.4,0.4,0.4,0.7c0,0.2-0.1,0.4-0.2,0.6c-0.2,0.2-0.4,0.2-0.6,0.2c-0.4,0-0.8-0.2-1.1-0.6l-0.2,0.3c0.3,0.3,0.8,0.5,1.3,0.5
	c0.3,0,0.7-0.1,0.9-0.3s0.4-0.5,0.4-0.8c0-0.5-0.2-1-0.6-1.2c-0.1-0.1-0.4-0.3-0.9-0.7c-0.3-0.1-0.5-0.4-0.4-0.8
	c0-0.3,0.4-0.6,0.7-0.6c0,0,0,0,0.1,0c0.4,0,0.7,0.2,0.9,0.5l0.2-0.2c-0.1-0.2-0.3-0.3-0.5-0.4C248.5,534.2,248.3,534.2,248.1,534.1
	 M253,534.2c-1.3,0-2.3,1-2.3,2.3l0,0c0,1.3,1,2.3,2.3,2.3c0.6,0,1.1-0.2,1.6-0.6l-0.2-0.3c-0.3,0.4-0.8,0.7-1.3,0.7
	s-0.9-0.2-1.2-0.6c-0.3-0.4-0.4-0.9-0.4-1.4s0.1-1,0.4-1.4c0.2-0.4,0.7-0.6,1.1-0.6c0.5,0,0.9,0.2,1.2,0.5l0.2-0.3
	C254,534.3,253.5,534.2,253,534.2 M257.4,534.1c-0.4,0-0.9,0.1-1.2,0.3l0.2,0.2c0.3-0.2,0.7-0.4,1.1-0.4c0.7,0,1,0.5,1,1.4v2
	c-0.2,0.4-0.6,0.7-1.1,0.7c-0.3,0-0.5-0.1-0.7-0.3s-0.3-0.5-0.3-0.8s0.1-0.6,0.2-0.9c0.1-0.2,0.4-0.3,0.6-0.3c0.3,0,0.5,0.1,0.7,0.2
	l0.1-0.2c-0.2-0.1-0.4-0.2-0.6-0.2h-0.3c-0.4,0-0.7,0.1-1,0.4c-0.3,0.3-0.5,0.7-0.5,1.1c0,0.4,0.2,0.8,0.5,1
	c0.3,0.2,0.7,0.4,1.1,0.4s0.8-0.1,1.1-0.4v0.3h0.7v-2.8l0,0c0.1-0.8-0.4-1.5-1.2-1.6C257.7,534.1,257.5,534.1,257.4,534.1
	 M262.7,534.2c-0.4,0-0.8,0.2-1.1,0.5v-0.4h-0.7v6h0.7v-5c0.1-0.3,0.2-0.5,0.4-0.7c0.2-0.2,0.4-0.3,0.6-0.3c0.4,0,0.8,0.2,1,0.6
	c0.3,0.4,0.4,1,0.4,1.5s-0.1,1-0.4,1.4c-0.2,0.3-0.5,0.6-0.9,0.6c-0.2,0-0.5-0.1-0.7-0.2l-0.1,0.2c0.2,0.1,0.5,0.2,0.8,0.2
	c0.6,0,1.1-0.2,1.4-0.7c0.7-0.9,0.7-2.3,0-3.2C263.7,534.5,263.2,534.2,262.7,534.2 M268.4,534.2c-0.6,0-1.2,0.2-1.6,0.7
	c-0.4,0.4-0.6,1-0.6,1.6c0,1.3,1,2.3,2.3,2.3l0,0c0.6,0,1.1-0.2,1.6-0.6l-0.2-0.2c-0.3,0.4-0.8,0.7-1.3,0.7s-0.9-0.2-1.2-0.6
	c-0.3-0.4-0.4-1-0.4-1.5s0.1-1,0.4-1.5c0.2-0.4,0.6-0.6,1.1-0.6c0.6,0,1.1,0.5,1.1,1c0,0.1,0,0.2,0,0.2h-2.1v0.2h2.8
	c0-0.5-0.2-0.9-0.5-1.2C269.4,534.3,268.9,534.1,268.4,534.2 M53.9,546.4c-0.4,0-0.9,0.1-1.2,0.3l0.2,0.2
	C53.2,546.7,53.6,546.5,53.9,546.4c0.8,0.1,1.1,0.6,1.1,1.5v2c-0.2,0.4-0.6,0.7-1.1,0.7c-0.3,0-0.5-0.1-0.7-0.3s-0.3-0.5-0.3-0.8
	s0.1-0.6,0.2-0.9c0.1-0.2,0.4-0.3,0.6-0.3c0.3,0,0.5,0.1,0.7,0.2l0.1-0.2c-0.2-0.1-0.4-0.2-0.6-0.2h-0.3c-0.4,0-0.7,0.1-1,0.4
	c-0.3,0.3-0.5,0.7-0.5,1.1c0,0.4,0.2,0.8,0.5,1s0.7,0.4,1.1,0.3c0.4,0,0.8-0.1,1.1-0.4v0.3h0.7V548c0.1-0.8-0.4-1.5-1.2-1.6
	C54.2,546.4,54,546.4,53.9,546.4 M59.4,546.4c-0.5,0-1.1,0.3-1.4,0.7v-0.6h-0.7v4.4H58v-3.1c0.1-0.7,0.7-1.2,1.3-1.2s1,0.5,1,1.4
	v2.9H61V548c0-0.5-0.1-0.9-0.4-1.3C60.3,546.5,59.8,546.3,59.4,546.4 M66.5,544.1h-0.7v5.7c-0.1,0.3-0.2,0.5-0.4,0.7
	c-0.2,0.2-0.4,0.3-0.6,0.3c-0.4,0-0.8-0.2-1-0.6c-0.3-0.4-0.4-1-0.4-1.5s0.1-1,0.4-1.5c0.2-0.3,0.5-0.5,0.9-0.6
	c0.2,0,0.5,0.1,0.7,0.2l0.1-0.3c-0.3-0.1-0.5-0.2-0.8-0.2c-0.6,0-1.1,0.2-1.5,0.7c-0.8,0.9-0.8,2.3,0,3.2c0.4,0.4,0.9,0.7,1.5,0.7
	c0.4,0,0.8-0.2,1.1-0.5v0.4h0.7L66.5,544.1 M72,546.4c-0.4,0-0.9,0.1-1.2,0.3l0.2,0.2C71.3,546.7,71.7,546.5,72,546.4
	c0.8,0.1,1.1,0.6,1.1,1.5v2c-0.2,0.4-0.6,0.7-1.1,0.7c-0.3,0-0.5-0.1-0.7-0.3s-0.3-0.5-0.3-0.8s0.1-0.6,0.2-0.9
	c0.1-0.2,0.4-0.3,0.7-0.3c0.3,0,0.5,0.1,0.7,0.2l0.1-0.2c-0.2-0.1-0.4-0.2-0.6-0.2h-0.3c-0.4,0-0.7,0.1-1,0.4
	c-0.3,0.3-0.5,0.7-0.5,1.1c0,0.4,0.2,0.8,0.5,1s0.7,0.4,1.1,0.3c0.4,0,0.8-0.1,1.1-0.4v0.3h0.7V548c0.1-0.8-0.4-1.5-1.2-1.6
	C72.3,546.4,72.2,546.4,72,546.4 M77,546.4c-0.2,0-0.4,0.1-0.5,0.2c-0.1,0.1-0.3,0.2-0.3,0.4v-0.5h-0.7v4.4h0.7V548l0,0
	c-0.1-0.5,0.1-0.9,0.4-1.2l0.3-0.1c0.2,0,0.4,0.1,0.5,0.2l0.2-0.3C77.4,546.5,77.2,546.4,77,546.4 M80.1,546h-0.7v0.5H79v0.2h0.4
	v2.8c-0.1,0.7,0.4,1.4,1.1,1.4c0.1,0,0.2,0,0.4,0v-0.2c-0.2,0-0.5-0.1-0.6-0.3c-0.1-0.3-0.2-0.6-0.2-0.9v-2.8H81v-0.2h-0.8L80.1,546
	 M83.2,546.5h-0.7v4.4h0.7V546.5 M82.9,544.1l-0.3,0.1l-0.1,0.3l0.1,0.3l0.3,0.1l0.3-0.1l0.1-0.3l-0.1-0.3L82.9,544.1 M86.3,546.4
	c-0.3,0-0.6,0.1-0.9,0.2c-0.3,0.2-0.4,0.5-0.4,0.8c0,0.5,0.3,0.9,0.8,1.2c0.4,0.2,0.6,0.4,0.8,0.6c0.2,0.2,0.4,0.4,0.4,0.7
	c0,0.2-0.1,0.4-0.2,0.6c-0.2,0.2-0.4,0.3-0.6,0.2c-0.4,0-0.8-0.2-1.1-0.6l-0.2,0.3c0.3,0.3,0.8,0.5,1.3,0.5c0.3,0,0.7-0.1,0.9-0.3
	c0.2-0.2,0.4-0.5,0.4-0.8c0.1-0.5-0.2-0.9-0.6-1.2c-0.1-0.1-0.5-0.3-1-0.7c-0.3-0.1-0.5-0.4-0.5-0.8c0-0.4,0.4-0.6,0.7-0.6l0,0
	c0.4,0,0.7,0.2,0.9,0.5l0.2-0.2c-0.1-0.2-0.3-0.3-0.5-0.4C86.7,546.5,86.5,546.4,86.3,546.4 M90,546h-0.7v0.5H89v0.2h0.4v2.8
	c-0.1,0.7,0.4,1.4,1.1,1.4c0.1,0,0.2,0,0.4,0v-0.2c-0.2,0-0.5-0.1-0.6-0.3c-0.2-0.3-0.2-0.6-0.2-0.9v-2.8h0.8v-0.2H90V546
	 M93.1,546.5h-0.7v4.4h0.7V546.5 M92.8,544.1l-0.3,0.1l-0.1,0.3l0.1,0.3l0.3,0.1l0.3-0.1l0.1-0.3l-0.1-0.3L92.8,544.1 M97.1,546.4
	c-1.3,0-2.3,1-2.3,2.3s1,2.3,2.3,2.3l0,0c0.6,0,1.1-0.2,1.6-0.6l-0.2-0.3c-0.3,0.4-0.8,0.7-1.3,0.7s-0.9-0.2-1.2-0.6
	c-0.3-0.4-0.4-0.9-0.4-1.4s0.1-1,0.4-1.4c0.2-0.4,0.7-0.6,1.1-0.6c0.5,0,0.9,0.2,1.2,0.5l0.2-0.3C98.1,546.6,97.6,546.4,97.1,546.4
	 M103.9,546.4c-0.6,0-1.2,0.2-1.6,0.7c-0.9,0.9-0.9,2.4,0,3.2c0.4,0.4,1,0.6,1.6,0.6s1.1-0.2,1.6-0.6l-0.2-0.3
	c-0.3,0.4-0.8,0.7-1.3,0.7s-0.9-0.2-1.2-0.6c-0.3-0.4-0.4-1-0.4-1.5s0.1-1,0.4-1.5c0.2-0.4,0.6-0.6,1.1-0.6c0.6,0,1.1,0.5,1.1,1.1
	c0,0.1,0,0.1,0,0.2h-2.1v0.2h2.8c0-0.5-0.2-0.9-0.5-1.2C104.8,546.6,104.4,546.4,103.9,546.4 M110.6,546.5l-1.4,1.7l-1.2-1.7h-0.8
	l1.6,2.2l-1.8,2.2h0.2l1.7-2l1.4,2h0.8l-1.8-2.6l1.5-1.9L110.6,546.5 M114.2,546.5c-0.4,0-0.8,0.2-1.1,0.5v-0.4h-0.7v6.1h0.7v-5
	c0.1-0.3,0.2-0.5,0.4-0.7c0.2-0.2,0.4-0.3,0.6-0.3c0.4,0,0.8,0.2,1,0.6c0.3,0.4,0.4,0.9,0.4,1.5c0,0.5-0.1,1-0.4,1.4
	c-0.2,0.3-0.5,0.6-0.9,0.6c-0.2,0-0.5-0.1-0.7-0.2l-0.1,0.2c0.3,0.1,0.5,0.2,0.8,0.2c0.6,0,1.1-0.2,1.4-0.7c0.4-0.4,0.6-1,0.6-1.6
	s-0.2-1.1-0.6-1.6C115.3,546.7,114.8,546.5,114.2,546.5 M119.4,546.4c-0.2,0-0.4,0.1-0.5,0.2c-0.1,0.1-0.3,0.2-0.3,0.4v-0.5h-0.7
	v4.4h0.7V548l0,0c-0.1-0.5,0.1-0.9,0.4-1.2l0.3-0.1c0.2,0,0.4,0.1,0.5,0.2l0.2-0.3C119.8,546.5,119.6,546.4,119.4,546.4
	 M123.3,546.4c-0.6,0-1.2,0.2-1.6,0.7c-0.9,0.9-0.9,2.4,0,3.2c0.4,0.4,1,0.7,1.6,0.6c0.6,0,1.1-0.2,1.6-0.6l-0.2-0.3
	c-0.3,0.4-0.8,0.7-1.3,0.7s-0.9-0.2-1.2-0.6c-0.3-0.4-0.4-1-0.4-1.5s0.1-1,0.4-1.5c0.2-0.4,0.6-0.6,1.1-0.6c0.6,0,1.1,0.5,1.1,1.1
	c0,0.1,0,0.1,0,0.2h-2.1v0.2h2.8c0-0.5-0.2-0.9-0.5-1.2C124.2,546.6,123.7,546.4,123.3,546.4 M127.9,546.4c-0.3,0-0.6,0.1-0.9,0.2
	c-0.3,0.2-0.4,0.5-0.4,0.8c0,0.5,0.3,0.9,0.7,1.2c0.4,0.2,0.7,0.4,0.8,0.6c0.2,0.2,0.4,0.4,0.4,0.7c0,0.2-0.1,0.4-0.2,0.6
	c-0.2,0.2-0.4,0.3-0.6,0.2c-0.4,0-0.8-0.2-1.1-0.6l-0.2,0.3c0.3,0.3,0.8,0.5,1.3,0.5c0.3,0,0.7-0.1,0.9-0.3s0.4-0.5,0.4-0.8
	c0-0.5-0.2-0.9-0.6-1.2c-0.1-0.1-0.4-0.3-0.9-0.7c-0.3-0.1-0.5-0.4-0.4-0.8c0-0.4,0.4-0.6,0.7-0.6l0,0c0.4,0,0.7,0.2,0.9,0.5
	l0.2-0.2c-0.1-0.2-0.3-0.3-0.5-0.4C128.3,546.5,128.1,546.4,127.9,546.4 M132,546.4c-0.3,0-0.6,0.1-0.9,0.2
	c-0.3,0.2-0.4,0.5-0.4,0.8c0,0.5,0.3,0.9,0.7,1.2c0.4,0.2,0.6,0.4,0.8,0.6c0.2,0.2,0.4,0.4,0.4,0.7c0,0.2-0.1,0.4-0.2,0.6
	c-0.2,0.2-0.4,0.3-0.6,0.2c-0.4,0-0.8-0.2-1.1-0.6l-0.2,0.3c0.3,0.3,0.8,0.5,1.3,0.5c0.3,0,0.7-0.1,0.9-0.3s0.4-0.5,0.4-0.8
	c0-0.5-0.2-0.9-0.6-1.2c-0.1-0.1-0.5-0.3-0.9-0.7c-0.3-0.1-0.5-0.4-0.4-0.8c0-0.4,0.4-0.6,0.7-0.6l0,0c0.4,0,0.7,0.2,0.9,0.5
	l0.2-0.2c-0.1-0.2-0.3-0.3-0.5-0.4C132.4,546.5,132.2,546.4,132,546.4 M135.5,546.5h-0.7v4.4h0.7V546.5 M135.2,544.1l-0.3,0.1
	l-0.1,0.3l0.1,0.3l0.3,0.1l0.3-0.1l0.1-0.3l-0.1-0.3L135.2,544.1 M139.5,550.8c-0.4,0-0.9-0.2-1.1-0.6c-0.6-0.9-0.6-2,0-2.9
	c0.3-0.4,0.7-0.6,1.1-0.6c0.4,0,0.9,0.2,1.1,0.6c0.6,0.9,0.6,2,0,2.9C140.4,550.5,139.9,550.7,139.5,550.8 M139.5,546.4
	c-0.6,0-1.2,0.2-1.6,0.7c-0.4,0.4-0.7,1-0.7,1.6s0.2,1.2,0.7,1.6c0.9,0.9,2.3,0.9,3.2,0l0,0c0.4-0.4,0.7-1,0.7-1.6s-0.2-1.2-0.7-1.6
	C140.7,546.7,140.1,546.4,139.5,546.4 M145.5,546.4c-0.5,0-1.1,0.3-1.4,0.7v-0.6h-0.7v4.4h0.7v-3.1c0.1-0.7,0.6-1.2,1.3-1.2
	s1,0.5,1,1.4v2.9h0.7V548c0-0.5-0.1-0.9-0.4-1.3C146.3,546.5,145.9,546.4,145.5,546.4 M149.3,550.2l-0.3,0.1l-0.1,0.3l0.1,0.3
	l0.3,0.1l0.3-0.1l0.1-0.3l-0.1-0.3L149.3,550.2"/>
</svg>
