<?xml version="1.0" encoding="utf-8"?>
<!-- Generator: Adobe Illustrator 27.0.0, SVG Export Plug-In . SVG Version: 6.00 Build 0)  -->
<svg version="1.1" id="圖層_1" xmlns="http://www.w3.org/2000/svg" xmlns:xlink="http://www.w3.org/1999/xlink" x="0px" y="0px"
	 viewBox="0 0 21 21" style="enable-background:new 0 0 21 21;" xml:space="preserve">
<style type="text/css">
	.st0{fill:#C9A063;enable-background:new    ;}
</style>
<path class="st0" d="M10.5,21c-5.5,0-10-4.7-10-10.5C0.5,4.7,4.9,0,10.5,0c5.5,0,10,4.7,10,10.5C20.5,16.3,16,21,10.5,21z
	 M10.5,11.3c1.3,0,2.6,0,3.9,0c0.2,0,0.4-0.1,0.5-0.2c0.3-0.2,0.4-0.5,0.3-0.8c-0.1-0.4-0.4-0.6-0.8-0.6c-1,0-2,0-2.9,0
	c-1.6,0-3.3,0-4.9,0c-0.3,0-0.6,0.1-0.8,0.4c-0.3,0.5,0.1,1.1,0.7,1.1C7.9,11.3,9.2,11.3,10.5,11.3z M12,6.6c-0.8,0-1.6,0-2.4,0
	c-0.5,0-0.8,0.3-0.8,0.8c0,0.4,0.3,0.8,0.8,0.8c1.6,0,3.3,0,4.9,0c0.2,0,0.4-0.1,0.5-0.2c0.3-0.2,0.4-0.5,0.3-0.8
	c-0.1-0.3-0.4-0.5-0.7-0.6C13.6,6.6,12.8,6.6,12,6.6z M9,14.4c0.8,0,1.7,0,2.5,0c0.4,0,0.8-0.3,0.8-0.8c0-0.4-0.3-0.8-0.8-0.8
	c-1.7,0-3.3,0-5,0c-0.3,0-0.6,0.2-0.7,0.5c-0.2,0.5,0.1,1.1,0.7,1.1C7.4,14.4,8.2,14.4,9,14.4z"/>
</svg>
