<?xml version="1.0" encoding="utf-8"?>
<!-- Generator: Adobe Illustrator 27.0.0, SVG Export Plug-In . SVG Version: 6.00 Build 0)  -->
<svg version="1.1" id="圖層_1" xmlns="http://www.w3.org/2000/svg" xmlns:xlink="http://www.w3.org/1999/xlink" x="0px" y="0px"
	 viewBox="0 0 63 66.1" style="enable-background:new 0 0 63 66.1;" xml:space="preserve">
<style type="text/css">
	.st0{fill:url(#SVGID_1_);}
	.st1{fill:url(#SVGID_00000039108887938535017110000004810179330113294504_);}
</style>
<g>
	<linearGradient id="SVGID_1_" gradientUnits="userSpaceOnUse" x1="3.445" y1="63.0421" x2="41.2707" y2="15.8618">
		<stop  offset="0" style="stop-color:#C9C59B"/>
		<stop  offset="3.822083e-02" style="stop-color:#C8C194"/>
		<stop  offset="9.205237e-02" style="stop-color:#C5B482"/>
		<stop  offset="0.1548" style="stop-color:#C0A064"/>
		<stop  offset="0.2143" style="stop-color:#BB8941"/>
		<stop  offset="0.2531" style="stop-color:#BD8D48"/>
		<stop  offset="0.3077" style="stop-color:#C4995A"/>
		<stop  offset="0.3717" style="stop-color:#CFAC78"/>
		<stop  offset="0.4424" style="stop-color:#DFC6A2"/>
		<stop  offset="0.4565" style="stop-color:#E2CCAB"/>
		<stop  offset="0.5232" style="stop-color:#E6D3B1"/>
		<stop  offset="0.6169" style="stop-color:#F1E5C2"/>
		<stop  offset="0.6795" style="stop-color:#FAF5D1"/>
		<stop  offset="0.7154" style="stop-color:#F3E9C2"/>
		<stop  offset="0.8465" style="stop-color:#DBC18E"/>
		<stop  offset="0.9454" style="stop-color:#CDA86E"/>
		<stop  offset="1" style="stop-color:#C79F62"/>
	</linearGradient>
	<path class="st0" d="M1.1,66C1,66,1,66.1,1,66.1C1,66,1.1,66,1.1,66z"/>
	
		<linearGradient id="SVGID_00000032645828901982322460000013397278784520540819_" gradientUnits="userSpaceOnUse" x1="10.7937" y1="68.9352" x2="48.6083" y2="21.7687">
		<stop  offset="0" style="stop-color:#C9C59B"/>
		<stop  offset="3.822083e-02" style="stop-color:#C8C194"/>
		<stop  offset="9.205237e-02" style="stop-color:#C5B482"/>
		<stop  offset="0.1548" style="stop-color:#C0A064"/>
		<stop  offset="0.2143" style="stop-color:#BB8941"/>
		<stop  offset="0.2531" style="stop-color:#BD8D48"/>
		<stop  offset="0.3077" style="stop-color:#C4995A"/>
		<stop  offset="0.3717" style="stop-color:#CFAC78"/>
		<stop  offset="0.4424" style="stop-color:#DFC6A2"/>
		<stop  offset="0.4565" style="stop-color:#E2CCAB"/>
		<stop  offset="0.5232" style="stop-color:#E6D3B1"/>
		<stop  offset="0.6169" style="stop-color:#F1E5C2"/>
		<stop  offset="0.6795" style="stop-color:#FAF5D1"/>
		<stop  offset="0.7154" style="stop-color:#F3E9C2"/>
		<stop  offset="0.8465" style="stop-color:#DBC18E"/>
		<stop  offset="0.9454" style="stop-color:#CDA86E"/>
		<stop  offset="1" style="stop-color:#C79F62"/>
	</linearGradient>
	<path style="fill:url(#SVGID_00000032645828901982322460000013397278784520540819_);" d="M47.8,60.5V39.8
		C58.6,48.3,58,63.1,58,63.1c3.2-14.1-8.4-24.5-8.4-24.5c-0.6-0.5-1.2-1-1.8-1.4V2.9l-3.9,3.2v28.6c-0.5-0.3-1-0.5-1.5-0.7V7.3
		l-3.9,2.9v22.3c-0.4-0.1-0.8-0.2-1.2-0.3V11.4l-3.9,2.9v17.3c-1-0.1-2-0.1-2.9,0V11.4l-3.9-2.9v23.6c-0.6,0.1-1.1,0.3-1.6,0.4
		l0.1-25.3l-3.6-2.9V34c-0.5,0.2-1,0.5-1.5,0.7V3.2L16.2,0v37.1C2.8,46.9,6,63.5,6,63.7c-1.6,0.7-3.2,1.4-4.9,2.3
		c2.1-1,25.6-11.7,61.8,0.1C63,66.1,57.1,62.8,47.8,60.5z M43.9,37.3v22.4c-0.5-0.1-1-0.2-1.5-0.2V36.6
		C42.9,36.9,43.4,37.1,43.9,37.3z M38.6,35.3V59c-0.4,0-0.8-0.1-1.2-0.1V35C37.8,35.1,38.2,35.2,38.6,35.3z M26.7,35v23.8
		c-0.6,0-1.1,0.1-1.7,0.1l0.1-23.5C25.6,35.3,26.1,35.1,26.7,35z M21.6,36.7v22.6c-0.5,0.1-1,0.2-1.5,0.3V37.4
		C20.6,37.2,21.1,36.9,21.6,36.7z M13.4,42.5c0.9-0.9,1.9-1.8,2.8-2.5v20.4c-3.3,0.8-6.7,1.9-10.2,3.4C6.2,48.6,13.4,42.5,13.4,42.5
		z M30.5,58.6V34.5c1.1-0.1,2.1-0.1,2.9,0v24.2C32.5,58.6,31.5,58.6,30.5,58.6z"/>
</g>
</svg>
