<?xml version="1.0" encoding="utf-8"?>
<!-- Generator: Adobe Illustrator 27.0.0, SVG Export Plug-In . SVG Version: 6.00 Build 0)  -->
<svg version="1.1" id="圖層_1" xmlns="http://www.w3.org/2000/svg" xmlns:xlink="http://www.w3.org/1999/xlink" x="0px" y="0px"
	 viewBox="0 0 64 50" style="enable-background:new 0 0 64 50;" xml:space="preserve">
<style type="text/css">
	.st0{fill:#FFFFFF;}
</style>
<g>
	<path class="st0" d="M13.5,34.2c0.2-0.7,0.3-1.4,0.5-2c0.4-1.3,1.2-2.5,2.1-3.4c2.6-2.6,5.1-5.2,7.7-7.7c2.9-2.9,7.2-3.4,10.7-1.3
		c0.8,0.5,1.6,1,2,1.9c0.5,1,0.3,2.2-0.5,2.9c-0.9,0.8-2.2,0.8-3.1,0.1c-0.1-0.1-0.3-0.2-0.4-0.3c-1.4-1.2-3.5-1.2-4.9,0
		c-0.2,0.2-0.5,0.4-0.7,0.7c-2.4,2.4-4.9,4.8-7.3,7.3c-1.3,1.1-1.5,3.1-0.5,4.6c1.3,1.9,4,2.2,5.7,0.5c1.5-1.4,2.9-2.9,4.3-4.3
		c0.1-0.1,0.2-0.2,0.2-0.2c0.2-0.2,0.5-0.3,0.7-0.2c1.3,0.5,2.7,0.8,4.1,0.8c0.3,0,0.5,0.1,0.6,0.4c0.1,0.3,0,0.5-0.2,0.7
		c-0.4,0.4-0.7,0.7-1.1,1.1c-1.9,1.9-3.8,3.8-5.7,5.6c-1.3,1.2-2.9,1.9-4.7,2.2c-0.1,0-0.2,0-0.3,0.1c-0.5,0-1,0-1.4,0
		c-0.1,0-0.3-0.1-0.4-0.1c-3.4-0.5-5.7-2.4-7-5.5c-0.1-1-0.2-1.8-0.4-2.6C13.5,35.1,13.5,34.6,13.5,34.2z"/>
	<path class="st0" d="M32.9,31.6c-1.5-0.1-3.6-0.9-5.2-2.7c-0.8-0.9-0.7-2.3,0.1-3.2c0.8-0.9,2.2-1,3.2-0.3c0.2,0.1,0.3,0.3,0.5,0.4
		c1.4,1.2,3.5,1.2,4.9,0c0.6-0.6,1.2-1.2,1.8-1.8c2-2,4.1-4.1,6.1-6.1c1.3-1.3,1.5-3.3,0.5-4.8c-1.3-1.9-4-2.1-5.7-0.5
		c-1.5,1.4-2.9,2.9-4.4,4.4c-0.4,0.4-0.7,0.5-1.2,0.3c-1.2-0.5-2.5-0.7-3.7-0.7c-0.3,0-0.6-0.1-0.7-0.4c-0.1-0.3,0-0.5,0.2-0.7
		c2.3-2.2,4.5-4.5,6.8-6.7c3.1-2.9,8.3-2.9,11.4,0c3,2.7,3.8,6.7,2,10.3c-0.4,0.8-0.9,1.5-1.5,2.2c-2.6,2.7-5.3,5.4-8,8
		C38.3,30.9,36.2,31.6,32.9,31.6z"/>
</g>
</svg>
