<?xml version="1.0" encoding="utf-8"?>
<!-- Generator: Adobe Illustrator 27.0.0, SVG Export Plug-In . SVG Version: 6.00 Build 0)  -->
<svg version="1.1" id="圖層_1" xmlns="http://www.w3.org/2000/svg" xmlns:xlink="http://www.w3.org/1999/xlink" x="0px" y="0px"
	 viewBox="0 0 64 50" style="enable-background:new 0 0 64 50;" xml:space="preserve">
<style type="text/css">
	.st0{fill:#FFFFFF;}
</style>
<path class="st0" d="M25.5,9.3c0,0.9,0,1.8,0,2.8c0.1,0,0.2,0,0.4,0c2.5,0,5,0,7.5,0c5.7,0,11,3.6,13.1,8.9c0.8,2.2,1.2,4.4,1,6.7
	c-0.6,6-4.8,10.8-10.4,12.4c-1.2,0.3-2.4,0.5-3.7,0.5c0-2.4,0-4.7,0-7c0.6-0.1,1.3-0.2,1.9-0.3c2.9-0.8,4.9-3.2,5.3-6.1
	c0.5-3.7-2.2-7.3-5.9-7.9c-0.5-0.1-1-0.1-1.4-0.1c-2.4,0-4.8,0-7.2,0c-0.1,0-0.2,0-0.4,0c0,0.9,0,1.8,0,2.8c-3-2.1-6-4.2-9-6.3
	c0.7-0.5,1.4-1,2.1-1.5c2-1.6,4.2-3.2,6.4-4.8C25.3,9.4,25.4,9.3,25.5,9.3L25.5,9.3z"/>
</svg>
