<?xml version="1.0" encoding="utf-8"?>
<!-- Generator: Adobe Illustrator 27.0.0, SVG Export Plug-In . SVG Version: 6.00 Build 0)  -->
<svg version="1.1" id="portfolio_hotsale_info_info_link4.svg"
	 xmlns="http://www.w3.org/2000/svg" xmlns:xlink="http://www.w3.org/1999/xlink" x="0px" y="0px" viewBox="0 0 64 50"
	 style="enable-background:new 0 0 64 50;" xml:space="preserve">
<style type="text/css">
	.st0{fill-opacity:0;}
	.st1{fill:#FFFFFF;}
</style>
<rect id="矩形_24_拷貝_3" class="st0" width="64" height="50"/>
<path class="st1" d="M51,23.1c0-8.5-8.5-15.4-19-15.4c-10.5,0-19,6.9-19,15.4c0,7.6,6.8,14,15.9,15.2c0.6,0.1,1.5,0.4,1.7,0.9
	c0.2,0.5,0.1,1.2,0.1,1.7c0,0-0.2,1.3-0.3,1.6c-0.1,0.5-0.4,1.9,1.6,1c2-0.9,10.9-6.4,14.9-11h0C49.7,29.5,51,26.5,51,23.1z
	 M25.3,27.6c0,0.2-0.2,0.4-0.4,0.4h-5.3h0c-0.1,0-0.2,0-0.3-0.1c0,0,0,0,0,0c0,0,0,0,0,0c-0.1-0.1-0.1-0.2-0.1-0.3v0v-8.3
	c0-0.2,0.2-0.4,0.4-0.4h1.3c0.2,0,0.4,0.2,0.4,0.4v6.6h3.6c0.2,0,0.4,0.2,0.4,0.4V27.6z M28.5,27.6c0,0.2-0.2,0.4-0.4,0.4h-1.3
	c-0.2,0-0.4-0.2-0.4-0.4v-8.3c0-0.2,0.2-0.4,0.4-0.4h1.3c0.2,0,0.4,0.2,0.4,0.4V27.6z M37.7,27.6c0,0.2-0.2,0.4-0.4,0.4H36
	c0,0-0.1,0-0.1,0c0,0,0,0,0,0c0,0,0,0,0,0c0,0,0,0,0,0c0,0,0,0,0,0c0,0,0,0,0,0c0,0,0,0,0,0c0,0,0,0,0,0c0,0,0,0,0,0
	c0,0-0.1-0.1-0.1-0.1l-3.8-5.1v4.9c0,0.2-0.2,0.4-0.4,0.4h-1.3c-0.2,0-0.4-0.2-0.4-0.4v-8.3c0-0.2,0.2-0.4,0.4-0.4h1.3c0,0,0,0,0,0
	c0,0,0,0,0,0c0,0,0,0,0,0c0,0,0,0,0,0c0,0,0,0,0,0c0,0,0,0,0,0c0,0,0,0,0,0c0,0,0,0,0,0c0,0,0,0,0,0c0,0,0,0,0,0c0,0,0,0,0,0
	c0,0,0,0,0,0c0,0,0,0,0,0c0,0,0,0,0,0c0,0,0,0,0,0c0,0,0,0,0,0c0,0,0,0,0,0l0,0c0,0,0,0,0,0l3.8,5.1v-4.9c0-0.2,0.2-0.4,0.4-0.4h1.3
	c0.2,0,0.4,0.2,0.4,0.4V27.6z M45,20.6c0,0.2-0.2,0.4-0.4,0.4h-3.6v1.4h3.6c0.2,0,0.4,0.2,0.4,0.4v1.3c0,0.2-0.2,0.4-0.4,0.4h-3.6
	v1.4h3.6c0.2,0,0.4,0.2,0.4,0.4v1.3c0,0.2-0.2,0.4-0.4,0.4h-5.3h0c-0.1,0-0.2,0-0.3-0.1c0,0,0,0,0,0c0,0,0,0,0,0
	C39,27.8,39,27.7,39,27.6v0v-8.3v0c0-0.1,0-0.2,0.1-0.3c0,0,0,0,0,0c0,0,0,0,0,0c0.1-0.1,0.2-0.1,0.3-0.1h0h5.3
	c0.2,0,0.4,0.2,0.4,0.4V20.6z"/>
</svg>
