<?xml version="1.0" encoding="utf-8"?>
<!-- Generator: Adobe Illustrator 27.0.0, SVG Export Plug-In . SVG Version: 6.00 Build 0)  -->
<svg version="1.1" id="圖層_1" xmlns="http://www.w3.org/2000/svg" xmlns:xlink="http://www.w3.org/1999/xlink" x="0px" y="0px"
	 viewBox="0 0 64 50" style="enable-background:new 0 0 64 50;" xml:space="preserve">
<style type="text/css">
	.st0{fill:#FFFFFF;}
</style>
<path class="st0" d="M31.7,46.5c-0.4-0.3-0.8-0.5-1.1-0.9c-3.6-4.2-6.9-8.5-9.6-13.3c-1.6-2.8-3-5.6-3.8-8.7c-1.3-4.6-0.7-9,2-13
	c2.5-3.8,6.1-6.1,10.7-6.7c4.5-0.6,8.5,0.5,11.9,3.4c3.1,2.5,4.9,5.8,5.5,9.7c0.5,3.1-0.1,6-1.2,8.8c-1.4,3.8-3.4,7.3-5.7,10.7
	c-2.2,3.2-4.5,6.3-7.1,9.3c-0.3,0.3-0.7,0.6-1.1,0.9C32.1,46.5,31.9,46.5,31.7,46.5z M32,27c4.3,0,7.8-3.5,7.8-7.8s-3.5-7.8-7.8-7.8
	s-7.8,3.5-7.8,7.8S27.7,27,32,27z"/>
</svg>
