<?xml version="1.0" encoding="utf-8"?>
<!-- Generator: Adobe Illustrator 27.0.0, SVG Export Plug-In . SVG Version: 6.00 Build 0)  -->
<svg version="1.1" id="圖層_1" xmlns="http://www.w3.org/2000/svg" xmlns:xlink="http://www.w3.org/1999/xlink" x="0px" y="0px"
	 viewBox="0 0 64 50" style="enable-background:new 0 0 64 50;" xml:space="preserve">
<style type="text/css">
	.st0{fill:#FFFFFF;}
</style>
<path class="st0" d="M39,4.8c0.7,0.1,1.4,0.1,2,0.2c0.5,0,1,0,1.5,0c0,2.2,0,4.3,0,6.4c-0.2,0-0.4,0-0.6,0c-1.3,0-2.7,0-4,0.1
	c-1.7,0.1-2.6,1-2.7,2.7c-0.1,1.8,0,3.5,0,5.4c2.3,0,4.7,0,7.1,0c-0.3,2.4-0.6,4.8-0.9,7.2c-2.1,0-4.1,0-6.2,0c0,6.2,0,12.3,0,18.5
	c-2.5,0-4.9,0-7.4,0c0-6.1,0-12.3,0-18.4c-2.1,0-4.1,0-6.2,0c0-2.4,0-4.8,0-7.2c2,0,4.1,0,6.2,0c0-0.2,0-0.4,0-0.5
	c0-1.9,0-3.8,0-5.7c0.1-2.3,0.8-4.4,2.4-6c1.2-1.3,2.7-2,4.5-2.4c0.5-0.1,0.9-0.2,1.4-0.2C37,4.8,38,4.8,39,4.8z"/>
</svg>
