<?xml version="1.0" encoding="utf-8"?>
<!-- Generator: Adobe Illustrator 27.0.0, SVG Export Plug-In . SVG Version: 6.00 Build 0)  -->
<svg version="1.1" id="圖層_1" xmlns="http://www.w3.org/2000/svg" xmlns:xlink="http://www.w3.org/1999/xlink" x="0px" y="0px"
	 viewBox="0 0 64 50" style="enable-background:new 0 0 64 50;" xml:space="preserve">
<style type="text/css">
	.st0{fill:#FFFFFF;}
</style>
<g>
	<path class="st0" d="M11.5,37.1c0-6.3,0-12.6,0-18.8c0.1,0,0.1,0,0.2,0.1c5.5,3.7,11.1,7.4,16.6,11.1c2.4,1.6,4.9,1.6,7.3,0
		c5.5-3.7,11-7.3,16.4-11c0.1-0.1,0.2-0.2,0.4-0.3c0,0.1,0,0.2,0,0.3c0,6,0,12,0,17.9c0,0.3,0,0.7-0.1,1c-0.4,1.8-1.9,2.9-3.9,2.9
		c-5.5,0-11.1,0-16.6,0s-10.9,0-16.4,0c-1.1,0-2-0.3-2.8-1.1C12,38.7,11.7,37.9,11.5,37.1z"/>
	<path class="st0" d="M11.5,12.9c0.1-0.2,0.1-0.4,0.2-0.7c0.5-1.5,1.9-2.5,3.6-2.6c0.7,0,1.5,0,2.2,0c10.3,0,20.6,0,30.9,0
		c1.2,0,2.2,0.4,3,1.3c1.5,1.7,1.3,4.2-0.6,5.5c-2.5,1.7-5,3.3-7.5,5c-3,2-6,4-9,6c-1.7,1.1-3.1,1.1-4.8,0
		c-5.3-3.5-10.5-7-15.8-10.5c-1.1-0.7-2-1.6-2.3-3C11.5,13.6,11.5,13.3,11.5,12.9z"/>
</g>
</svg>
