<?xml version="1.0" encoding="utf-8"?>
<!-- Generator: Adobe Illustrator 27.0.0, SVG Export Plug-In . SVG Version: 6.00 Build 0)  -->
<svg version="1.1" id="圖層_1" xmlns="http://www.w3.org/2000/svg" xmlns:xlink="http://www.w3.org/1999/xlink" x="0px" y="0px"
	 viewBox="0 0 1408 183" style="enable-background:new 0 0 1408 183;" xml:space="preserve">
<style type="text/css">
	.st0{fill:#DBDCDC;}
</style>
<g>
	<g>
		<path class="st0" d="M83.4,136.9c0,13.9-4.7,25.1-14.2,33.6c-8.5,7.7-18.5,11.5-30,11.5c-14.7,0-27.8-4.8-39.1-14.5l4.9-8.1
			c10.2,10.8,21.7,16.2,34.3,16.2c9.4,0,17-3.1,23-9.3c5.9-6.2,8.9-14.7,8.9-25.6c0-18.5-10.8-34.5-32.5-47.8
			C14.2,77.9,2.6,59.6,3.6,38.2C4.1,27.3,8.2,18.5,16,11.9c7.5-6.3,16.7-9.5,27.7-9.5c4.8,0.3,9.2,1,13.3,2.3
			c9.9,2.8,17.2,7.8,21.9,15l-5.8,6.5c-2.6-4.1-6.1-7.8-10.5-11c-6.1-4.5-12.4-6.8-19.2-6.8c-7.7,0-14.2,2.4-19.6,7.2
			c-5.4,4.8-8.3,10.9-8.8,18.4c-0.9,14.7,8.3,28.4,27.7,41.1C58.7,85.4,69.7,95.9,76,106.7C80.9,115.3,83.4,125.4,83.4,136.9z"/>
		<path class="st0" d="M235,9.2h-41.6v171.1H178V9.2h-42.1V3.8H235V9.2z"/>
		<path class="st0" d="M384.8,180.4H368l-50.8-98c2.5,0.2,4.9,0.3,7.2,0.3c22.6,0,33.9-11.8,33.9-35.4c0-26-14.2-38.8-42.6-38.4
			h-10.4v171.5H290V4.1c2.4-0.2,11.6-0.3,27.7-0.3c37.2-0.4,55.9,13.9,55.9,42.7c0,11.4-3.3,20.7-10,27.9
			c-6.6,7.2-15.7,11.6-27.1,13.1L384.8,180.4z"/>
		<path class="st0" d="M562.2,125.2c0,17.8-5.5,32-16.6,42.6c-10.1,9.5-22.5,14.2-37.3,14.2c-14.7,0-27.2-4.8-37.3-14.3
			c-11.1-10.5-16.6-24.7-16.6-42.5V4h15.5v120c0,34.7,12.8,52,38.5,52c25.7,0,38.5-17.3,38.5-52V4h15.5V125.2z"/>
		<path class="st0" d="M758.6,155.8c-11.9,17.4-28.1,26.2-48.5,26.2c-19.4,0-36.3-9-50.8-27c-14.5-18-21.8-39-21.8-63
			c0-24.4,6.6-45.4,19.7-63C670.6,11,686.9,2,706,2c18.7,0,34.1,5.9,46.4,17.6l-6,8C735.2,14.1,721.7,7.4,706,7.4
			c-15.4,0-27.8,8.3-37.2,24.9C659.8,48,655.3,67.9,655.3,92c0,23.6,5.2,43.5,15.6,59.7c10.5,16.6,23.6,24.9,39.3,24.9
			c18.2,0,32.1-8.9,41.8-26.6L758.6,155.8z"/>
		<path class="st0" d="M924.1,9.2h-41.6v171.1H867V9.2H825V3.8h99.1V9.2z"/>
		<path class="st0" d="M1086.9,125.2c0,17.8-5.5,32-16.6,42.6c-10.1,9.5-22.5,14.2-37.3,14.2c-14.7,0-27.2-4.8-37.3-14.3
			C984.6,157.1,979,143,979,125.2V4h15.5v120c0,34.7,12.8,52,38.5,52c25.7,0,38.5-17.3,38.5-52V4h15.5V125.2z"/>
		<path class="st0" d="M1263.3,180.4h-16.8l-50.8-98c2.5,0.2,4.9,0.3,7.2,0.3c22.6,0,33.9-11.8,33.9-35.4c0-26-14.2-38.8-42.6-38.4
			h-10.4v171.5h-15.3V4.1c2.4-0.2,11.6-0.3,27.7-0.3c37.2-0.4,55.9,13.9,55.9,42.7c0,11.4-3.3,20.7-10,27.9
			c-6.6,7.2-15.7,11.6-27.1,13.1L1263.3,180.4z"/>
		<path class="st0" d="M1408,180.3h-73.9V3.8h71.2v5.4h-55.7v71.3h50.3V86h-50.3v88.9h58.4V180.3z"/>
	</g>
</g>
</svg>
