<?xml version="1.0" encoding="utf-8"?>
<!-- Generator: Adobe Illustrator 27.0.0, SVG Export Plug-In . SVG Version: 6.00 Build 0)  -->
<svg version="1.1" id="圖層_1" xmlns="http://www.w3.org/2000/svg" xmlns:xlink="http://www.w3.org/1999/xlink" x="0px" y="0px"
	 viewBox="0 0 1453 188" style="enable-background:new 0 0 1453 188;" xml:space="preserve">
<style type="text/css">
	.st0{fill:#DBDCDC;}
</style>
<g>
	<g>
		<path class="st0" d="M75.4,183H0V2.8h72.7v5.5H15.8v72.8h51.3v5.5H15.8v90.8h59.6V183z"/>
		<path class="st0" d="M226.9,185.8L127.4,35.9V183h-4.8V0l99.5,148.4V2.9h4.8L226.9,185.8L226.9,185.8z"/>
		<path class="st0" d="M403.6,157.1c-11.8,18.4-28.3,27.7-49.4,27.7c-19.7,0-37-9.2-51.9-27.5c-14.8-18.4-22.2-39.8-22.2-64.4
			c0-24.9,6.7-46.4,20.1-64.4C313.8,10,330.3,0.8,349.8,0.8c20.4,0,36.9,6.4,49.3,19.3l-5.6,7.8c-12.3-14.2-26.9-21.3-43.7-21.3
			c-15.7,0-28.4,8.4-38,25.2c-9.1,16.1-13.7,36.5-13.7,61c0,24.1,5.3,44.4,15.9,60.9c10.7,16.8,24,25.2,40,25.2
			c13.3,0,24.7-4.2,34.2-12.5V94.9h15.3v62.2H403.6z"/>
		<path class="st0" d="M477.3,182.9h-15.8V2.9h15.8V182.9z"/>
		<path class="st0" d="M644.8,185.8L545.3,35.9V183h-4.8V0L640,148.4V2.9h4.8V185.8z"/>
		<path class="st0" d="M778.9,183h-75.4V2.8h72.7v5.5h-56.9v72.8h51.3v5.5h-51.3v90.8h59.6L778.9,183L778.9,183z"/>
		<path class="st0" d="M901.5,183h-75.4V2.8h72.7v5.5h-56.9v72.8h51.3v5.5h-51.3v90.8h59.6L901.5,183L901.5,183z"/>
		<path class="st0" d="M1045.4,183.1h-17.2L976.4,83c2.5,0.2,5,0.3,7.3,0.3c23,0,34.6-12,34.6-36.1c0-26.6-14.5-39.7-43.4-39.2
			h-10.6v175.1h-15.7V3.1c2.4-0.2,11.9-0.3,28.3-0.3c38-0.4,57,14.2,57,43.7c0,11.6-3.4,21.1-10.2,28.5c-6.8,7.4-16,11.9-27.6,13.4
			L1045.4,183.1z"/>
		<path class="st0" d="M1108.9,182.9h-15.8V2.9h15.8V182.9z"/>
		<path class="st0" d="M1276.4,185.8l-99.6-149.9V183h-4.8V0l99.5,148.4V2.9h4.8L1276.4,185.8L1276.4,185.8z"/>
		<path class="st0" d="M1453,157.1c-11.8,18.4-28.3,27.7-49.4,27.7c-19.7,0-37-9.2-51.9-27.5c-14.8-18.4-22.2-39.8-22.2-64.4
			c0-24.9,6.7-46.4,20.1-64.4c13.7-18.5,30.2-27.7,49.7-27.7c20.4,0,36.9,6.4,49.3,19.3l-5.6,7.8c-12.4-14.2-26.9-21.3-43.7-21.3
			c-15.7,0-28.4,8.4-38,25.2c-9.1,16.1-13.7,36.5-13.7,61c0,24.1,5.3,44.4,15.9,60.9c10.7,16.8,24,25.2,40,25.2
			c13.3,0,24.7-4.2,34.2-12.5V94.9h15.3L1453,157.1L1453,157.1z"/>
	</g>
</g>
</svg>
