<?xml version="1.0" encoding="utf-8"?>
<!-- Generator: Adobe Illustrator 27.0.0, SVG Export Plug-In . SVG Version: 6.00 Build 0)  -->
<svg version="1.1" id="圖層_1" xmlns="http://www.w3.org/2000/svg" xmlns:xlink="http://www.w3.org/1999/xlink" x="0px" y="0px"
	 viewBox="0 0 1452 187" style="enable-background:new 0 0 1452 187;" xml:space="preserve">
<style type="text/css">
	.st0{fill:#DBDCDC;}
</style>
<g>
	<g>
		<path class="st0" d="M129,184.1h-16.6l-26.8-76.8H48v-5.5h35.5l-24.7-71L5.6,184.1l-5.6,0l64.3-184L129,184.1z"/>
		<path class="st0" d="M299.3,184.3h-17.3L230,83.6c2.5,0.2,5,0.3,7.3,0.3c23.2,0,34.8-12.1,34.8-36.3c0-26.8-14.6-39.9-43.7-39.4
			h-10.6v176.2H202V3.2c2.4-0.2,11.9-0.3,28.5-0.3c38.2-0.4,57.3,14.2,57.3,43.9c0,11.7-3.4,21.2-10.2,28.7
			c-6.8,7.4-16.1,11.9-27.8,13.5L299.3,184.3z"/>
		<path class="st0" d="M488,159c-12.2,17.9-28.8,26.9-49.7,26.9c-19.9,0-37.2-9.2-52.2-27.7c-14.9-18.5-22.4-40.1-22.4-64.7
			c0-25.1,6.7-46.7,20.2-64.7C397.6,10.2,414.3,1,433.9,1c19.2,0,35,6,47.6,18.1l-6.2,8.2c-11.5-13.8-25.3-20.7-41.5-20.7
			c-15.8,0-28.6,8.5-38.2,25.6c-9.2,16.2-13.8,36.6-13.8,61.4c0,24.2,5.3,44.7,16,61.4c10.8,17,24.2,25.6,40.3,25.6
			c18.6,0,32.9-9.1,42.9-27.3L488,159z"/>
		<path class="st0" d="M672.2,184h-15.9V87.2h-77.8V184h-15.9V3.2h15.9v78.5h77.8V3.2h15.9V184z"/>
		<path class="st0" d="M776.9,184H761V3h15.9V184z"/>
		<path class="st0" d="M957.9,8.4h-42.7v175.7h-15.9V8.4h-43.2V2.9h101.7V8.4z"/>
		<path class="st0" d="M1090.2,184.1h-75.9V2.9h73.1v5.6h-57.2v73.3h51.6v5.5h-51.6v91.4h60V184.1z"/>
		<path class="st0" d="M1281.6,159c-12.2,17.9-28.8,26.9-49.7,26.9c-19.9,0-37.2-9.2-52.2-27.7c-14.9-18.5-22.4-40.1-22.4-64.7
			c0-25.1,6.7-46.7,20.2-64.7c13.7-18.5,30.4-27.7,50-27.7c19.2,0,35,6,47.6,18.1l-6.2,8.2c-11.5-13.8-25.3-20.7-41.5-20.7
			c-15.8,0-28.6,8.5-38.2,25.6c-9.2,16.2-13.8,36.6-13.8,61.4c0,24.2,5.3,44.7,16,61.4c10.8,17,24.2,25.6,40.3,25.6
			c18.6,0,32.9-9.1,42.9-27.3L1281.6,159z"/>
		<path class="st0" d="M1452,8.4h-42.7v175.7h-15.9V8.4h-43.2V2.9H1452V8.4z"/>
	</g>
</g>
</svg>
